<?xml version="1.0" encoding="UTF-8"?>
<!DOCTYPE svg PUBLIC "-//W3C//DTD SVG 1.1//EN" "http://www.w3.org/Graphics/SVG/1.1/DTD/svg11.dtd">
<svg xmlns="http://www.w3.org/2000/svg" version="1.1" width="225px" height="225px" style="shape-rendering:geometricPrecision; text-rendering:geometricPrecision; image-rendering:optimizeQuality; fill-rule:evenodd; clip-rule:evenodd" xmlns:xlink="http://www.w3.org/1999/xlink">
<g><path style="opacity:1" fill="#fdfefe" d="M -0.5,-0.5 C 33.8333,-0.5 68.1667,-0.5 102.5,-0.5C 51.8307,6.66254 18.664,34.6625 3,83.5C 1.43784,89.9065 0.271177,96.2398 -0.5,102.5C -0.5,68.1667 -0.5,33.8333 -0.5,-0.5 Z"/></g>
<g><path style="opacity:1" fill="#0875a5" d="M 102.5,-0.5 C 108.5,-0.5 114.5,-0.5 120.5,-0.5C 180.396,8.39574 215.062,42.7291 224.5,102.5C 224.5,108.5 224.5,114.5 224.5,120.5C 223.571,127.143 222.238,133.81 220.5,140.5C 204.585,126.088 189.085,111.088 174,95.5C 173.802,97.3817 173.302,99.0484 172.5,100.5C 172.5,98.5 172.5,96.5 172.5,94.5C 171.167,94.5 169.833,94.5 168.5,94.5C 167.71,93.5987 166.71,92.9321 165.5,92.5C 147.648,82.3197 129.814,71.9864 112,61.5C 94.221,71.9713 76.3877,82.3046 58.5,92.5C 57.2905,92.9321 56.2905,93.5987 55.5,94.5C 54.1667,94.5 52.8333,94.5 51.5,94.5C 51.5,96.5 51.5,98.5 51.5,100.5C 54.8333,100.5 58.1667,100.5 61.5,100.5C 60.9898,103.388 61.6565,105.721 63.5,107.5C 63.5,121.5 63.5,135.5 63.5,149.5C 60.8333,149.5 58.1667,149.5 55.5,149.5C 55.5,151.5 55.5,153.5 55.5,155.5C 53.901,155.232 52.5676,155.566 51.5,156.5C 51.5,158.5 51.5,160.5 51.5,162.5C 71.8333,183.167 92.1667,203.833 112.5,224.5C 109.167,224.5 105.833,224.5 102.5,224.5C 42.7591,215.032 8.42579,180.365 -0.5,120.5C -0.5,114.5 -0.5,108.5 -0.5,102.5C 0.271177,96.2398 1.43784,89.9065 3,83.5C 18.664,34.6625 51.8307,6.66254 102.5,-0.5 Z"/></g>
<g><path style="opacity:1" fill="#fdfdfe" d="M 120.5,-0.5 C 155.167,-0.5 189.833,-0.5 224.5,-0.5C 224.5,33.8333 224.5,68.1667 224.5,102.5C 215.062,42.7291 180.396,8.39574 120.5,-0.5 Z"/></g>
<g><path style="opacity:1" fill="#deedf8" d="M 165.5,92.5 C 129.833,93.8333 94.1667,93.8333 58.5,92.5C 76.3877,82.3046 94.221,71.9713 112,61.5C 129.814,71.9864 147.648,82.3197 165.5,92.5 Z"/></g>
<g><path style="opacity:1" fill="#b8d1e6" d="M 110.5,69.5 C 121.55,74.5271 132.217,80.3605 142.5,87C 122.167,87.6667 101.833,87.6667 81.5,87C 91.2302,81.1409 100.897,75.3076 110.5,69.5 Z"/></g>
<g><path style="opacity:1" fill="#c9deed" d="M 58.5,92.5 C 94.1667,93.8333 129.833,93.8333 165.5,92.5C 166.71,92.9321 167.71,93.5987 168.5,94.5C 130.833,94.5 93.1667,94.5 55.5,94.5C 56.2905,93.5987 57.2905,92.9321 58.5,92.5 Z"/></g>
<g><path style="opacity:1" fill="#fefffe" d="M 55.5,94.5 C 93.1667,94.5 130.833,94.5 168.5,94.5C 169.833,94.5 171.167,94.5 172.5,94.5C 172.5,96.5 172.5,98.5 172.5,100.5C 169.167,100.5 165.833,100.5 162.5,100.5C 158.167,100.5 153.833,100.5 149.5,100.5C 144.167,100.5 138.833,100.5 133.5,100.5C 129.167,100.5 124.833,100.5 120.5,100.5C 114.833,100.5 109.167,100.5 103.5,100.5C 99.1667,100.5 94.8333,100.5 90.5,100.5C 85.1667,100.5 79.8333,100.5 74.5,100.5C 70.1667,100.5 65.8333,100.5 61.5,100.5C 58.1667,100.5 54.8333,100.5 51.5,100.5C 51.5,98.5 51.5,96.5 51.5,94.5C 52.8333,94.5 54.1667,94.5 55.5,94.5 Z"/></g>
<g><path style="opacity:1" fill="#035e90" d="M 220.5,140.5 C 205.13,189.869 171.796,217.869 120.5,224.5C 117.833,224.5 115.167,224.5 112.5,224.5C 92.1667,203.833 71.8333,183.167 51.5,162.5C 91.8333,162.5 132.167,162.5 172.5,162.5C 172.5,160.5 172.5,158.5 172.5,156.5C 171.432,155.566 170.099,155.232 168.5,155.5C 168.5,153.5 168.5,151.5 168.5,149.5C 166.393,148.532 164.059,148.198 161.5,148.5C 161.5,134.833 161.5,121.167 161.5,107.5C 162.468,105.393 162.802,103.059 162.5,100.5C 165.833,100.5 169.167,100.5 172.5,100.5C 173.302,99.0484 173.802,97.3817 174,95.5C 189.085,111.088 204.585,126.088 220.5,140.5 Z"/></g>
<g><path style="opacity:1" fill="#cfe0ed" d="M 61.5,100.5 C 65.8333,100.5 70.1667,100.5 74.5,100.5C 72.726,116.759 72.0593,133.092 72.5,149.5C 71.8333,149.5 71.5,149.167 71.5,148.5C 71.5,134.833 71.5,121.167 71.5,107.5C 68.8333,107.5 66.1667,107.5 63.5,107.5C 61.6565,105.721 60.9898,103.388 61.5,100.5 Z"/></g>
<g><path style="opacity:1" fill="#cfe0ed" d="M 149.5,100.5 C 153.833,100.5 158.167,100.5 162.5,100.5C 162.802,103.059 162.468,105.393 161.5,107.5C 161.167,107.5 160.833,107.5 160.5,107.5C 157.833,107.5 155.167,107.5 152.5,107.5C 152.5,121.167 152.5,134.833 152.5,148.5C 152.5,149.167 152.167,149.5 151.5,149.5C 151.941,133.092 151.274,116.759 149.5,100.5 Z"/></g>
<g><path style="opacity:1" fill="#055d8f" d="M 74.5,100.5 C 79.8333,100.5 85.1667,100.5 90.5,100.5C 92.274,116.759 92.9407,133.092 92.5,149.5C 85.8333,149.5 79.1667,149.5 72.5,149.5C 72.0593,133.092 72.726,116.759 74.5,100.5 Z"/></g>
<g><path style="opacity:1" fill="#055d8f" d="M 133.5,100.5 C 138.833,100.5 144.167,100.5 149.5,100.5C 151.274,116.759 151.941,133.092 151.5,149.5C 144.833,149.5 138.167,149.5 131.5,149.5C 131.059,133.092 131.726,116.759 133.5,100.5 Z"/></g>
<g><path style="opacity:1" fill="#fefefe" d="M 63.5,107.5 C 66.1667,107.5 68.8333,107.5 71.5,107.5C 71.5,121.167 71.5,134.833 71.5,148.5C 68.7212,148.279 66.0545,148.612 63.5,149.5C 63.5,135.5 63.5,121.5 63.5,107.5 Z"/></g>
<g><path style="opacity:1" fill="#fefffe" d="M 160.5,107.5 C 160.5,121.167 160.5,134.833 160.5,148.5C 157.833,148.5 155.167,148.5 152.5,148.5C 152.5,134.833 152.5,121.167 152.5,107.5C 155.167,107.5 157.833,107.5 160.5,107.5 Z"/></g>
<g><path style="opacity:1" fill="#709ab8" d="M 160.5,107.5 C 160.833,107.5 161.167,107.5 161.5,107.5C 161.5,121.167 161.5,134.833 161.5,148.5C 164.059,148.198 166.393,148.532 168.5,149.5C 165.615,149.806 162.948,149.473 160.5,148.5C 160.5,134.833 160.5,121.167 160.5,107.5 Z"/></g>
<g><path style="opacity:1" fill="#fdfdfe" d="M -0.5,120.5 C 8.42579,180.365 42.7591,215.032 102.5,224.5C 68.1667,224.5 33.8333,224.5 -0.5,224.5C -0.5,189.833 -0.5,155.167 -0.5,120.5 Z"/></g>
<g><path style="opacity:1" fill="#fcfdfe" d="M 224.5,120.5 C 224.5,155.167 224.5,189.833 224.5,224.5C 189.833,224.5 155.167,224.5 120.5,224.5C 171.796,217.869 205.13,189.869 220.5,140.5C 222.238,133.81 223.571,127.143 224.5,120.5 Z"/></g>
<g><path style="opacity:1" fill="#e0eef8" d="M 90.5,100.5 C 94.8333,100.5 99.1667,100.5 103.5,100.5C 103.802,103.059 103.468,105.393 102.5,107.5C 102.167,107.5 101.833,107.5 101.5,107.5C 98.8333,107.5 96.1667,107.5 93.5,107.5C 93.5,121.167 93.5,134.833 93.5,148.5C 96.1667,148.5 98.8333,148.5 101.5,148.5C 108.5,149.833 115.5,149.833 122.5,148.5C 125.167,148.5 127.833,148.5 130.5,148.5C 130.5,134.833 130.5,121.167 130.5,107.5C 127.833,107.5 125.167,107.5 122.5,107.5C 122.167,107.5 121.833,107.5 121.5,107.5C 120.532,105.393 120.198,103.059 120.5,100.5C 124.833,100.5 129.167,100.5 133.5,100.5C 131.726,116.759 131.059,133.092 131.5,149.5C 138.167,149.5 144.833,149.5 151.5,149.5C 152.167,149.5 152.5,149.167 152.5,148.5C 155.167,148.5 157.833,148.5 160.5,148.5C 162.948,149.473 165.615,149.806 168.5,149.5C 168.5,151.5 168.5,153.5 168.5,155.5C 170.099,155.232 171.432,155.566 172.5,156.5C 132.167,156.5 91.8333,156.5 51.5,156.5C 52.5676,155.566 53.901,155.232 55.5,155.5C 55.5,153.5 55.5,151.5 55.5,149.5C 58.1667,149.5 60.8333,149.5 63.5,149.5C 66.0545,148.612 68.7212,148.279 71.5,148.5C 71.5,149.167 71.8333,149.5 72.5,149.5C 79.1667,149.5 85.8333,149.5 92.5,149.5C 92.9407,133.092 92.274,116.759 90.5,100.5 Z"/></g>
<g><path style="opacity:1" fill="#fefffe" d="M 122.5,107.5 C 125.167,107.5 127.833,107.5 130.5,107.5C 130.5,121.167 130.5,134.833 130.5,148.5C 127.833,148.5 125.167,148.5 122.5,148.5C 122.5,134.833 122.5,121.167 122.5,107.5 Z"/></g>
<g><path style="opacity:1" fill="#2f76a0" d="M 101.5,107.5 C 101.833,107.5 102.167,107.5 102.5,107.5C 102.5,121.167 102.5,134.833 102.5,148.5C 108.833,148.5 115.167,148.5 121.5,148.5C 121.5,134.833 121.5,121.167 121.5,107.5C 121.833,107.5 122.167,107.5 122.5,107.5C 122.5,121.167 122.5,134.833 122.5,148.5C 115.5,149.833 108.5,149.833 101.5,148.5C 101.5,134.833 101.5,121.167 101.5,107.5 Z"/></g>
<g><path style="opacity:1" fill="#fefffe" d="M 101.5,107.5 C 101.5,121.167 101.5,134.833 101.5,148.5C 98.8333,148.5 96.1667,148.5 93.5,148.5C 93.5,134.833 93.5,121.167 93.5,107.5C 96.1667,107.5 98.8333,107.5 101.5,107.5 Z"/></g>
<g><path style="opacity:1" fill="#045e90" d="M 103.5,100.5 C 109.167,100.5 114.833,100.5 120.5,100.5C 120.198,103.059 120.532,105.393 121.5,107.5C 121.5,121.167 121.5,134.833 121.5,148.5C 115.167,148.5 108.833,148.5 102.5,148.5C 102.5,134.833 102.5,121.167 102.5,107.5C 103.468,105.393 103.802,103.059 103.5,100.5 Z"/></g>
<g><path style="opacity:1" fill="#f7f9fb" d="M 51.5,156.5 C 91.8333,156.5 132.167,156.5 172.5,156.5C 172.5,158.5 172.5,160.5 172.5,162.5C 132.167,162.5 91.8333,162.5 51.5,162.5C 51.5,160.5 51.5,158.5 51.5,156.5 Z"/></g>
</svg>
