<?xml version="1.0" encoding="UTF-8" standalone="no"?>
<!-- Created with Inkscape (http://www.inkscape.org/) -->

<svg
   version="1.1"
   id="svg6834"
   xml:space="preserve"
   viewBox="0 0 682.66669 682.66669"
   xmlns="http://www.w3.org/2000/svg"
   xmlns:svg="http://www.w3.org/2000/svg"><defs
     id="defs6838"><clipPath
       clipPathUnits="userSpaceOnUse"
       id="clipPath6848"><path
         d="M 0,512 H 512 V 0 H 0 Z"
         id="path6846" /></clipPath></defs><g
     id="g6840"
     transform="matrix(1.3333333,0,0,-1.3333333,0,682.66667)"><g
       id="g6842"><g
         id="g6844"
         clip-path="url(#clipPath6848)"><g
           id="g6850"
           transform="translate(496.7896,346.4531)"><path
             d="m 0,0 -302.194,-307.796 c -10.293,-10.483 -27.155,-10.662 -37.666,-0.399 l -111.574,108.926 c -10.517,10.268 -10.694,27.098 -0.397,37.587 l 302.194,307.795 c 10.293,10.484 27.155,10.663 37.667,0.401 L -0.397,37.586 C 10.12,27.318 10.298,10.488 0,0"
             style="fill:#b8d7e6;fill-opacity:1;fill-rule:nonzero;stroke:none"
             id="path6852" /></g><g
           id="g6854"
           transform="translate(347.1465,492.5605)"><path
             d="m 0,0 -85.584,-87.171 149.65,-146.1 85.584,87.169 c 10.295,10.487 10.117,27.309 -0.397,37.575 L 37.68,0.399 C 27.165,10.665 10.295,10.485 0,0"
             style="fill:#5177e8;fill-opacity:1;fill-rule:nonzero;stroke:none"
             id="path6856" /></g><g
           id="g6858"
           transform="translate(350.2354,318.8193)"><path
             d="m 0,0 60.977,-59.53 85.584,87.17 c 10.295,10.486 10.117,27.308 -0.397,37.574 l -41.939,40.943 z"
             style="fill:#ff9000;fill-opacity:1;fill-rule:nonzero;stroke:none"
             id="path6860" /></g><g
           id="g6862"
           transform="translate(428.5029,375.4521)"><path
             d="m 0,0 -243.246,-356.314 c -8.285,-12.136 -24.851,-15.289 -37.005,-7.042 l -129.013,87.525 c -12.16,8.25 -15.3,24.785 -7.011,36.927 l 243.246,356.314 c 8.285,12.136 24.851,15.288 37.006,7.042 L -7.011,36.927 C 5.15,28.677 8.289,12.142 0,0"
             style="fill:#ebf9ff;fill-opacity:1;fill-rule:nonzero;stroke:none"
             id="path6864" /></g><g
           id="g6866"
           transform="translate(421.4917,412.3789)"><path
             d="m 0,0 -129.012,87.525 c -9.959,6.757 -22.876,5.857 -31.777,-1.363 L -33.786,0 c 12.161,-8.25 15.3,-24.785 7.011,-36.927 L -270.021,-393.24 c -1.496,-2.194 -3.267,-4.088 -5.229,-5.68 l 2.01,-1.363 c 12.155,-8.246 28.72,-5.094 37.006,7.043 L 7.011,-36.927 C 15.3,-24.785 12.161,-8.25 0,0"
             style="fill:#d7effa;fill-opacity:1;fill-rule:nonzero;stroke:none"
             id="path6868" /></g><g
           id="g6870"
           transform="translate(255.4687,492.8545)"><path
             d="m 0,0 -68.889,-100.911 102.532,-69.561 139.397,53.076 c 8.287,12.14 5.148,28.667 -7.009,36.916 L 37.019,7.045 C 24.861,15.293 8.287,12.139 0,0"
             style="fill:#7191f0;fill-opacity:1;fill-rule:nonzero;stroke:none"
             id="path6872" /></g><g
           id="g6874"
           transform="translate(421.4995,412.374)"><path
             d="m 0,0 -129.012,87.525 c -12.158,8.248 -28.732,5.094 -37.019,-7.045 l -3.613,-5.292 c 8.213,3.778 18.143,3.296 26.155,-2.14 l 129.012,-87.526 c 8.862,-6.011 12.925,-16.422 11.27,-26.326 l 10.216,3.889 C 15.296,-24.775 12.158,-8.248 0,0"
             style="fill:#6084f0;fill-opacity:1;fill-rule:nonzero;stroke:none"
             id="path6876" /></g><g
           id="g6878"
           transform="translate(128.7935,159.8721)"><path
             d="m 0,0 -22.083,-32.347 c -7.281,-10.667 -21.841,-13.437 -32.524,-6.19 -10.689,7.252 -13.448,21.784 -6.163,32.456 l 22.082,32.348 c 7.282,10.666 21.842,13.437 32.525,6.189 C 4.526,25.204 7.285,10.672 0,0"
             style="fill:#ffe940;fill-opacity:1;fill-rule:nonzero;stroke:none"
             id="path6880" /></g><g
           id="g6882"
           transform="translate(289.1118,322.3828)"><path
             d="m 0,0 70.507,-47.835 68.889,100.911 c 8.288,12.14 5.149,28.667 -7.008,36.915 l -48.494,32.9 z"
             style="fill:#ffe940;fill-opacity:1;fill-rule:nonzero;stroke:none"
             id="path6884" /></g><g
           id="g6886"
           transform="translate(421.4995,412.374)"><path
             d="M 0,0 -48.494,32.899 -59.256,17.134 -34,0 c 12.158,-8.248 15.296,-24.775 7.009,-36.915 l -58.127,-85.146 23.238,-15.764 68.889,100.91 C 15.296,-24.775 12.158,-8.248 0,0"
             style="fill:#f5dc1d;fill-opacity:1;fill-rule:nonzero;stroke:none"
             id="path6888" /></g><g
           id="g6890"
           transform="translate(411.2124,259.2891)"><path
             d="M 0,0 -198.42,-202.098"
             style="fill:none;stroke:#000000;stroke-width:15;stroke-linecap:round;stroke-linejoin:round;stroke-miterlimit:10;stroke-dasharray:none;stroke-opacity:1"
             id="path6892" /></g><g
           id="g6894"
           transform="translate(329.6191,474.708)"><path
             d="M 0,0 17.534,17.858 C 27.827,28.342 44.688,28.521 55.2,18.259 L 166.773,-90.669"
             style="fill:none;stroke:#000000;stroke-width:15;stroke-linecap:round;stroke-linejoin:round;stroke-miterlimit:10;stroke-dasharray:none;stroke-opacity:1"
             id="path6896" /></g><g
           id="g6898"
           transform="translate(460.4551,419.125)"><path
             d="m 0,0 -75.629,73.835 c -10.515,10.266 -27.384,10.086 -37.68,-0.399"
             style="fill:none;stroke:#000000;stroke-width:15;stroke-linecap:round;stroke-linejoin:round;stroke-miterlimit:10;stroke-dasharray:none;stroke-opacity:1"
             id="path6900" /></g><g
           id="g6902"
           transform="translate(374.0972,295.5244)"><path
             d="M 0,0 37.115,-36.235"
             style="fill:none;stroke:#000000;stroke-width:15;stroke-linecap:round;stroke-linejoin:round;stroke-miterlimit:10;stroke-dasharray:none;stroke-opacity:1"
             id="path6904" /></g><g
           id="g6906"
           transform="translate(478.6899,328.0176)"><path
             d="M 0,0 18.106,18.441 C 28.401,28.928 28.224,45.75 17.709,56.016 L -24.229,96.959 -45.873,74.915"
             style="fill:none;stroke:#000000;stroke-width:15;stroke-linecap:round;stroke-linejoin:round;stroke-miterlimit:10;stroke-dasharray:none;stroke-opacity:1"
             id="path6908" /></g><g
           id="g6910"
           transform="translate(374.0972,295.5244)"><path
             d="M 0,0 37.115,-36.235 71.873,-0.834"
             style="fill:none;stroke:#000000;stroke-width:15;stroke-linecap:round;stroke-linejoin:round;stroke-miterlimit:10;stroke-dasharray:none;stroke-opacity:1"
             id="path6912" /></g><g
           id="g6914"
           transform="translate(38.791,175.458)"><path
             d="m 0,0 -26.563,-38.91 c -8.289,-12.142 -5.149,-28.677 7.011,-36.927 l 129.012,-87.525 c 12.155,-8.246 28.721,-5.094 37.006,7.043 l 243.246,356.313 c 8.289,12.142 5.15,28.677 -7.011,36.927 l -129.012,87.525 c -12.155,8.246 -28.721,5.094 -37.006,-7.042 L 22.445,32.879"
             style="fill:none;stroke:#000000;stroke-width:15;stroke-linecap:round;stroke-linejoin:round;stroke-miterlimit:10;stroke-dasharray:none;stroke-opacity:1"
             id="path6916" /></g><g
           id="g6918"
           transform="translate(255.4687,492.8545)"><path
             d="m 0,0 -68.889,-100.911 173.039,-117.396 68.89,100.911 c 8.287,12.14 5.148,28.667 -7.009,36.916 L 37.019,7.045 C 24.861,15.293 8.287,12.139 0,0 Z"
             style="fill:none;stroke:#000000;stroke-width:15;stroke-linecap:round;stroke-linejoin:round;stroke-miterlimit:10;stroke-dasharray:none;stroke-opacity:1"
             id="path6920" /></g><g
           id="g6922"
           transform="translate(242.4209,401.5391)"><path
             d="M 0,0 39.588,57.989"
             style="fill:none;stroke:#000000;stroke-width:15;stroke-linecap:round;stroke-linejoin:round;stroke-miterlimit:10;stroke-dasharray:none;stroke-opacity:1"
             id="path6924" /></g><g
           id="g6926"
           transform="translate(270.3184,382.6123)"><path
             d="M 0,0 27.32,40.019"
             style="fill:none;stroke:#000000;stroke-width:15;stroke-linecap:round;stroke-linejoin:round;stroke-miterlimit:10;stroke-dasharray:none;stroke-opacity:1"
             id="path6928" /></g><g
           id="g6930"
           transform="translate(127.2744,85.3184)"><path
             d="M 0,0 131.268,192.284"
             style="fill:none;stroke:#000000;stroke-width:15;stroke-linecap:round;stroke-linejoin:round;stroke-miterlimit:10;stroke-dasharray:none;stroke-opacity:1"
             id="path6932" /></g><g
           id="g6934"
           transform="translate(161.022,62.4238)"><path
             d="M 0,0 89.556,131.185"
             style="fill:none;stroke:#000000;stroke-width:15;stroke-linecap:round;stroke-linejoin:round;stroke-miterlimit:10;stroke-dasharray:none;stroke-opacity:1"
             id="path6936" /></g><g
           id="g6938"
           transform="translate(166.522,215.1377)"><path
             d="M 0,0 58.273,85.36"
             style="fill:none;stroke:#000000;stroke-width:15;stroke-linecap:round;stroke-linejoin:round;stroke-miterlimit:10;stroke-dasharray:none;stroke-opacity:1"
             id="path6940" /></g><g
           id="g6942"
           transform="translate(128.7935,159.8721)"><path
             d="m 0,0 -22.083,-32.347 c -7.281,-10.667 -21.841,-13.437 -32.524,-6.19 -10.689,7.252 -13.448,21.784 -6.163,32.456 l 22.082,32.348 c 7.282,10.666 21.842,13.437 32.525,6.189 C 4.526,25.204 7.285,10.672 0,0 Z"
             style="fill:none;stroke:#000000;stroke-width:15;stroke-linecap:round;stroke-linejoin:round;stroke-miterlimit:10;stroke-dasharray:none;stroke-opacity:1"
             id="path6944" /></g><g
           id="g6946"
           transform="translate(289.1118,322.3828)"><path
             d="m 0,0 70.507,-47.835 68.889,100.911 c 8.288,12.14 5.149,28.667 -7.008,36.915 l -48.494,32.9 z"
             style="fill:none;stroke:#000000;stroke-width:15;stroke-linecap:round;stroke-linejoin:round;stroke-miterlimit:10;stroke-dasharray:none;stroke-opacity:1"
             id="path6948" /></g><g
           id="g6950"
           transform="translate(335.373,334.2363)"><path
             d="M 0,0 18.333,-12.438"
             style="fill:none;stroke:#000000;stroke-width:15;stroke-linecap:round;stroke-linejoin:round;stroke-miterlimit:10;stroke-dasharray:none;stroke-opacity:1"
             id="path6952" /></g><g
           id="g6954"
           transform="translate(349.8882,355.499)"><path
             d="M 0,0 18.333,-12.438"
             style="fill:none;stroke:#000000;stroke-width:15;stroke-linecap:round;stroke-linejoin:round;stroke-miterlimit:10;stroke-dasharray:none;stroke-opacity:1"
             id="path6956" /></g><g
           id="g6958"
           transform="translate(364.4033,376.7607)"><path
             d="M 0,0 18.333,-12.438"
             style="fill:none;stroke:#000000;stroke-width:15;stroke-linecap:round;stroke-linejoin:round;stroke-miterlimit:10;stroke-dasharray:none;stroke-opacity:1"
             id="path6960" /></g><g
           id="g6962"
           transform="translate(378.9185,398.0234)"><path
             d="M 0,0 18.333,-12.438"
             style="fill:none;stroke:#000000;stroke-width:15;stroke-linecap:round;stroke-linejoin:round;stroke-miterlimit:10;stroke-dasharray:none;stroke-opacity:1"
             id="path6964" /></g></g></g></g></svg>
