<svg id="Layer_1" enable-background="new 0 0 53 53"  viewBox="0 0 53 53"  xmlns="http://www.w3.org/2000/svg"><g><path d="m27.9078674 18.4859428c-.0460205-.0879517-.0540161-.1829834-.0230103-.282959.0310059-.1000366.0910034-.1749878.1799927-.2230225.0889893-.0499878.1830139-.0579834.2839966-.0269775l.9960022.30896 1.3160095-4.2439585-.9830017.1539917c-.0899963.0089722-.1579895.007019-.2090149-.0090332-.1049805-.032959-.1819763-.0939941-.2269897-.1809692-.0469971-.0880127-.053009-.1849976-.0209961-.2910156.0490112-.1560059.1560059-.2479858.3249817-.2749634l1.3220215-.2410278c.0899963-.0159912.1739807-.0100098.2519836.0139771l.1759949.0540161c.1110229.0350342.1940002.1030273.2490234.2059937.0529785.1019897.0629883.2090454.0289917.3200073l-1.4679871 4.7290049.8279724.2579956c.1010132.0310059.1760254.0910034.2230225.1829834.0480042.0910034.0570068.1880493.0249939.2880249-.0299988.0999756-.0920105.1729736-.1830139.2180176-.0889893.0449829-.1839905.0529785-.2849731.0209961l-2.5860291-.802002c-.0999756-.031006-.1729736-.0910035-.2199707-.1780397"/><path d="m11.5435486 42.19981c-.0950012-.0909424-.1420288-.2089844-.1420288-.3539429 0-.3290405.0960083-.6310425.2880249-.9089966.1929932-.2770386.4259949-.5210571.7009888-.7330322.2739868-.2109985.6340027-.4619751 1.0830078-.7520142.3829956-.2459717.6900024-.4539795.9169922-.6239624.2269897-.1700439.4159851-.3560181.5669861-.5580444.151001-.2009888.2280273-.4159546.2280273-.6430054 0-.3599854-.1190186-.6449585-.3560181-.855957-.2359924-.2109985-.6159973-.3170166-1.1399841-.3170166-.5670166 0-1.1060181.1140137-1.6170044.3410034-.0620117.0310059-.1230164.0469971-.1790161.0469971-.1009827 0-.1860046-.0349731-.2550049-.1040039-.0699768-.0689697-.1049805-.15802-.1049805-.2650146 0-.1569824.0700073-.2739868.2080078-.3499756.6439819-.3209839 1.3439941-.4819946 2.0999756-.4819946.4030151 0 .7709961.0800171 1.1020203.2409668.3309937.1610107.5929871.3860474.7859802.6760254.1910095.289978.2880249.6240234.2880249 1.0029907 0 .3720093-.1090088.71698-.3270264 1.0350342-.21698.3189697-.4769897.5979614-.7799988.8369751-.3029785.2399902-.696991.5169678-1.1819763.8330078-.4420166.2960205-.7750244.5339966-.9980164.7139893-.223999.1790161-.3800049.3640137-.4679871.5529785h3.2909851c.1140137 0 .2099915.0400391.2890015.1190186.0780029.0780029.1180115.1740112.1180115.2880249 0 .1139526-.0400085.2080078-.1180115.2839966-.07901.0759888-.1749878.1129761-.2890015.1129761h-3.651001c-.1449889-.0000001-.2640074-.0460207-.3589781-.1370241"/><path d="m37.1344604 41.9205132c-.0760193-.0309448-.1350098-.0769653-.1800232-.1369629-.0449829-.0599976-.065979-.1340332-.065979-.2219849 0-.1069946.0369873-.2000122.1089783-.2789917.072998-.0790405.1620178-.118042.2690125-.118042.0559998 0 .1159973.0130005.1799927.0369873.4550171.184021.9550171.2750244 1.5029907.2750244.4930115 0 .9070129-.0800171 1.2450256-.2420044.3359985-.1610107.5049744-.4299927.5049744-.8079834 0-.7949829-.6949768-1.1920166-2.0899963-1.1920166h-.1519775c-.1070251 0-.1990051-.039978-.2790222-.117981-.0780029-.0780029-.1170044-.1719971-.1170044-.2789917s.0390015-.2000122.1170044-.2790527c.0800171-.0789795.1719971-.117981.2790222-.117981h.0579834c.6289978 0 1.1119995-.0960083 1.446991-.2890015.3340149-.1920166.5010071-.4779663.5010071-.8560181 0-.3019409-.1260071-.5419922-.3789978-.7189941-.2519836-.177002-.6239929-.2649536-1.1149902-.2649536-.5299988 0-1.0190125.1040039-1.4660034.3129883-.0629883.0249634-.1210022.0379639-.17099.0379639-.0940247 0-.177002-.0339966-.2460022-.098999-.0690002-.0669556-.1040039-.1499634-.1040039-.2519531 0-.144043.0629883-.2520142.1900024-.3210449.6049805-.3209839 1.2290039-.4819946 1.8719788-.4819946.7250061 0 1.2860107.1470337 1.6849976.4440308.3960266.2969971.5940247.7160034.5940247 1.2579956 0 .4349976-.1090088.7769775-.3250122 1.026001-.2179871.25-.4909973.43396-.8200073.5540161.3610229.0819702.6809998.2539673.9620056.5149536.2789917.2620239.4190063.651001.4190063 1.1680298 0 .5809937-.2279968 1.0299683-.6849976 1.3479614-.4559937.3190308-1.0440063.4780273-1.7640076.4780273-.6990053 0-1.3580019-.1259766-1.9759829-.3790283"/><path d="m4.2530518 49.6637383h18.9129944c.6719971 0 1.2189941-.5459595 1.2189941-1.2179565v-18.913025c0-.6719971-.5469971-1.2189941-1.2189941-1.2189941h-8.9640198c-.2769775 0-.5.223999-.5.5 0 .2769775.2230225.5.5.5h8.9640198c.1210022 0 .2189941.098999.2189941.2189941v18.9130249c0 .1199951-.0979919.2179565-.2189941.2179565h-18.9129944c-.1200256 0-.2180176-.0979614-.2180176-.2179565v-18.9130249c0-.1199951.0979919-.2189941.2180176-.2189941h3.6539917c.2770081 0 .5-.2230225.5-.5 0-.276001-.2229919-.5-.5-.5h-3.6539917c-.6720276 0-1.2180176.5469971-1.2180176 1.2189941v18.9130249c0 .6719971.54599 1.2179566 1.2180176 1.2179566"/><path d="m18.0569458 23.8443413 14.9490051 4.4700317h-3.1730042c-.6719971 0-1.2179871.5459595-1.2179871 1.2179565v18.9130249c0 .6719971.54599 1.2180176 1.2179871 1.2180176h18.9140015c.6719971 0 1.2180176-.5460205 1.2180176-1.2180176v-18.9130248c0-.6719971-.5460205-1.2179565-1.2180176-1.2179565h-11.0140075l5.3789978-17.9899902c.1930237-.644043-.1739807-1.3240356-.8179932-1.5170288l-18.1210022-5.4190074c-.6459961-.1950073-1.3240051.1749878-1.5159912.8190308l-1.7799988 5.9530029c-.07901.2649536.0709839.5429688.3359985.6219482.2609863.0780029.5429993-.0709839.6220093-.3349609l1.7799988-5.9539795c.0350037-.1150513.1549988-.1820068.2720032-.1470337l18.1199951 5.4190063c.1159973.0349731.1820068.1569824.1470032.2719727l-5.4179993 18.1199951c-.0350037.1170044-.1560059.1850586-.2720032.1470337l-18.1210022-5.4180298c-.0750122-.0229492-.1130066-.0759888-.1289978-.105957-.0160217-.0300293-.0400085-.0910034-.0169983-.1660156l1.8069763-6.0430298c.07901-.2649536-.0709839-.5429688-.3359985-.6219492-.2630005-.0790405-.5429993.0709848-.6219788.3349619l-1.8070068 6.0430298c-.0929871.3120117-.0599976.6419678.0950012.9279785.1539918.2860117.4110108.494996.722992.5889902m30.90802 5.6879883v18.9130249c0 .1199951-.0980225.2180176-.2180176.2180176h-18.9140014c-.1199951 0-.2179871-.0980225-.2179871-.2180176v-18.9130249c0-.1199951.0979919-.2179565.2179871-.2179565h18.9140015c.1199951-.0000001.2180175.0979613.2180175.2179565"/><g fill="#f83908"><path d="m7.5343628 45.6643486h12.3500061c.276001 0 .5-.223999.5-.5v-12.3500366c0-.2769775-.223999-.5-.5-.5h-12.3500061c-.276001 0-.5.2230225-.5.5v12.3500366c0 .276001.223999.5.5.5m.5-12.3500366h11.3500061v11.3499756h-11.3500061z"/><path d="m32.6153564 32.814312v12.3500366c0 .276001.2229919.5.5.5h12.3500061c.276001 0 .5-.223999.5-.5v-12.3500366c0-.2769775-.223999-.5-.5-.5h-12.3500061c-.277008 0-.5.2230224-.5.5m1 .5h11.3500061v11.3499756h-11.3500061z"/><path d="m22.3473206 20.9518242 11.8320007 3.5390015c.0470276.0139771.0950012.0209961.1430054.0209961.0820007 0 .1640015-.0200195.2369995-.0609741.1170044-.0630493.20401-.1690063.2420044-.2960205l3.5390015-11.8330088c.0379944-.1270142.0240173-.2639771-.0390015-.3800049-.0629883-.1170044-.1699829-.2039795-.2969971-.2420044l-11.8330078-3.5379639c-.2649841-.0800171-.5429993.0709839-.6219788.3359985l-3.5380249 11.8319712c-.0789795.2640381.0710144.5430298.3359986.6220093m4.0170288-11.6890268 10.875 3.2520142-3.2530212 10.8740244-10.8739929-3.2520142z"/></g></g></svg>