<?xml version="1.0" encoding="iso-8859-1"?>
<!-- Generator: Adobe Illustrator 19.0.0, SVG Export Plug-In . SVG Version: 6.00 Build 0)  -->
<svg version="1.1" id="Capa_1" xmlns="http://www.w3.org/2000/svg" xmlns:xlink="http://www.w3.org/1999/xlink" x="0px" y="0px"
	 viewBox="0 0 512 512" style="enable-background:new 0 0 512 512;" xml:space="preserve">
<path style="fill:#FF5619;" d="M256,141.868c-39.113,0-70.934-31.821-70.934-70.934S216.887,0,256,0s70.934,31.821,70.934,70.934
	S295.113,141.868,256,141.868z M256,30.227c-22.446,0-40.707,18.261-40.707,40.707s18.261,40.707,40.707,40.707
	s40.707-18.261,40.707-40.707S278.446,30.227,256,30.227z"/>
<path style="fill:#B53313;" d="M296.708,70.934c0,22.446-18.261,40.707-40.707,40.707v30.227c39.113,0,70.934-31.821,70.934-70.934
	S295.113,0,256,0v30.227C278.446,30.227,296.708,48.488,296.708,70.934z"/>
<path style="fill:#36579C;" d="M405.624,512H106.376c-27.519,0-53.442-12.092-71.127-33.174
	c-17.685-21.082-25.082-48.716-20.295-75.815l37.928-214.685c7.851-44.436,46.3-76.686,91.422-76.686h223.393
	c45.122,0,83.571,32.251,91.422,76.686l37.928,214.685c4.787,27.099-2.611,54.731-20.295,75.815
	C459.065,499.909,433.143,512,405.624,512z"/>
<path style="fill:#1A3459;" d="M459.119,188.327c-7.851-44.435-46.3-76.686-91.422-76.686H256V512h149.624
	c27.519,0,53.442-12.092,71.127-33.174c17.685-21.082,25.082-48.716,20.295-75.815L459.119,188.327z"/>
<path style="fill:#FFE375;" d="M243.827,251.315c-5.999-5.807-15.567-5.647-21.372,0.35L180.1,295.431v-33.257
	c0-8.347-6.767-15.114-15.114-15.114s-15.114,6.767-15.114,15.114v99.291c0,8.347,6.767,15.114,15.114,15.114
	s15.114-6.767,15.114-15.114v-33.257l42.355,43.767c2.964,3.064,6.911,4.604,10.863,4.604c3.784,0,7.574-1.413,10.509-4.253
	c5.998-5.805,6.154-15.372,0.351-21.371l-37.874-39.136l37.874-39.135C249.982,266.687,249.825,257.119,243.827,251.315z"/>
<path style="fill:#FFB725;" d="M347.021,300.978h-22.688c-8.347,0-15.114,6.767-15.114,15.114c0,8.347,6.767,15.114,15.114,15.114
	h7.325c-1.44,8.586-8.923,15.148-17.912,15.148c-10.014,0-18.161-8.147-18.161-18.161v-32.742c0-10.014,8.147-18.161,18.161-18.161
	c5.634,0,10.857,2.552,14.332,7.004c5.135,6.578,14.633,7.75,21.213,2.614c6.579-5.137,7.75-14.634,2.615-21.213
	c-9.242-11.84-23.151-18.631-38.159-18.631c-26.681,0-48.388,21.707-48.388,48.388v32.742c0,26.681,21.707,48.388,48.388,48.388
	c26.681,0,48.388-21.707,48.388-48.388v-12.1C362.134,307.745,355.367,300.978,347.021,300.978z"/>
<g>
</g>
<g>
</g>
<g>
</g>
<g>
</g>
<g>
</g>
<g>
</g>
<g>
</g>
<g>
</g>
<g>
</g>
<g>
</g>
<g>
</g>
<g>
</g>
<g>
</g>
<g>
</g>
<g>
</g>
</svg>
