<?xml version="1.0" encoding="UTF-8"?>
<!DOCTYPE svg PUBLIC "-//W3C//DTD SVG 1.1//EN" "http://www.w3.org/Graphics/SVG/1.1/DTD/svg11.dtd">
<svg xmlns="http://www.w3.org/2000/svg" xml:space="preserve" width="100%" height="100%" version="1.1" style="shape-rendering:geometricPrecision; text-rendering:geometricPrecision; image-rendering:optimizeQuality; fill-rule:evenodd; clip-rule:evenodd"
viewBox="0 0 4335 3875"
 xmlns:xlink="http://www.w3.org/1999/xlink">
 <defs>
  <style type="text/css">
   <![CDATA[
    .fil0 {fill:#808588}
   ]]>
  </style>
 </defs>
 <g id="Layer_x0020_1">
  <path class="fil0" d="M3260 3437c0,-261 372,-261 372,0 0,234 -372,233 -372,0zm-1414 178c-248,0 -273,-372 8,-372 226,0 232,372 -8,372zm1278 -1177l-355 0 0 -558 448 0 -65 501c-3,31 5,57 -28,57zm618 0l-338 0 57 -416c6,-49 15,-99 19,-142l406 0c-4,46 -20,92 -30,139l-66 289c-25,99 -2,61 -48,130zm-2387 -558l448 0 77 558c-393,0 -371,36 -408,-116 -22,-87 -110,-387 -117,-442zm711 0l449 0 0 558 -373 0 -76 -558zm1185 -263l-482 0 0 -559 558 0c-11,139 -64,422 -76,559zm-1295 -567l559 0 0 567 -483 0 -76 -567zm1998 567l-440 0 36 -277c10,-80 22,-204 40,-282l491 0c-12,26 -26,102 -34,136 -11,44 -23,97 -32,137 -12,58 -60,245 -61,286zm-2828 -567l567 0c19,79 44,318 59,424 6,41 18,102 18,143l-492 0c-3,-45 -24,-98 -35,-142l-76 -280c-12,-43 -23,-108 -41,-145zm-1126 -931c0,162 129,143 254,143 127,0 254,0 381,0 44,67 137,454 157,537l426 1573c38,137 -32,21 -195,141l-74 70c-155,198 -114,448 75,584 111,79 220,76 407,76 -6,26 -17,43 -24,69 -25,104 -11,227 38,323 125,246 481,337 708,109 220,-220 106,-422 99,-501l788 0c-142,267 81,695 496,623 219,-38 403,-271 345,-542 -9,-42 -26,-64 -29,-98 107,-29 109,-196 0,-237 -59,-22 -1105,-9 -1219,-9 -93,0 -1359,11 -1418,-4 -109,-29 -135,-182 -40,-251 57,-42 362,-24 442,-24 305,0 2093,10 2161,-6 82,-20 146,-67 190,-124 51,-68 57,-135 79,-226l174 -757c31,-133 114,-425 114,-555 0,-99 -101,-212 -213,-227 -147,-20 -1117,-10 -1311,-10 -593,0 -1159,-9 -1753,-9 -8,-37 -22,-83 -32,-120l-68 -253c-47,-158 -42,-234 -143,-332 -54,-52 -135,-82 -239,-82l-424 0c-89,0 -152,56 -152,119z"/>
 </g>
</svg>
