<?xml version="1.0" encoding="UTF-8"?>
<!DOCTYPE svg PUBLIC "-//W3C//DTD SVG 1.1//EN" "http://www.w3.org/Graphics/SVG/1.1/DTD/svg11.dtd">
<svg xmlns="http://www.w3.org/2000/svg" xml:space="preserve" width="100%" height="100%" version="1.1" style="shape-rendering:geometricPrecision; text-rendering:geometricPrecision; image-rendering:optimizeQuality; fill-rule:evenodd; clip-rule:evenodd"
viewBox="0 0 13547 8493"
 xmlns:xlink="http://www.w3.org/1999/xlink">
 <defs>
  <style type="text/css">
   <![CDATA[
    .fil0 {fill:black}
   ]]>
  </style>
 </defs>
 <g id="Layer_x0020_1">
  <g id="_1786675296176">
   <path class="fil0" d="M1164 7673l11457 0c61,0 132,-71 132,-132l0 -6377 450 0 0 6985 -12039 0 0 -476zm-820 -7329l12065 0 0 6985 -12065 0 0 -6985zm-344 -159l0 7356c0,200 526,132 820,132 0,294 -68,820 133,820l12461 0c86,0 133,-96 133,-185l0 -7355c0,-204 -448,-133 -794,-133 0,-294 68,-820 -132,-820l-12462 0c-58,0 -159,59 -159,185z"/>
   <path class="fil0" d="M2408 1164l7858 0c0,761 357,1329 1100,1519 423,109 355,-215 355,942 0,441 0,882 0,1323 -102,23 -219,28 -318,52 -122,29 -190,47 -300,97 -112,51 -143,63 -240,130 -60,43 -51,37 -102,84l-83 76c-269,267 -430,767 -439,1148l-7831 0c0,-336 -94,-849 -280,-1123 -185,-272 -527,-430 -937,-464l0 -1852c-1,-418 -75,-333 245,-390 328,-57 577,-235 739,-504 124,-205 233,-713 233,-1038zm-1482 1244c-36,54 -79,68 -79,132l0 2566c0,475 1073,-261 1191,1164 17,209 -10,609 185,609l8202 0c388,0 -233,-1474 1351,-1585 130,-9 289,1 289,-135l0 -2619c0,-64 -43,-78 -79,-132 -527,0 -931,-118 -1150,-438 -232,-341 -194,-634 -243,-948 -21,-137 -40,-202 -195,-202l-8149 0c-336,0 -95,613 -334,1121 -178,378 -454,467 -989,467z"/>
   <path class="fil0" d="M6482 5847c-842,0 -1518,-364 -1887,-1102 -383,-765 -224,-1721 372,-2318 256,-256 780,-575 1277,-575l291 0c608,0 1201,418 1493,836 420,600 471,1353 174,2021 -140,315 -380,576 -653,776 -278,203 -690,362 -1067,362zm-2434 -2143c0,453 11,738 220,1156 131,262 266,454 461,650 919,919 2412,909 3321,0 906,-905 917,-2409 13,-3307 -373,-371 -950,-695 -1528,-695 -467,0 -727,6 -1155,220 -508,254 -848,586 -1103,1094 -114,228 -229,552 -229,882z"/>
   <path class="fil0" d="M5398 2619c0,386 991,-125 1137,503 -220,0 -441,0 -661,0 -231,0 -476,-55 -476,185 0,81 102,142 163,154l974 5c-234,443 -466,370 -1058,370 -171,255 -16,310 377,656l330 331c72,69 114,86 186,157 123,121 217,285 403,285 105,0 133,-103 133,-185 0,-120 -515,-527 -655,-668 -80,-80 -158,-142 -218,-232 405,-9 838,-343 846,-714 156,0 503,51 503,-185 0,-206 -272,-159 -476,-159 -57,-119 -98,-228 -159,-344 131,0 269,5 399,2 325,-5 282,-346 51,-346l-1614 0c-124,0 -185,62 -185,185z"/>
  </g>
 </g>
</svg>
