<svg width="100%" height="100%" viewBox="0 0 128 128" fill="none" xmlns="http://www.w3.org/2000/svg">
<path d="M37.001 47.6876L37.001 55.4509C37.001 55.9478 37.3636 56.3506 37.811 56.3506L90.191 56.3506C90.6383 56.3506 91.001 55.9478 91.001 55.4509L91.001 47.6876C91.001 47.1907 90.6383 46.7879 90.191 46.7879L37.811 46.7879C37.3636 46.7879 37.001 47.1907 37.001 47.6876Z" fill="black"/>
<path d="M37.001 74.5279L37.001 82.2912C37.001 82.7881 37.3636 83.1909 37.811 83.1909L90.191 83.1909C90.6383 83.1909 91.001 82.7881 91.001 82.2912L91.001 74.5279C91.001 74.031 90.6383 73.6282 90.191 73.6282L37.811 73.6282C37.3636 73.6282 37.001 74.031 37.001 74.5279Z" fill="black"/>
<path d="M45.4772 38.4951H53.2458C53.5171 38.4951 53.6478 38.6827 53.6478 38.8095V91.1621C53.6478 91.2889 53.5171 91.4765 53.2458 91.4765H45.4772C45.2059 91.4765 45.0752 91.2889 45.0752 91.1621V38.8095C45.0752 38.6827 45.2059 38.4951 45.4772 38.4951Z" fill="white" stroke="black"/>
<path d="M74.7496 38.4951H82.5183C82.7896 38.4951 82.9202 38.6827 82.9202 38.8095V91.1621C82.9202 91.2889 82.7896 91.4765 82.5183 91.4765H74.7496C74.4783 91.4765 74.3477 91.2889 74.3477 91.1621V38.8095C74.3477 38.6827 74.4783 38.4951 74.7496 38.4951Z" fill="white" stroke="black"/>
<path d="M34 61.108L34 68.8713C34 69.3682 34.403 69.771 34.9 69.771L93.1 69.771C93.597 69.771 94 69.3682 94 68.8713L94 61.108C94 60.6111 93.597 60.2083 93.1 60.2083L34.9 60.2083C34.403 60.2083 34 60.6111 34 61.108Z" fill="black"/>
<path d="M59.7119 35.5H68.2845V94.4728H59.7119V35.5Z" fill="white" stroke="black"/>
<path d="M59.2178 46.7879L59.2178 56.3506L68.7845 56.3506L68.7845 46.7879L59.2178 46.7879Z" fill="black"/>
<path d="M59.2178 73.6282L59.2178 83.1909L68.7845 83.1909L68.7845 73.6282L59.2178 73.6282Z" fill="black"/>
</svg>
