<?xml version="1.0" encoding="UTF-8"?>
<!DOCTYPE svg PUBLIC "-//W3C//DTD SVG 1.1//EN" "http://www.w3.org/Graphics/SVG/1.1/DTD/svg11.dtd">
<svg xmlns="http://www.w3.org/2000/svg" xml:space="preserve" width="100%" height="100%" version="1.1" style="shape-rendering:geometricPrecision; text-rendering:geometricPrecision; image-rendering:optimizeQuality; fill-rule:evenodd; clip-rule:evenodd"
viewBox="0 0 11164 2037"
 xmlns:xlink="http://www.w3.org/1999/xlink">
 <defs>
  <style type="text/css">
   <![CDATA[
    .fil0 {fill:#6EB257}
    .fil1 {fill:#C5E063}
    .fil2 {fill:#1C520B;fill-rule:nonzero}
   ]]>
  </style>
 </defs>
 <g id="Layer_x0020_1">
  <g id="_2280731920896">
   <rect id="r8" class="fil0" transform="matrix(3.18091E-015 -0.133449 0.120104 3.53433E-015 101.866 725.224)" width="2434" height="15266" rx="229" ry="229"/>
   <rect id="r7" class="fil0" transform="matrix(3.18091E-015 -0.133449 0.120104 3.53433E-015 101.866 1636.91)" width="2434" height="15266" rx="229" ry="229"/>
   <rect id="r6" class="fil1" x="359" y="102" width="325" height="1834" rx="31" ry="28"/>
   <rect id="r5" class="fil1" x="1353" y="102" width="325" height="1834" rx="31" ry="28"/>
   <rect id="r4" class="fil0" transform="matrix(3.53434E-015 -0.133449 0.133449 3.53433E-015 0.00168229 1181.07)" width="2434" height="15266" rx="229" ry="229"/>
   <rect id="r3" class="fil1" x="856" width="325" height="2037"/>
   <rect id="r2" class="fil0" transform="matrix(5.63537E-016 -0.133449 0.0212779 3.53433E-015 856.229 725.224)" width="2434" height="15266"/>
   <rect id="r1" class="fil0" transform="matrix(5.63537E-016 -0.133449 0.0212779 3.53433E-015 856.229 1636.91)" width="2434" height="15266"/>
   <path class="fil2" d="M4291 498l-110 85c-61,-79 -134,-139 -219,-180 -85,-41 -178,-61 -280,-61 -111,0 -214,27 -309,80 -94,54 -168,125 -220,215 -52,90 -78,192 -78,304 0,171 58,313 175,426 116,114 263,171 441,171 195,0 358,-76 490,-229l110 84c-70,88 -157,157 -260,205 -104,48 -221,72 -349,72 -244,0 -436,-81 -577,-243 -118,-137 -178,-303 -178,-497 0,-204 72,-376 215,-515 143,-139 323,-209 538,-209 130,0 248,26 353,77 105,51 191,123 258,215zm747 81c159,0 291,57 396,172 95,105 142,229 142,372 0,143 -50,269 -150,376 -101,108 -230,162 -388,162 -158,0 -288,-54 -389,-162 -100,-107 -150,-233 -150,-376 0,-143 47,-266 142,-371 105,-115 237,-173 397,-173zm0 130c-111,0 -205,40 -285,122 -79,81 -118,179 -118,295 0,74 18,143 54,207 36,64 85,114 146,149 61,35 129,52 203,52 73,0 141,-17 202,-52 61,-35 110,-85 146,-149 36,-64 55,-133 55,-207 0,-116 -40,-214 -120,-295 -79,-82 -174,-122 -283,-122zm783 -105l132 0 0 185c53,-71 112,-123 177,-158 64,-35 135,-52 211,-52 77,0 146,19 206,58 59,40 104,92 132,159 29,66 43,169 43,309l0 530 -132 0 0 -491c0,-118 -5,-198 -15,-238 -17,-68 -46,-119 -90,-153 -44,-35 -101,-52 -171,-52 -80,0 -153,27 -216,80 -64,53 -106,118 -126,197 -13,51 -19,144 -19,280l0 377 -132 0 0 -1031zm1184 0l132 0 0 185c54,-71 113,-123 177,-158 65,-35 135,-52 211,-52 77,0 146,19 206,58 60,40 104,92 133,159 28,66 42,169 42,309l0 530 -132 0 0 -491c0,-118 -5,-198 -15,-238 -16,-68 -46,-119 -90,-153 -43,-35 -100,-52 -171,-52 -80,0 -152,27 -216,80 -64,53 -106,118 -126,197 -12,51 -19,144 -19,280l0 377 -132 0 0 -1031zm2055 690l112 58c-37,72 -79,130 -127,174 -49,44 -103,77 -163,100 -60,23 -128,35 -204,35 -169,0 -301,-55 -396,-165 -95,-111 -143,-235 -143,-373 0,-131 40,-247 121,-349 102,-130 239,-195 410,-195 177,0 318,67 423,200 75,93 113,211 114,351l-932 0c3,120 41,218 115,294 75,76 167,114 276,114 52,0 104,-9 154,-27 50,-18 92,-42 127,-72 35,-30 73,-78 113,-145zm2 -278c-18,-71 -44,-127 -78,-170 -34,-42 -79,-76 -135,-102 -56,-26 -115,-39 -177,-39 -102,0 -189,32 -262,98 -54,47 -94,118 -122,213l774 0zm1392 -198l-106 66c-91,-121 -215,-181 -373,-181 -127,0 -231,41 -315,121 -83,81 -125,179 -125,294 0,75 19,145 58,212 38,66 91,117 158,154 66,36 141,54 225,54 152,0 276,-60 372,-180l106 69c-50,74 -116,131 -199,172 -84,41 -179,62 -285,62 -164,0 -300,-52 -407,-155 -108,-104 -162,-230 -162,-378 0,-99 25,-192 76,-277 50,-86 119,-152 207,-200 89,-48 187,-72 296,-72 69,0 135,10 199,31 63,21 117,48 161,81 45,34 83,76 114,127zm369 -598l132 0 0 384 209 0 0 115 -209 0 0 916 -132 0 0 -916 -181 0 0 -115 181 0 0 -384z"/>
  </g>
 </g>
</svg>
