<?xml version="1.0" standalone="no"?>
<!DOCTYPE svg PUBLIC "-//W3C//DTD SVG 20010904//EN"
 "http://www.w3.org/TR/2001/REC-SVG-20010904/DTD/svg10.dtd">
<svg version="1.0" xmlns="http://www.w3.org/2000/svg"
 width="268.000000pt" height="188.000000pt" viewBox="0 0 268.000000 188.000000"
 preserveAspectRatio="xMidYMid meet">

<g transform="translate(0.000000,188.000000) scale(0.100000,-0.100000)"
fill="#000000" stroke="none">
<path d="M1881 1863 c-19 -17 -21 -29 -23 -183 l-3 -165 -384 -3 c-345 -2
-387 -4 -403 -19 -28 -25 -21 -84 12 -100 36 -18 834 -18 870 0 24 12 25 16
28 135 1 67 6 122 10 122 4 0 126 -119 272 -265 l265 -265 -273 -273 -272
-272 0 121 c0 104 -2 123 -18 137 -17 15 -62 17 -449 17 -410 0 -431 -1 -447
-19 -26 -28 -18 -82 14 -98 19 -10 119 -13 403 -13 l377 0 0 -164 c0 -182 4
-196 62 -196 27 0 73 43 392 366 252 255 362 374 364 392 3 21 -50 79 -365
394 -253 253 -375 368 -390 368 -11 0 -30 -8 -42 -17z"/>
<path d="M366 1154 c-250 -254 -362 -374 -364 -392 -3 -21 51 -80 360 -389
200 -200 373 -366 386 -369 13 -4 33 1 47 10 24 16 25 18 27 184 l3 167 384 3
c345 2 387 4 403 19 28 25 21 84 -12 100 -36 18 -834 18 -870 0 -24 -12 -25
-16 -28 -135 -1 -67 -6 -122 -10 -122 -4 0 -126 119 -272 265 l-265 265 273
273 272 272 0 -121 c0 -104 2 -123 18 -137 17 -15 62 -17 449 -17 410 0 431 1
447 19 26 28 18 82 -14 98 -19 10 -119 13 -402 13 l-378 0 0 164 c0 182 -4
196 -62 196 -28 0 -72 -42 -392 -366z"/>
</g>
</svg>
