<svg id="Layer_1"  viewBox="0 0 200.7237 186.3944"  xmlns="http://www.w3.org/2000/svg"><g><path d="m131.2515 70.873-5.754 3.5074-11.3458 24.4445c-.9215 1.9854-.059 4.342 1.9264 5.2635 1.9854.9216 4.342.0591 5.2635-1.9263l7.1841-15.4783 51.4777 23.8931 2.132-4.5935-51.4776-23.8931 4.8562-10.4626c-.6006-.0238-1.2015-.0869-1.7918-.2145z"/><ellipse cx="61.383" cy="22.5" rx="22.5" ry="22.5" transform="matrix(.383 -.924 .924 .383 17.106 70.6)"/><path d="m45.1392 67.2529c-1.1855 4.2559 1.3037 8.667 5.5605 9.8535l41.8897 11.6689c.7051.1963 1.4277.293 2.1465.293 1.4551 0 2.8975-.3975 4.1641-1.1689l31.9414-19.4697 3.3691.7354c4.3145.9365 8.5801-1.7949 9.5215-6.1113.9414-4.3174-1.7949-8.5801-6.1113-9.5215l-6.501-1.418c-2.0088-.4375-4.1113-.0859-5.8691.9854l-31.7129 19.3299-38.545-10.7373c-4.2607-1.1845-8.6679 1.3057-9.8535 5.5606z"/><path d="m199.8095 149.3866c1.0674-.876 1.2227-2.4517.3467-3.5186-.876-1.0684-2.4521-1.2217-3.5186-.3467-16.2148 13.3091-24.0254 36.6055-24.3496 37.5908-.4326 1.311.2803 2.7236 1.5908 3.1558.2598.0859.5244.1265.7832.1265 1.0498 0 2.0273-.666 2.374-1.7168.0753-.2275 7.6983-22.9175 22.7735-35.291z"/><path d="m4.0722 23.0941c-3.1377 1.0659-4.8174 4.4736-3.752 7.6108l29.9297 88.105c5.873 17.2915 21.8223 28.5391 39.7178 28.5391 1.4863 0 2.9883-.0776 4.4971-.2358l38.5117-4.0405c2.8487-.2988 5.0176-2.5458 5.3312-5.2776l40.8007 28.3464c2.1738 1.5107 4.6592 2.2358 7.1211 2.2354 3.9561 0 7.8486-1.874 10.2764-5.3687 3.9385-5.6699 2.5361-13.459-3.1338-17.3979l-50.3115-34.9541c-2.4561-1.707-5.4443-2.4775-8.4209-2.1675l-37.8204 3.9221c-3.4518-8.7167-5.4723-18.4627-6.9148-27.5669l-19.8218-5.5217c-5.4717-1.5254-8.6826-7.2158-7.1592-12.6865 1.2373-4.4385 5.3154-7.5381 9.918-7.5381.9316 0 1.8633.127 2.7676.3789l11.0092 3.0668c-2.2978-8.1941-8.6396-14.9265-15.879-14.2742-8.7632.7881-18.9335 9.2264-18.8889 24.7104.0504 5.7487.3102 10.8742.8398 15.7056l-21.0067-61.8395c-1.0654-3.1382-4.4755-4.8154-7.6113-3.7515z"/></g></svg>