<?xml version="1.0" encoding="UTF-8"?>
<!DOCTYPE svg PUBLIC "-//W3C//DTD SVG 1.1//EN" "http://www.w3.org/Graphics/SVG/1.1/DTD/svg11.dtd">
<svg xmlns="http://www.w3.org/2000/svg" xml:space="preserve" width="100%" height="100%" version="1.1" style="shape-rendering:geometricPrecision; text-rendering:geometricPrecision; image-rendering:optimizeQuality; fill-rule:evenodd; clip-rule:evenodd"
viewBox="0 0 13081 4800"
 xmlns:xlink="http://www.w3.org/1999/xlink">
 <defs>
  <style type="text/css">
   <![CDATA[
    .str0 {stroke:#49C1C5;stroke-width:7.62}
    .fil0 {fill:#49C1C5;fill-rule:nonzero}
    .fil1 {fill:#808284;fill-rule:nonzero}
   ]]>
  </style>
 </defs>
 <g id="Layer_x0020_1">
  <g id="_2235498157776">
   <path class="fil0" d="M1987 4385c-505,-110 56,-930 56,-930 666,-26 449,1041 -56,930zm108 -2589c0,0 -144,52 65,144 0,0 235,-40 288,13 0,0 111,130 -19,222l-2429 2292 0 333 1802 -1711c0,0 -657,1411 -134,1593 0,0 298,118 664,-39 0,0 600,-405 443,-875 0,0 -330,-448 -470,-614 -74,-87 -115,-264 32,-455 0,0 477,-655 620,-707 0,0 287,-431 -862,-196z"/>
   <path class="fil0" d="M3387 0l0 235 -1995 1770c0,0 -191,340 103,366 0,0 147,-66 238,-144 0,0 273,0 168,144 0,0 -118,169 -223,196 0,0 -523,32 -588,-82 0,0 -66,-49 0,-167 0,0 -403,79 -259,-196l2556 -2122z"/>
   <path class="fil0" d="M4791 3061l-204 0 -482 -571c-18,-22 -29,-36 -33,-44l-3 0 0 615 -146 0 0 -1248 146 0 0 586 3 0c8,-12 19,-27 33,-42l467 -544 182 0 -536 599 573 649z"/>
   <path class="fil0" d="M5477 2610l-215 29c-66,10 -116,26 -150,50 -33,23 -50,65 -50,125 0,43 15,79 46,106 31,28 73,41 124,41 71,0 130,-24 176,-74 46,-49 69,-112 69,-188l0 -89zm143 451l-143 0 0 -140 -3 0c-63,107 -154,161 -275,161 -88,0 -158,-24 -208,-71 -50,-47 -75,-109 -75,-187 0,-167 98,-263 294,-291l267 -37c0,-152 -61,-227 -184,-227 -107,0 -204,36 -290,109l0 -146c87,-55 188,-83 303,-83 209,0 314,111 314,332l0 580z"/>
   <path class="fil0" d="M6673 3061l-143 0 0 -509c0,-189 -69,-283 -207,-283 -71,0 -130,27 -177,80 -47,54 -70,122 -70,203l0 509 -143 0 0 -891 143 0 0 148 3 0c68,-113 165,-169 293,-169 97,0 172,31 223,94 52,63 78,154 78,273l0 545z"/>
   <path class="fil0" d="M7129 3061l-143 0 0 -891 143 0 0 891zm-70 -1118c-25,0 -47,-8 -65,-26 -18,-17 -27,-39 -27,-66 0,-27 9,-49 27,-66 18,-18 40,-27 65,-27 26,0 49,9 67,27 18,17 27,39 27,66 0,26 -9,47 -27,65 -18,18 -41,27 -67,27z"/>
   <polygon class="fil0 str0" points="7605,3061 7462,3061 7462,1741 7605,1741 "/>
   <path class="fil0" d="M8509 2530c-1,-82 -21,-147 -60,-192 -39,-46 -93,-69 -163,-69 -67,0 -125,24 -172,72 -47,48 -76,111 -87,189l482 0zm146 121l-629 0c2,99 29,176 80,230 51,54 121,81 210,81 101,0 193,-34 277,-100l0 134c-78,57 -182,86 -311,86 -125,0 -224,-41 -296,-122 -72,-81 -108,-195 -108,-341 0,-139 39,-252 118,-339 78,-88 176,-131 292,-131 117,0 207,37 271,113 64,75 96,180 96,314l0 75z"/>
   <path class="fil0" d="M9058 2572l0 125c0,74 24,136 72,187 48,52 108,78 182,78 87,0 154,-34 203,-100 49,-66 74,-158 74,-276 0,-99 -23,-177 -69,-233 -46,-56 -108,-84 -186,-84 -83,0 -150,29 -200,86 -51,58 -76,130 -76,217zm3 360l-3 0 0 129 -143 0 0 -1320 143 0 0 585 3 0c71,-118 173,-177 309,-177 114,0 203,40 268,119 65,80 97,187 97,321 0,149 -36,269 -109,358 -72,90 -171,135 -297,135 -118,0 -207,-50 -268,-150z"/>
   <path class="fil0 str0" d="M10578 2530c-1,-82 -21,-147 -60,-192 -39,-46 -94,-69 -163,-69 -68,0 -125,24 -172,72 -47,48 -76,111 -87,189l482 0zm146 121l-629 0c2,99 29,176 80,230 51,54 121,81 210,81 101,0 193,-34 277,-100l0 134c-78,57 -182,86 -311,86 -126,0 -225,-41 -296,-122 -72,-81 -108,-195 -108,-341 0,-139 39,-252 118,-339 78,-88 176,-131 292,-131 117,0 207,37 271,113 64,75 96,180 96,314l0 75z"/>
   <path class="fil0" d="M11397 3052c-33,19 -78,28 -133,28 -156,0 -234,-87 -234,-261l0 -528 -153 0 0 -121 153 0 0 -218 143 -46 0 264 224 0 0 121 -224 0 0 503c0,59 10,102 30,127 21,26 54,39 101,39 36,0 67,-10 93,-30l0 122z"/>
   <path class="fil0" d="M12046 3052c-34,19 -78,28 -133,28 -156,0 -234,-87 -234,-261l0 -528 -153 0 0 -121 153 0 0 -218 142 -46 0 264 225 0 0 121 -225 0 0 503c0,59 11,102 31,127 20,26 54,39 101,39 36,0 67,-10 93,-30l0 122z"/>
   <path class="fil0" d="M13002 3061l-143 0 0 -141 -4 0c-59,108 -150,162 -275,162 -212,0 -318,-127 -318,-380l0 -532 142 0 0 510c0,188 72,281 216,281 69,0 126,-25 171,-77 45,-51 68,-118 68,-201l0 -513 143 0 0 891z"/>
   <polygon class="fil1" points="4642,3536 4309,3536 4309,4380 4203,4380 4203,3536 3869,3536 3869,3457 4642,3457 "/>
   <path class="fil1" d="M4752 4020l486 0c-8,-148 -100,-240 -243,-240 -142,0 -233,92 -243,240zm590 63l-590 0c13,144 99,237 246,237 99,0 182,-43 239,-112l77 39c-72,94 -185,146 -316,146 -211,0 -354,-138 -354,-343 0,-205 140,-342 351,-342 208,0 348,133 348,334 0,11 0,31 -1,41z"/>
   <path class="fil1" d="M5504 4050c0,-205 152,-342 380,-342 95,0 172,25 239,72l-58 63c-53,-39 -110,-57 -181,-57 -165,0 -274,105 -274,265 0,158 110,264 275,264 77,0 150,-23 201,-71l59 61c-67,58 -161,88 -267,88 -223,0 -374,-138 -374,-343z"/>
   <path class="fil1" d="M7006 3965l0 415 -101 0 0 -398c0,-118 -93,-196 -233,-196 -141,0 -235,78 -235,196l0 398 -101 0 0 -973 101 0 0 423c48,-77 138,-122 266,-122 181,0 303,102 303,257z"/>
   <path class="fil1" d="M7929 3965l0 415 -100 0 0 -398c0,-118 -94,-196 -234,-196 -141,0 -234,78 -234,196l0 398 -101 0 0 -660 98 0 1 111c49,-77 138,-123 267,-123 182,0 303,102 303,257z"/>
   <path class="fil1" d="M8783 4051c0,-160 -108,-265 -270,-265 -163,0 -272,105 -272,265 0,158 109,264 272,264 162,0 270,-106 270,-264zm-648 0c0,-206 152,-343 378,-343 225,0 376,137 376,343 0,204 -151,342 -376,342 -226,0 -378,-138 -378,-342z"/>
   <polygon class="fil1" points="9107,3407 9208,3407 9208,4380 9107,4380 "/>
   <path class="fil1" d="M10075 4051c0,-160 -107,-265 -269,-265 -164,0 -273,105 -273,265 0,158 109,264 273,264 162,0 269,-106 269,-264zm-648 0c0,-206 152,-343 379,-343 225,0 376,137 376,343 0,204 -151,342 -376,342 -227,0 -379,-138 -379,-342z"/>
   <path class="fil1" d="M10999 4051c0,-160 -109,-265 -271,-265 -164,0 -273,105 -273,264 0,159 109,265 273,265 162,0 271,-106 271,-264zm101 -331l0 613c0,201 -163,334 -406,334 -130,0 -241,-29 -325,-86l22 -72c80,51 176,81 299,81 186,0 309,-105 309,-262l0 -90c-50,94 -148,155 -295,155 -207,0 -355,-138 -355,-345 0,-204 148,-340 355,-340 147,0 245,61 295,155l3 -143 98 0z"/>
   <path class="fil1" d="M11364 3720l100 0 0 660 -100 0 0 -660zm-19 -225c0,-35 30,-62 69,-62 38,0 67,27 67,62 0,33 -29,59 -67,59 -39,0 -69,-26 -69,-59z"/>
   <path class="fil1" d="M11790 4020l486 0c-8,-148 -101,-240 -243,-240 -143,0 -233,92 -243,240zm589 63l-589 0c12,144 99,237 246,237 99,0 181,-43 239,-112l76 39c-71,94 -184,146 -315,146 -211,0 -354,-138 -354,-343 0,-205 140,-342 351,-342 208,0 348,133 348,334 0,11 0,31 -2,41z"/>
   <path class="fil1" d="M12548 4323l42 -56c62,40 136,53 213,53 105,0 174,-43 174,-111 0,-62 -65,-97 -155,-119l-79 -22c-116,-28 -196,-70 -196,-168 0,-116 103,-192 260,-192 99,0 180,19 251,60l-43 61c-63,-35 -130,-49 -201,-49 -98,0 -164,41 -164,106 0,61 58,89 137,109l80 21c112,27 214,77 214,186 0,115 -108,191 -278,191 -105,0 -197,-24 -255,-70z"/>
  </g>
 </g>
</svg>
