<svg width="35" height="50" viewBox="0 0 35 50" fill="none" xmlns="http://www.w3.org/2000/svg">
<path fill-rule="evenodd" clip-rule="evenodd" d="M30.9639 28.6798C31.1399 28.3641 31.4141 27.8712 31.4141 27.8712C33.2842 24.5148 35 21.4371 35 17.5C35 7.83502 27.165 0 17.5 0C7.83496 0 0 7.83502 0 17.5C0 20.8867 3.5 27.8712 3.5 27.8712L4.03613 28.6798L15.7676 49C16.5381 50.3333 18.4619 50.3333 19.2324 49C19.2324 49 26.5015 36.6829 30.9639 28.6798ZM23 11C23 13.7614 20.7617 16 18 16C15.2383 16 13 13.7614 13 11C13 8.23859 15.2383 6 18 6C20.7617 6 23 8.23859 23 11ZM18 18C22.418 18 26 22.4771 26 28H10C10 22.4771 13.582 18 18 18Z" fill="#EF4444"/>
</svg>
