<?xml version="1.0" encoding="UTF-8"?>
<!DOCTYPE svg PUBLIC "-//W3C//DTD SVG 1.1//EN" "http://www.w3.org/Graphics/SVG/1.1/DTD/svg11.dtd">
<svg xmlns="http://www.w3.org/2000/svg" xml:space="preserve" width="100%" height="100%" version="1.1" style="shape-rendering:geometricPrecision; text-rendering:geometricPrecision; image-rendering:optimizeQuality; fill-rule:evenodd; clip-rule:evenodd"
viewBox="0 0 13547 9155"
 xmlns:xlink="http://www.w3.org/1999/xlink">
 <defs>
  <style type="text/css">
   <![CDATA[
    .fil0 {fill:#a38862}
   ]]>
  </style>
 </defs>
 <g id="Layer_x0020_1">
  <path class="fil0" d="M4498 5054c0,618 -107,1031 344,1031l3863 0c451,0 344,-413 344,-1031 227,0 603,42 802,71 942,138 1061,288 1774,659 102,53 95,14 122,116 -465,109 -698,795 -3360,794 -258,0 -423,28 -661,27l-1879 -1c-246,1 -402,-26 -661,-26 -2686,2 -2933,-688 -3387,-794 29,-106 15,-54 239,-184 762,-441 1562,-662 2460,-662zm-1773 2725l2355 0c1344,0 1191,-151 1191,846l1005 0c0,-393 -85,-846 238,-846l4260 0c339,0 265,541 265,846l978 0 0 -1375 -12488 0 0 1375 979 0c0,-305 -75,-846 265,-846l378 0 574 0zm2372 532l-2946 0 0 -3 -87 0c0,352 82,847 -238,847l-1588 0c-131,0 -238,-108 -238,-239l0 -1957c0,-204 155,-241 370,-239l1800 0 -862 -487c-225,-137 -241,-97 -594,-94 -107,0 -449,13 -449,-212 0,-358 192,-347 661,-344 246,2 231,16 392,-85l887 -489c265,-131 409,-167 592,-254l34 -19c-390,-91 -901,-405 -1235,-590 -347,-193 -377,-260 -670,-257 -301,3 -661,63 -661,-238 0,-359 268,-294 688,-290 234,2 195,-16 352,-98 437,-225 1065,-642 1526,-749l-89 -44c-453,-182 -434,-184 -864,-406 -64,-33 -84,-51 -150,-88 -450,-250 -453,-311 -828,-309 -459,2 -635,4 -635,-344 0,-270 508,-212 608,-212 160,1 240,20 354,-43 435,-239 853,-503 1316,-694 758,-312 1795,-374 2855,-374l2751 0c945,0 2031,44 2854,374 216,87 350,157 551,269l783 435c183,90 945,-95 945,245 0,358 -192,347 -662,344 -245,-2 -231,-16 -391,84 -306,192 -862,482 -1197,630l-316 133c390,91 901,404 1235,590 113,63 195,109 308,168 176,92 100,91 361,89 301,-3 662,-63 662,237 0,359 -268,295 -689,291 -233,-3 -194,16 -352,97 -436,226 -1064,643 -1525,750l89 43c546,220 505,212 1013,495 450,250 454,311 829,309 292,-2 635,-24 635,264 0,102 -9,207 -156,267 -239,99 -542,-91 -887,119 -210,128 -635,331 -816,454 -42,28 -18,9 -46,33l1827 -1c202,-1 343,48 343,240l0 1957c0,131 -108,239 -238,239l-1588 0c-320,0 -238,-495 -238,-847l-3678 0c0,394 86,847 -238,847l-1587 0c-324,0 -239,-453 -239,-847 -49,0 -99,1 -149,3l0 0c-180,6 -358,17 -495,0zm-43 -3284l3439 0 0 503 -3439 0 0 -503zm-3255 -1429c266,-62 677,-543 1904,-716 109,-15 278,-30 379,-44 165,-22 264,2 416,-33 0,583 -114,1031 317,1031l3916 0c425,0 318,-450 318,-1031 150,35 228,12 393,30 1755,192 1943,679 2305,763l0 53c-245,57 -683,519 -1764,696 -987,162 -2929,124 -4056,124 -631,0 -1707,-20 -2341,-120 -1087,-170 -1543,-643 -1787,-700l0 -53zm3255 -793c151,0 183,-27 344,-27l2751 0c161,0 193,27 344,27l0 476 -3439 0 0 -476zm-3255 -1456c119,-27 183,-85 283,-140 799,-447 1410,-627 2416,-627 0,468 -101,1006 265,1006l4021 0c365,0 265,-538 265,-1006 1778,0 2378,693 2698,767 -27,102 -238,187 -343,239 -470,230 -593,359 -1255,491 -995,199 -3393,144 -4540,144 -1096,0 -2140,-11 -3069,-424l-567 -306c-265,-153 -125,-51 -174,-144zm3255 -793c409,0 725,-27 1137,-27l1164 0c412,0 728,27 1138,27l0 502 -3439 0 0 -502z"/>
 </g>
</svg>
