<svg id="Layer_1" enable-background="new 0 0 64 64" viewBox="0 0 64 64" xmlns="http://www.w3.org/2000/svg"><g><g><g><path d="m14.57 47.28v1.62c0 .28-.22.5-.5.5-.1 0-.2-.03-.28-.08-.01-.01-.02-.02-.03-.03-.04-.03-.07-.07-.1-.11-.06-.08-.09-.17-.09-.28v-1.62c0-.97-.37-1.87-1.05-2.56-.67-.68-1.57-1.05-2.53-1.05-1.98 0-3.59 1.62-3.59 3.61v1.62c0 .05-.01.11-.03.16s-.04.1-.07.14c0 .01-.01.01-.01.02-.09.11-.23.18-.39.18-.27 0-.5-.22-.5-.5v-1.62c0-2.37 1.79-4.33 4.09-4.59.17-.01.33-.02.5-.02s.33.01.5.03c1.04.11 2 .57 2.74 1.32.87.87 1.34 2.03 1.34 3.26z"/></g><g><path d="m14.99 49.71c-.04-.39-.19-.75-.42-1.01-.05-.07-.12-.13-.18-.18-.21-.18-.53-.15-.7.07-.08.09-.12.2-.12.31s.03.2.09.28c.03.04.06.08.1.11.01.01.02.02.03.03.18.17.26.51.19.86-.04.29-.2.63-.5.74-.24.09-.42.31-.44.57-.12 1.06-.56 1.95-1.36 2.72-.21.21-.34.47-.35.75-.02.46.14.91.44 1.27-.42.4-.83.66-1.23.78-.17.05-.34.07-.5.07-.01 0-.01 0-.01 0-.55 0-1.13-.29-1.71-.86.3-.38.43-.86.38-1.41-.02-.2-.11-.39-.26-.55-.82-.83-1.28-1.67-1.35-2.51-.02-.29-.21-.54-.49-.65-.22-.08-.39-.32-.48-.65-.12-.45-.05-.96.17-1.23 0-.01.01-.01.01-.02.03-.04.06-.09.07-.14.02-.05.03-.1.03-.16 0-.14-.06-.29-.18-.39-.22-.17-.53-.14-.71.08-.04.05-.08.11-.11.17-.34.52-.43 1.26-.25 1.94.16.59.5 1.05.96 1.28.12 1.03.67 2.03 1.59 2.92.04.38-.06.64-.32.85-.02.02-.04.03-.06.05-.11.08-.19.21-.2.35-.02.14.02.28.12.39.07.08.14.16.22.23.82.87 1.69 1.31 2.57 1.31h.01c.87 0 1.74-.44 2.59-1.3.07-.07.14-.15.22-.24.1-.11.14-.25.13-.4-.02-.14-.1-.27-.22-.35-.02-.01-.04-.03-.05-.04-.25-.19-.39-.47-.33-.82.92-.9 1.46-1.93 1.63-3.15.5-.26.85-.78.96-1.43.02-.14.04-.28.04-.41v-.01c0-.08 0-.15-.02-.22z"/><path d="m10.54 57.01c-.17.05-.34.07-.5.07-.01 0-.01 0-.01 0-.55 0-1.13-.29-1.71-.86.3-.38.43-.86.38-1.41-.02-.2-.11-.39-.26-.55-.82-.83-1.28-1.67-1.35-2.51-.02-.29-.21-.54-.49-.65-.22-.08-.39-.32-.48-.65-.12-.45-.05-.96.17-1.23 0-.01.01-.01.01-.02.03-.04.06-.09.07-.14.02-.05.03-.1.03-.16v-1.62c0-1.99 1.61-3.61 3.59-3.61.17 0 .33.01.5.04-1.74.24-3.09 1.75-3.09 3.57v1.62c0 .06-.01.11-.03.16-.01.05-.04.1-.07.14 0 .01-.01.01-.01.02-.22.27-.29.78-.17 1.23.09.33.26.57.48.65.28.11.47.36.49.65.07.84.53 1.68 1.35 2.51.15.16.24.35.26.55.05.55-.08 1.03-.38 1.41.41.4.82.67 1.22.79z" fill="#e5b5a1"/><path d="m13.98 50.18c-.04.29-.2.63-.5.74-.24.09-.42.31-.44.57-.12 1.06-.56 1.95-1.36 2.72-.21.21-.34.47-.35.75-.02.46.14.91.44 1.27-.42.4-.83.66-1.23.78-.4-.12-.81-.39-1.22-.79.3-.38.43-.86.38-1.41-.02-.2-.11-.39-.26-.55-.82-.83-1.28-1.67-1.35-2.51-.02-.29-.21-.54-.49-.65-.22-.08-.39-.32-.48-.65-.12-.45-.05-.96.17-1.23 0-.01.01-.01.01-.02.03-.04.06-.09.07-.14.02-.05.03-.1.03-.16v-1.62c0-1.82 1.35-3.33 3.09-3.57.77.1 1.48.45 2.03 1.01.68.69 1.05 1.59 1.05 2.56v1.62c0 .11.03.2.09.28.03.04.06.08.1.11l.03.03c.18.17.26.51.19.86z" fill="#f7c8b0"/></g><g><path d="m7.87 57.16c-2.8 1.04-4.68 2.69-5.16 4.01h-1.59c.55-1.5 2.89-3.42 6.34-4.4.14.14.27.28.41.39z" fill="#76c8e5"/><path d="m18.99 61.17h-16.28c.48-1.32 2.36-2.97 5.16-4.01.7.61 1.43.92 2.16.92h.01c.26 0 .53-.04.79-.12.61-.19 1.21-.58 1.8-1.18.4.12.79.25 1.16.39 2.68.99 4.56 2.44 5.2 4z" fill="#80d6fb"/><path d="m20.16 61.58c.02.14-.01.3-.11.41-.09.12-.24.18-.38.18h-19.17c-.14 0-.27-.05-.36-.15-.1-.11-.15-.24-.14-.38.16-2.27 3.32-4.79 7.38-5.89.03-.01.07-.02.1-.03.27-.07.54.09.62.36.07.26-.09.54-.36.61-.1.03-.19.05-.28.08-3.45.98-5.79 2.9-6.34 4.4h17.87c-.64-1.56-2.52-3.01-5.2-4-.37-.14-.76-.27-1.16-.39-.09-.03-.19-.06-.29-.09-.26-.08-.42-.36-.34-.62.07-.27.35-.42.62-.35l.09.03c2.43.7 4.39 1.73 5.7 2.96.82.75 1.38 1.59 1.64 2.46.05.14.08.27.11.41z"/></g></g><g><g><path d="m36.43 47.28v1.62c0 .28-.23.5-.5.5-.12 0-.23-.04-.32-.11-.12-.1-.18-.25-.18-.39v-1.62c0-.97-.38-1.87-1.06-2.56-.67-.68-1.57-1.05-2.53-1.05-1.98 0-3.59 1.62-3.59 3.61v1.62c0 .05-.01.11-.03.16s-.04.1-.07.15c-.01 0-.01.01-.01.01-.1.11-.23.18-.39.18-.27 0-.5-.22-.5-.5v-1.62c0-2.37 1.79-4.33 4.09-4.59.16-.01.33-.02.5-.02s.33.01.5.03c1.04.11 2 .57 2.74 1.32.87.87 1.35 2.03 1.35 3.26z"/></g><g><path d="m36.43 48.71c-.06-.07-.12-.13-.19-.19-.21-.18-.52-.15-.7.07-.07.09-.11.2-.11.31 0 .14.06.29.18.39.2.16.29.52.23.89-.05.29-.21.63-.5.74-.25.09-.42.31-.45.57-.12 1.06-.56 1.95-1.36 2.72-.21.2-.34.47-.35.75-.02.46.14.91.44 1.27-.38.36-.73.6-1.09.74-.21.08-.43.11-.65.11-.55 0-1.13-.29-1.71-.86.3-.38.43-.86.38-1.41-.02-.2-.11-.4-.26-.55-.82-.83-1.28-1.67-1.35-2.51-.02-.29-.21-.54-.49-.65-.22-.08-.39-.32-.48-.65-.12-.45-.05-.96.17-1.23 0 0 0-.01.01-.01.03-.04.06-.09.07-.15.02-.05.03-.1.03-.16 0-.14-.06-.29-.18-.39-.22-.17-.53-.14-.71.08-.04.05-.08.11-.11.17-.34.52-.43 1.26-.25 1.94.16.59.51 1.05.96 1.28.13 1.03.67 2.03 1.59 2.92.04.39-.07.65-.33.85-.01 0-.01 0-.01.01-.01.02-.02.03-.04.04-.11.08-.19.21-.2.35-.02.14.02.28.12.39.07.08.14.16.22.23.82.87 1.69 1.31 2.57 1.31h.01c.87 0 1.74-.44 2.59-1.3.07-.07.14-.15.22-.24.07-.08.11-.16.11-.26.02-.03.02-.07.02-.1 0 0 0 0 0-.01v-.03c-.02-.14-.1-.27-.22-.35-.02 0-.02 0-.01-.01-.02-.01-.03-.02-.04-.03-.25-.19-.39-.47-.33-.82.09-.09.18-.18.26-.27.22-.24.41-.48.57-.74.02-.03.04-.05.05-.07.4-.63.64-1.31.75-2.07.09-.05.18-.1.26-.17.23-.18.41-.43.54-.72.07-.17.13-.35.16-.55.11-.63-.04-1.23-.39-1.63z"/><path d="m32.53 56.97c-.21.08-.43.11-.65.11-.55 0-1.13-.29-1.71-.86.3-.38.43-.86.38-1.41-.02-.2-.11-.4-.26-.55-.82-.83-1.28-1.67-1.35-2.51-.02-.29-.21-.54-.49-.65-.22-.08-.39-.32-.48-.65-.12-.45-.05-.96.17-1.23 0 0 0-.01.01-.01.03-.04.06-.09.07-.15.02-.05.03-.1.03-.16v-1.62c0-1.99 1.61-3.61 3.59-3.61.21 0 .42.02.62.06-1.68.3-2.96 1.78-2.96 3.55v1.62c0 .06-.01.11-.03.16-.01.06-.04.11-.07.15-.01 0-.01.01-.01.01-.22.27-.29.78-.17 1.23.09.33.26.57.48.65.28.11.47.36.49.65.07.84.53 1.68 1.35 2.51.15.15.24.35.26.55.05.55-.08 1.03-.38 1.41.37.37.75.62 1.11.75z" fill="#e5b5a1"/><path d="m35.84 50.18c-.05.29-.21.63-.5.74-.25.09-.42.31-.45.57-.12 1.06-.56 1.95-1.36 2.72-.21.2-.34.47-.35.75-.02.46.14.91.44 1.27-.38.36-.73.6-1.09.74-.36-.13-.74-.38-1.11-.75.3-.38.43-.86.38-1.41-.02-.2-.11-.4-.26-.55-.82-.83-1.28-1.67-1.35-2.51-.02-.29-.21-.54-.49-.65-.22-.08-.39-.32-.48-.65-.12-.45-.05-.96.17-1.23 0 0 0-.01.01-.01.03-.04.06-.09.07-.15.02-.05.03-.1.03-.16v-1.62c0-1.77 1.28-3.25 2.96-3.55.72.12 1.39.46 1.91.99.68.69 1.06 1.59 1.06 2.56v1.62c0 .14.06.29.18.39.2.16.29.52.23.89z" fill="#f7c8b0"/></g><g><path d="m29.79 57.22c-2.71 1.05-4.52 2.66-4.99 3.95h-1.83c.55-1.5 2.89-3.42 6.34-4.4.16.17.32.32.48.45z" fill="#76c8e5"/><path d="m40.84 61.17h-16.04c.47-1.29 2.28-2.9 4.99-3.95.68.57 1.38.86 2.09.86h.01c.31 0 .61-.05.92-.16.56-.2 1.12-.58 1.67-1.14.46.14.91.29 1.33.45 2.59.99 4.41 2.41 5.03 3.94z" fill="#80d6fb"/><path d="m42.01 61.58c.03.14-.01.3-.11.41-.09.12-.23.18-.38.18h-19.17c-.14 0-.27-.05-.36-.15-.1-.11-.14-.24-.14-.38.16-2.27 3.3-4.78 7.36-5.88 0-.01 0-.01.01-.01.04-.01.08-.02.12-.03.26-.07.54.09.61.36.07.26-.09.54-.36.61-.1.03-.19.05-.28.08-3.45.98-5.79 2.9-6.34 4.4h17.87c-.62-1.53-2.44-2.95-5.03-3.94-.42-.16-.87-.31-1.33-.45-.09-.03-.19-.06-.29-.09-.26-.08-.42-.36-.34-.62.07-.27.35-.42.62-.35.03.01.06.02.09.03 2.03.58 3.73 1.4 5 2.37.01 0 .02.01.02.01 1.19.91 1.99 1.94 2.32 3.04.05.14.08.27.11.41z"/></g></g><g><g><path d="m58.41 47.28v1.62c0 .28-.22.5-.5.5-.1 0-.2-.03-.28-.08l-.03-.03c-.13-.1-.19-.25-.19-.39v-1.62c0-.97-.37-1.87-1.05-2.56-.68-.68-1.58-1.05-2.53-1.05-1.98 0-3.59 1.62-3.59 3.61v1.62c0 .05-.01.11-.03.16 0 .01 0 .03-.01.04-.02.04-.03.07-.06.1 0 .01-.01.01-.01.02-.09.11-.23.18-.39.18-.28 0-.5-.22-.5-.5v-1.62c0-2.37 1.79-4.33 4.09-4.59.17-.01.33-.02.5-.02s.34.01.5.03c1.03.11 1.99.57 2.74 1.32.87.87 1.34 2.03 1.34 3.26z"/></g><g><path d="m58.41 48.7c-.05-.07-.12-.13-.18-.18-.21-.18-.53-.15-.7.07-.08.09-.12.19-.12.31 0 .14.06.29.19.39l.03.03c.17.17.26.51.19.86-.05.29-.2.63-.5.74-.25.09-.42.31-.45.57-.11 1.06-.55 1.95-1.35 2.72-.21.2-.34.47-.35.75-.02.46.13.91.43 1.27-.38.37-.75.61-1.12.74-.21.07-.41.11-.61.11-.55 0-1.13-.29-1.72-.86.31-.38.44-.86.39-1.41-.02-.2-.11-.4-.26-.55-.83-.83-1.28-1.67-1.35-2.51-.02-.29-.21-.54-.49-.65-.22-.08-.4-.32-.48-.65-.12-.45-.05-.96.17-1.23 0-.01.01-.01.01-.02.02-.03.05-.07.06-.1.01-.01.01-.03.01-.04.02-.05.03-.1.03-.16 0-.14-.06-.29-.19-.39-.21-.17-.53-.14-.7.08-.04.05-.08.11-.11.17-.34.52-.43 1.26-.25 1.94.16.59.5 1.05.96 1.28.12 1.03.66 2.03 1.59 2.92.04.38-.06.64-.32.85-.02.02-.04.03-.06.05-.11.08-.19.21-.21.35-.01.14.03.28.12.39.07.08.14.16.22.23.83.87 1.7 1.31 2.57 1.31h.01c.88 0 1.75-.44 2.6-1.3.07-.07.14-.15.22-.24.07-.08.11-.18.11-.3.01-.01.01-.02.01-.03v-.07c-.01-.14-.09-.27-.21-.35-.02-.01-.04-.02-.05-.04-.01-.01-.01-.01-.02-.02-.25-.19-.38-.46-.32-.8.08-.08.16-.16.23-.24.28-.29.51-.6.7-.92.37-.6.6-1.26.7-1.99.08-.04.16-.09.23-.15.25-.18.45-.45.58-.76 0 0 0-.01.01 0 .07-.16.12-.34.15-.53.1-.63-.05-1.24-.4-1.64z"/><path d="m54.48 56.97c-.21.07-.41.11-.61.11-.55 0-1.13-.29-1.72-.86.31-.38.44-.86.39-1.41-.02-.2-.11-.4-.26-.55-.83-.83-1.28-1.67-1.35-2.51-.02-.29-.21-.54-.49-.65-.22-.08-.4-.32-.48-.65-.12-.45-.05-.96.17-1.23 0-.01.01-.01.01-.02.02-.03.05-.07.06-.1.01-.01.01-.03.01-.04.02-.05.03-.1.03-.16v-1.62c0-1.99 1.61-3.61 3.59-3.61.2 0 .4.02.6.06-1.69.29-2.97 1.77-2.97 3.55v1.62c0 .06-.01.11-.03.16 0 .01 0 .03-.01.04-.01.03-.04.07-.06.1 0 .01-.01.01-.01.02-.22.27-.29.78-.17 1.23.08.33.26.57.48.65.28.11.47.36.49.65.07.84.52 1.68 1.35 2.51.15.15.24.35.26.55.05.55-.08 1.03-.39 1.41.38.36.75.61 1.11.75z" fill="#e5b5a1"/><path d="m57.82 50.18c-.05.29-.2.63-.5.74-.25.09-.42.31-.45.57-.11 1.06-.55 1.95-1.35 2.72-.21.2-.34.47-.35.75-.02.46.13.91.43 1.27-.38.37-.75.61-1.12.74-.36-.14-.73-.39-1.11-.75.31-.38.44-.86.39-1.41-.02-.2-.11-.4-.26-.55-.83-.83-1.28-1.67-1.35-2.51-.02-.29-.21-.54-.49-.65-.22-.08-.4-.32-.48-.65-.12-.45-.05-.96.17-1.23 0-.01.01-.01.01-.02.02-.03.05-.07.06-.1.01-.01.01-.03.01-.04.02-.05.03-.1.03-.16v-1.62c0-1.78 1.28-3.26 2.97-3.55.73.11 1.4.46 1.93.99.68.69 1.05 1.59 1.05 2.56v1.62c0 .14.06.29.19.39l.03.03c.17.17.26.51.19.86z" fill="#f7c8b0"/></g><g><path d="m51.79 57.24c-2.69 1.04-4.49 2.64-4.95 3.93h-1.88c.54-1.5 2.89-3.42 6.33-4.4.17.17.33.33.5.47z" fill="#76c8e5"/><path d="m62.83 61.17h-15.99c.46-1.29 2.26-2.89 4.95-3.93.68.56 1.37.84 2.07.84h.01c.32 0 .63-.06.95-.17.55-.2 1.11-.58 1.65-1.13.47.14.93.3 1.36.47 2.56.98 4.38 2.4 5 3.92z" fill="#80d6fb"/><path d="m63.99 61.58c.03.14-.01.3-.1.41-.09.12-.24.18-.39.18h-19.16c-.14 0-.27-.05-.37-.15-.09-.11-.14-.24-.13-.38.15-2.27 3.32-4.79 7.38-5.89.03-.01.07-.02.1-.03.27-.07.54.09.61.36.07.26-.08.54-.35.61-.1.03-.2.05-.29.08-3.44.98-5.79 2.9-6.33 4.4h17.87c-.62-1.52-2.44-2.94-5-3.92-.43-.17-.89-.33-1.36-.47-.09-.03-.19-.06-.29-.09-.27-.08-.42-.36-.34-.62.07-.27.34-.42.61-.35.03.01.07.02.1.03 1.96.56 3.61 1.35 4.86 2.27 1.27.93 2.12 2.01 2.47 3.15.05.14.08.27.11.41z"/></g></g><g><path d="m53.83 43.67c-.28 0-.5-.22-.5-.5v-7.26h-42.84v7.26c0 .28-.22.5-.5.5s-.5-.22-.5-.5v-7.76c0-.28.22-.5.5-.5h43.84c.28 0 .5.22.5.5v7.76c0 .28-.23.5-.5.5z"/></g><g><path d="m31.84 43.67c-.28 0-.5-.22-.5-.5v-16.83c0-.28.22-.5.5-.5s.5.22.5.5v16.83c0 .28-.22.5-.5.5z"/></g><g><path d="m43.75 17.37-.87-.69-.02-3.4.85-.6.9-.64c.16-.12.24-.31.21-.49-.01-.05-.02-.11-.05-.16l-1.63-3c-.09-.16-.26-.26-.44-.26h-2.28l-2.06-2.34.26-.97.17-.6c.07-.23-.05-.48-.27-.58l-.02-.01-3.67-1.76c-.05-.02-.11-.03-.16-.04-.18-.02-.36.06-.47.22l-.45.66-.59.88h-3.38l-.68-.89-.52-.68c-.09-.12-.22-.18-.36-.19-.08-.01-.16 0-.23.03l-3.3 1.39c-.1.04-.18.11-.24.19-.05.1-.08.21-.07.32l.09.96.1 1.17-2.31 2.52-.89-.28-.77-.25c-.22-.08-.47.02-.59.23l-.07.12-1.74 3.18c-.03.05-.05.11-.06.16-.03.18.05.37.21.49l.99.7.84.6-.06 3.37-.85.55-.91.59c-.17.11-.26.32-.22.52v.01c.01.03.02.05.03.08l1.43 3.56.05.11c.1.25.38.38.63.29l1.13-.4.86-.3 2.62 2.59-.34.82-.34.83c-.1.23 0 .51.23.63l.24.13 3.23 1.68c.05.03.1.04.16.04.18.03.37-.04.48-.2l.67-.98.57-.83 1.55.05 1 .04.98.03.53.86.48.8c.1.16.26.24.43.24.06 0 .11-.01.17-.03.01 0 .03 0 .04-.01l3.47-1.64c.02-.01.04-.02.06-.04.17-.11.26-.31.22-.51l-.16-.77-.21-1.01 2.7-2.75.87.34.7.28c.25.09.53-.02.64-.26l.1-.22 1.42-3.19c.04-.09.05-.18.04-.27-.01-.12-.08-.24-.18-.32zm-1.21 3.85-1.44-.56c-.18-.07-.4-.03-.54.12l-3.11 3.17c-.12.12-.17.29-.13.45l.34 1.65-2.71 1.28-.91-1.51c-.09-.14-.24-.23-.41-.24l-4.07-.14c-.01 0-.02 0-.02 0-.17 0-.32.08-.41.21l-1.15 1.68-2.67-1.39.64-1.53c.07-.19.03-.41-.11-.55l-3.1-3.05c-.13-.13-.33-.18-.51-.11l-1.83.64-1.15-2.85 1.64-1.06c.14-.09.23-.25.23-.41l.06-3.91c0-.17-.08-.32-.21-.42l-1.68-1.19 1.4-2.54 1.57.5c.19.06.39.01.52-.14l2.68-2.92c.09-.1.14-.24.13-.38l-.18-1.99 2.61-1.09 1.12 1.46c.1.12.24.19.4.19h3.88c.17 0 .32-.08.42-.22l.95-1.41 2.93 1.4-.39 1.43c-.05.16-.01.33.1.46l2.38 2.71c.1.11.24.17.38.17h2.21l1.27 2.35-1.6 1.13c-.13.09-.21.25-.21.41l.02 3.91c0 .15.07.29.19.39l1.64 1.29z"/><path d="m43.71 18.61-1.17 2.61-1.44-.56c-.18-.07-.4-.03-.54.12l-3.11 3.17c-.12.12-.17.29-.13.45l.34 1.65-2.71 1.28-.91-1.51c-.09-.14-.24-.23-.41-.24l-4.07-.14c-.01 0-.02 0-.02 0-.17 0-.32.08-.41.21l-1.15 1.68-2.67-1.39.64-1.53c.07-.19.03-.41-.11-.55l-3.1-3.05c-.13-.13-.33-.18-.51-.11l-1.83.64-1.15-2.85 1.64-1.06c.14-.09.23-.25.23-.41l.06-3.91c0-.17-.08-.32-.21-.42l-1.68-1.19 1.4-2.54 1.57.5c.19.06.39.01.52-.14l2.68-2.92c.09-.1.14-.24.13-.38l-.18-1.99 2.61-1.09 1.12 1.46c.1.12.24.19.4.19h3.88c.17 0 .32-.08.42-.22l.95-1.41 2.93 1.4-.39 1.43c-.05.16-.01.33.1.46l2.38 2.71c.1.11.24.17.38.17h2.21l1.27 2.35-1.6 1.13c-.13.09-.21.25-.21.41l.02 3.91c0 .15.07.29.19.39z" fill="#f4cd5f"/><path d="m31.48 5.84c-5.11 0-9.26 4.18-9.26 9.31 0 5.14 4.15 9.31 9.26 9.31 5.1 0 9.26-4.17 9.26-9.31 0-5.13-4.16-9.31-9.26-9.31zm0 17.21c-4.34 0-7.86-3.54-7.86-7.9s3.52-7.9 7.86-7.9c4.33 0 7.86 3.54 7.86 7.9s-3.53 7.9-7.86 7.9z" fill="#d8b356"/></g><g><path d="m31.48 7.25c-4.34 0-7.86 3.54-7.86 7.9s3.52 7.9 7.86 7.9c4.33 0 7.86-3.54 7.86-7.9s-3.53-7.9-7.86-7.9zm0 14.8c-3.78 0-6.86-3.09-6.86-6.9s3.08-6.9 6.86-6.9 6.86 3.09 6.86 6.9-3.08 6.9-6.86 6.9z"/><path d="m31.48 8.25c-3.78 0-6.86 3.09-6.86 6.9s3.08 6.9 6.86 6.9 6.86-3.09 6.86-6.9-3.08-6.9-6.86-6.9zm1.52 5.36h.89c.28 0 .5.23.5.5 0 .28-.22.5-.5.5h-.91c-.27 1.23-1.36 2.17-2.67 2.17h-.07l2.49 2.6c.19.2.19.52-.01.71-.1.09-.23.14-.35.14-.13 0-.26-.05-.36-.15l-3.3-3.46c-.14-.14-.18-.36-.1-.54s.26-.3.46-.3h1.24c.75 0 1.39-.49 1.62-1.17h-2.86c-.28 0-.5-.22-.5-.5 0-.27.22-.5.5-.5h2.9c-.19-.74-.86-1.29-1.66-1.29h-1.24c-.28 0-.5-.22-.5-.5s.22-.5.5-.5h4.82c.28 0 .5.22.5.5s-.22.5-.5.5h-1.48c.3.36.51.8.59 1.29z" fill="#de6050"/></g><g><g><path d="m34.39 14.11c0 .28-.22.5-.5.5h-4.82c-.28 0-.5-.22-.5-.5 0-.27.22-.5.5-.5h4.82c.28 0 .5.23.5.5z"/></g><g><path d="m34.39 11.82c0 .28-.22.5-.5.5h-1.48c.3.36.51.8.59 1.29.02.14.03.29.03.44 0 .19-.02.38-.05.56-.27 1.23-1.36 2.17-2.67 2.17h-.07l2.49 2.6c.19.2.19.52-.01.71-.1.09-.23.14-.35.14-.13 0-.26-.05-.36-.15l-3.3-3.46c-.14-.14-.18-.36-.1-.54s.26-.3.46-.3h1.24c.75 0 1.39-.49 1.62-1.17.07-.17.1-.36.1-.56 0-.15-.02-.3-.06-.44-.19-.74-.86-1.29-1.66-1.29h-1.24c-.28 0-.5-.22-.5-.5s.22-.5.5-.5h4.82c.28 0 .5.22.5.5z"/></g></g></g></svg>