<svg  viewBox="0 0 64 64"  xmlns="http://www.w3.org/2000/svg"><g id="_17-mandala" data-name="17-mandala"><ellipse cx="32.003" cy="32" fill="#4b5f1e" rx="14.974" ry="15"/><path d="m53.965 20a3 3 0 0 1 0 6 2.725 2.725 0 0 1 -.808-.12c-.24-.11-.469-.2-.7-.29a3 3 0 0 1 1.508-5.59z" fill="#ffd000"/><path d="m40.988 7a3 3 0 1 1 -2.588 4.51c-.089-.23-.179-.46-.289-.7a2.739 2.739 0 0 1 -.12-.81 2.994 2.994 0 0 1 2.997-3z" fill="#ffd000"/><path d="m26.014 10a2.739 2.739 0 0 1 -.12.81c-.11.24-.2.47-.289.7a3 3 0 1 1 .409-1.51z" fill="#ffd000"/><path d="m13.036 23a2.993 2.993 0 0 1 -1.487 2.59c-.23.09-.459.18-.7.29a2.725 2.725 0 0 1 -.808.12 3 3 0 1 1 2.994-3z" fill="#ffd000"/><path d="m11.549 38.41a2.991 2.991 0 1 1 -1.507-.41 2.725 2.725 0 0 1 .808.12c.24.11.469.2.699.29z" fill="#ffd000"/><path d="m25.894 53.19a2.739 2.739 0 0 1 .12.81 3 3 0 1 1 -.409-1.51c.089.23.179.46.289.7z" fill="#ffd000"/><path d="m40.988 51a3 3 0 1 1 -2.995 3 2.739 2.739 0 0 1 .12-.81c.11-.24.2-.47.289-.7a2.986 2.986 0 0 1 2.586-1.49z" fill="#ffd000"/><path d="m53.965 38a3 3 0 1 1 -1.507.41c.23-.09.459-.18.7-.29a2.725 2.725 0 0 1 .807-.12z" fill="#ffd000"/><path d="m39.66 44.89a14.986 14.986 0 0 0 5.211-5.22 5.357 5.357 0 0 1 1.418 1.05c2.316 2.32 3.494 9.09 3.494 9.09s-6.759-1.18-9.075-3.5a5.377 5.377 0 0 1 -1.048-1.42z" fill="#fc979e"/><path d="m32 47a14.893 14.893 0 0 0 3.794-.49 5.772 5.772 0 0 1 .206 1.49c0 3.31-4 9-4 9s-3.993-5.69-3.993-9a5.772 5.772 0 0 1 .2-1.49 14.891 14.891 0 0 0 3.793.49z" fill="#fc979e"/><path d="m19.136 39.67a14.978 14.978 0 0 0 5.211 5.22 5.377 5.377 0 0 1 -1.047 1.42c-2.316 2.32-9.075 3.5-9.075 3.5s1.178-6.77 3.494-9.09a5.357 5.357 0 0 1 1.417-1.05z" fill="#fc979e"/><path d="m17.029 32a14.939 14.939 0 0 0 .49 3.8 5.762 5.762 0 0 1 -1.488.2c-3.3 0-8.984-4-8.984-4s5.68-4 8.984-4a5.762 5.762 0 0 1 1.488.2 14.939 14.939 0 0 0 -.49 3.8z" fill="#fc979e"/><path d="m24.347 19.11a14.978 14.978 0 0 0 -5.211 5.22 5.357 5.357 0 0 1 -1.418-1.05c-2.316-2.32-3.494-9.09-3.494-9.09s6.759 1.18 9.075 3.5a5.377 5.377 0 0 1 1.048 1.42z" fill="#fc979e"/><path d="m32 17a14.891 14.891 0 0 0 -3.793.49 5.772 5.772 0 0 1 -.2-1.49c.003-3.31 3.993-9 3.993-9s4 5.69 4 9a5.772 5.772 0 0 1 -.2 1.49 14.893 14.893 0 0 0 -3.8-.49z" fill="#fc979e"/><path d="m46.978 32a14.939 14.939 0 0 0 -.49-3.8 5.762 5.762 0 0 1 1.488-.2c3.3 0 8.984 4 8.984 4s-5.68 4-8.984 4a5.762 5.762 0 0 1 -1.488-.2 14.939 14.939 0 0 0 .49-3.8z" fill="#fc979e"/><path d="m38.332 16.94a6.74 6.74 0 0 1 -.678 1.17 13.05 13.05 0 0 0 -1.857-.62 5.772 5.772 0 0 0 .203-1.49c0-3.31-4-9-4-9s-3.993 5.69-3.993 9a5.772 5.772 0 0 0 .2 1.49 13.05 13.05 0 0 0 -1.857.62 6.809 6.809 0 0 1 -.679-1.17 7.453 7.453 0 0 0 -.319-.79 6.961 6.961 0 0 1 -.336-2.15 7.2 7.2 0 0 1 .589-2.49 2.555 2.555 0 0 0 .289-.7 60.686 60.686 0 0 1 6.106-9.81 60.661 60.661 0 0 1 6.11 9.81 2.555 2.555 0 0 0 .289.7 7.2 7.2 0 0 1 .592 2.49 6.961 6.961 0 0 1 -.339 2.15 7.679 7.679 0 0 0 -.32.79z" fill="#ff6e7c"/><path d="m24.347 19.11a5.377 5.377 0 0 0 -1.047-1.42c-2.316-2.32-9.075-3.5-9.075-3.5s1.178 6.77 3.494 9.09a5.357 5.357 0 0 0 1.418 1.05 13.722 13.722 0 0 0 -.829 1.62 6.943 6.943 0 0 1 -1.337-.29 7.755 7.755 0 0 0 -.789-.32 6.8 6.8 0 0 1 -1.957-1.37c-2.696-2.7-4.183-13.97-4.183-13.97s11.25 1.49 13.945 4.19a6.807 6.807 0 0 1 1.368 1.96 7.9 7.9 0 0 0 .319.79 6.972 6.972 0 0 1 .29 1.34 13.688 13.688 0 0 0 -1.617.83z" fill="#ff6e7c"/><path d="m16.97 25.66a6.722 6.722 0 0 1 1.167.68 13.082 13.082 0 0 0 -.618 1.86 5.762 5.762 0 0 0 -1.488-.2c-3.3 0-8.984 4-8.984 4s5.68 4 8.984 4a5.762 5.762 0 0 0 1.488-.2 13.082 13.082 0 0 0 .618 1.86 6.722 6.722 0 0 1 -1.167.68 7.573 7.573 0 0 0 -.789.32 6.941 6.941 0 0 1 -2.146.34 7.185 7.185 0 0 1 -2.486-.59 2.521 2.521 0 0 0 -.7-.29 60.553 60.553 0 0 1 -9.792-6.12 60.553 60.553 0 0 1 9.793-6.12 2.521 2.521 0 0 0 .7-.29 7.185 7.185 0 0 1 2.485-.59 6.941 6.941 0 0 1 2.146.34 7.573 7.573 0 0 0 .789.32z" fill="#ff6e7c"/><path d="m14.224 49.81s6.759-1.18 9.075-3.5a5.377 5.377 0 0 0 1.048-1.42 13.688 13.688 0 0 0 1.617.83 6.972 6.972 0 0 1 -.29 1.34 7.9 7.9 0 0 0 -.319.79 6.807 6.807 0 0 1 -1.368 1.96c-2.695 2.7-13.945 4.19-13.945 4.19s1.487-11.27 4.182-13.97a6.8 6.8 0 0 1 1.957-1.37 7.755 7.755 0 0 0 .789-.32 6.943 6.943 0 0 1 1.337-.29 13.722 13.722 0 0 0 .829 1.62 5.357 5.357 0 0 0 -1.418 1.05c-2.318 2.32-3.494 9.09-3.494 9.09z" fill="#ff6e7c"/><path d="m37.654 45.89a6.74 6.74 0 0 1 .678 1.17 7.679 7.679 0 0 0 .32.79 6.961 6.961 0 0 1 .339 2.15 7.255 7.255 0 0 1 -.589 2.49 2.555 2.555 0 0 0 -.289.7 60.661 60.661 0 0 1 -6.113 9.81 60.686 60.686 0 0 1 -6.109-9.81 2.555 2.555 0 0 0 -.289-.7 7.2 7.2 0 0 1 -.586-2.49 6.961 6.961 0 0 1 .339-2.15 7.453 7.453 0 0 0 .319-.79 6.809 6.809 0 0 1 .679-1.17 13.05 13.05 0 0 0 1.857.62 5.772 5.772 0 0 0 -.2 1.49c0 3.31 3.993 9 3.993 9s3.997-5.69 3.997-9a5.772 5.772 0 0 0 -.2-1.49 13.05 13.05 0 0 0 1.854-.62z" fill="#ff6e7c"/><path d="m38.332 47.06a7.046 7.046 0 0 1 -.289-1.34 13.688 13.688 0 0 0 1.617-.83 5.377 5.377 0 0 0 1.048 1.42c2.316 2.32 9.075 3.5 9.075 3.5s-1.178-6.77-3.494-9.09a5.357 5.357 0 0 0 -1.418-1.05 13.722 13.722 0 0 0 .829-1.62 6.943 6.943 0 0 1 1.337.29 7.755 7.755 0 0 0 .789.32 6.8 6.8 0 0 1 1.957 1.37c2.7 2.7 4.182 13.97 4.182 13.97s-11.25-1.49-13.945-4.19a6.807 6.807 0 0 1 -1.368-1.96 7.679 7.679 0 0 0 -.32-.79z" fill="#ff6e7c"/><path d="m47.976 28a5.762 5.762 0 0 0 -1.488.2 12.96 12.96 0 0 0 -.619-1.86 6.768 6.768 0 0 1 1.168-.68 7.663 7.663 0 0 0 .789-.32 6.941 6.941 0 0 1 2.146-.34 7.185 7.185 0 0 1 2.486.59 2.521 2.521 0 0 0 .7.29 60.553 60.553 0 0 1 9.792 6.12 60.553 60.553 0 0 1 -9.793 6.12 2.521 2.521 0 0 0 -.7.29 7.185 7.185 0 0 1 -2.486.59 6.941 6.941 0 0 1 -2.146-.34 7.663 7.663 0 0 0 -.789-.32 6.768 6.768 0 0 1 -1.168-.68 12.96 12.96 0 0 0 .619-1.86 5.762 5.762 0 0 0 1.488.2c3.3 0 8.984-4 8.984-4s-5.679-4-8.983-4z" fill="#ff6e7c"/><path d="m44.871 24.33a14.986 14.986 0 0 0 -5.211-5.22 5.377 5.377 0 0 1 1.048-1.42c2.316-2.32 9.075-3.5 9.075-3.5s-1.178 6.77-3.494 9.09a5.357 5.357 0 0 1 -1.418 1.05z" fill="#fc979e"/><path d="m40.708 17.69a5.377 5.377 0 0 0 -1.048 1.42 12.823 12.823 0 0 0 -1.607-.83h-.01a7.046 7.046 0 0 1 .289-1.34 7.679 7.679 0 0 0 .32-.79 6.807 6.807 0 0 1 1.368-1.96c2.7-2.7 13.945-4.19 13.945-4.19s-1.487 11.27-4.182 13.97a6.8 6.8 0 0 1 -1.957 1.37 7.755 7.755 0 0 0 -.789.32 6.943 6.943 0 0 1 -1.337.29 13.722 13.722 0 0 0 -.829-1.62 5.357 5.357 0 0 0 1.418-1.05c2.316-2.32 3.494-9.09 3.494-9.09s-6.759 1.18-9.075 3.5z" fill="#ff6e7c"/><path d="m59.473 26.794c-.118-.629-.259-1.262-.421-1.883l1.932-.505c.173.666.325 1.345.451 2.019zm-.973-3.734c-.2-.6-.431-1.211-.678-1.8l1.843-.769c.265.637.509 1.288.727 1.937zm-1.478-3.56c-.285-.571-.595-1.142-.921-1.7l1.72-1.015c.35.594.681 1.2.987 1.817zm-1.955-3.324c-.364-.529-.749-1.052-1.145-1.553l1.564-1.243c.425.537.837 1.1 1.226 1.664z" fill="#8ca52d"/><path d="m47.469 8.672c-.534-.356-1.086-.7-1.64-1.013l.989-1.738c.594.339 1.185.7 1.757 1.086zm-3.346-1.911c-.575-.277-1.168-.539-1.764-.777l.74-1.858c.639.256 1.275.536 1.89.833zm-3.578-1.43c-.609-.2-1.232-.372-1.853-.525l.475-1.942c.666.163 1.335.353 1.988.563zm-3.739-.92c-.633-.109-1.275-.2-1.91-.263l.2-1.989c.68.07 1.368.164 2.046.281z" fill="#8ca52d"/><path d="m14.978 9.792-1.218-1.585c.543-.418 1.108-.824 1.679-1.2l1.105 1.665c-.532.351-1.059.728-1.566 1.12zm3.207-2.137-.985-1.737c.6-.341 1.211-.664 1.828-.961l.866 1.8c-.579.279-1.153.581-1.709.898zm3.47-1.674-.74-1.857c.638-.255 1.291-.49 1.944-.7l.609 1.9c-.608.2-1.218.42-1.813.657zm3.667-1.176-.475-1.942c.65-.16 1.32-.3 1.993-.419l.345 1.97q-.943.165-1.863.391z" fill="#8ca52d"/><path d="m4.316 28.137-1.978-.274c.093-.678.212-1.363.352-2.037l1.955.408c-.132.63-.245 1.266-.329 1.903zm.789-3.778-1.921-.544c.185-.657.4-1.32.631-1.97l1.879.677c-.218.606-.416 1.224-.589 1.837zm1.3-3.63-1.827-.806c.275-.625.576-1.252.9-1.863l1.767.93c-.298.571-.579 1.156-.836 1.739zm1.795-3.416-1.7-1.051c.361-.586.747-1.166 1.145-1.721l1.622 1.166c-.367.518-.729 1.059-1.067 1.606z" fill="#8ca52d"/><path d="m8.521 50.621c-.428-.542-.841-1.1-1.226-1.665l1.646-1.131c.36.526.746 1.048 1.145 1.554zm-2.335-3.409c-.349-.594-.681-1.206-.986-1.818l1.786-.894c.284.57.594 1.141.92 1.7zm-1.845-3.7c-.265-.639-.51-1.291-.727-1.939l1.893-.637c.2.6.43 1.211.677 1.806zm-1.318-3.912c-.173-.666-.325-1.346-.451-2.02l1.962-.369c.118.629.26 1.263.422 1.883z" fill="#8ca52d"/><path d="m27.873 61.717c-.679-.094-1.363-.213-2.034-.354l.408-1.957c.627.131 1.266.242 1.9.33zm-4.041-.847c-.658-.186-1.32-.4-1.966-.632l.675-1.883c.6.218 1.221.416 1.836.591zm-3.885-1.4c-.621-.275-1.247-.576-1.859-.9l.927-1.771c.572.3 1.156.583 1.737.839zm-3.653-1.923c-.581-.358-1.159-.744-1.718-1.147l1.163-1.625c.522.375 1.062.736 1.6 1.071z" fill="#8ca52d"/><path d="m37.138 61.561-.338-1.971c.625-.108 1.259-.24 1.884-.394l.476 1.942c-.669.162-1.35.307-2.022.423zm4.011-.987-.609-1.9c.608-.2 1.218-.415 1.813-.652l.74 1.857c-.638.251-1.293.486-1.944.695zm3.835-1.53-.867-1.8c.572-.276 1.146-.579 1.707-.9l.987 1.738c-.599.343-1.211.666-1.827.962zm3.584-2.044-1.1-1.668c.524-.348 1.051-.725 1.565-1.121l1.218 1.584c-.551.423-1.12.827-1.683 1.205z" fill="#8ca52d"/><path d="m56.361 49.458-1.623-1.164c.374-.523.734-1.065 1.068-1.607l1.7 1.05c-.359.582-.744 1.163-1.145 1.721zm2.167-3.518-1.767-.929c.3-.571.58-1.156.837-1.74l1.827.807c-.275.622-.577 1.252-.897 1.862zm1.664-3.785-1.879-.676c.218-.607.416-1.225.589-1.837l1.921.543c-.186.658-.398 1.321-.631 1.97zm1.124-3.98-1.954-.408c.131-.629.242-1.269.329-1.9l1.978.274c-.094.675-.213 1.359-.353 2.034z" fill="#8ca52d"/><path d="m32 7v10a14.893 14.893 0 0 1 3.794.49 5.772 5.772 0 0 0 .206-1.49c0-3.31-4-9-4-9z" fill="#ffc6c2"/><path d="m38.4 11.51a2.555 2.555 0 0 1 -.289-.7 60.661 60.661 0 0 0 -6.111-9.81v6s4 5.69 4 9a5.772 5.772 0 0 1 -.2 1.49 13.05 13.05 0 0 1 1.857.62 6.809 6.809 0 0 0 .679-1.17 7.453 7.453 0 0 1 .319-.79 6.961 6.961 0 0 0 .336-2.15 7.2 7.2 0 0 0 -.591-2.49z" fill="#fc979e"/><path d="m47.976 28a5.762 5.762 0 0 0 -1.488.2 14.939 14.939 0 0 1 .49 3.8h9.982s-5.68-4-8.984-4z" fill="#ffc6c2"/><path d="m52.458 25.59a7.185 7.185 0 0 0 -2.486-.59 6.941 6.941 0 0 0 -2.146.34 7.573 7.573 0 0 1 -.789.32 6.768 6.768 0 0 0 -1.168.68 12.96 12.96 0 0 1 .619 1.86 5.762 5.762 0 0 1 1.488-.2c3.3 0 8.984 4 8.984 4h5.99a60.553 60.553 0 0 0 -9.793-6.12 2.521 2.521 0 0 1 -.699-.29z" fill="#fc979e"/><path d="m36 48a5.772 5.772 0 0 0 -.2-1.49 14.893 14.893 0 0 1 -3.8.49v10s4-5.69 4-9z" fill="#ffc6c2"/><path d="m38.652 47.85a7.453 7.453 0 0 1 -.319-.79 6.809 6.809 0 0 0 -.679-1.17 13.05 13.05 0 0 1 -1.857.62 5.772 5.772 0 0 1 .203 1.49c0 3.31-4 9-4 9v6a60.661 60.661 0 0 0 6.11-9.81 2.555 2.555 0 0 1 .289-.7 7.255 7.255 0 0 0 .592-2.49 6.961 6.961 0 0 0 -.339-2.15z" fill="#fc979e"/><path d="m7.047 32h9.982a14.939 14.939 0 0 1 .49-3.8 5.762 5.762 0 0 0 -1.488-.2c-3.304 0-8.984 4-8.984 4z" fill="#ffc6c2"/><path d="m16.031 28a5.762 5.762 0 0 1 1.488.2 13.082 13.082 0 0 1 .618-1.86 6.722 6.722 0 0 0 -1.167-.68 7.573 7.573 0 0 1 -.789-.32 6.941 6.941 0 0 0 -2.146-.34 7.185 7.185 0 0 0 -2.486.59 2.521 2.521 0 0 1 -.7.29 60.553 60.553 0 0 0 -9.792 6.12h5.99s5.68-4 8.984-4z" fill="#fc979e"/><ellipse cx="32.003" cy="32" fill="#8ca52d" rx="13.976" ry="14"/><ellipse cx="32.003" cy="32" fill="#738c28" rx="11.979" ry="12"/><ellipse cx="32.003" cy="32" fill="#5a781e" rx="10.981" ry="11"/><ellipse cx="32.003" cy="32" fill="#ff6e7c" rx="2.995" ry="3"/><circle cx="32.003" cy="32" fill="#ffd000" r="1.997"/><path d="m39.62 24.37c.769.77.3 2.47-1.038 3.81s-3.045 1.81-3.813 1.05-.3-2.48 1.048-3.82 3.035-1.81 3.803-1.04z" fill="#d2eb5a"/><ellipse cx="39.49" cy="32" fill="#d2eb5a" rx="3.494" ry="2"/><path d="m38.582 35.82c1.338 1.34 1.807 3.04 1.038 3.81s-2.465.3-3.8-1.04-1.807-3.05-1.048-3.82 2.472-.3 3.81 1.05z" fill="#d2eb5a"/><ellipse cx="32.003" cy="39.5" fill="#d2eb5a" rx="1.997" ry="3.5"/><path d="m28.19 38.59c-1.338 1.34-3.035 1.81-3.8 1.04s-.3-2.47 1.038-3.81 3.045-1.81 3.813-1.05.297 2.48-1.051 3.82z" fill="#d2eb5a"/><ellipse cx="24.516" cy="32" fill="#d2eb5a" rx="3.494" ry="2"/><path d="m28.19 25.41c1.348 1.34 1.807 3.05 1.048 3.82s-2.475.3-3.813-1.05-1.807-3.04-1.038-3.81 2.465-.3 3.803 1.04z" fill="#d2eb5a"/><ellipse cx="32.003" cy="24.5" fill="#d2eb5a" rx="1.997" ry="3.5"/><path d="m38.582 28.18c1.338-1.34 1.807-3.04 1.038-3.81l-4.851 4.86c.768.76 2.475.3 3.813-1.05z" fill="#a0be28"/><path d="m39.49 34c1.927 0 3.494-.9 3.494-2h-6.984c0 1.1 1.564 2 3.49 2z" fill="#a0be28"/><path d="m35.817 38.59c1.338 1.34 3.035 1.81 3.8 1.04l-4.851-4.86c-.756.77-.297 2.48 1.051 3.82z" fill="#a0be28"/><path d="m30.007 39.5c0 1.93.9 3.5 2 3.5v-7c-1.102 0-2 1.57-2 3.5z" fill="#a0be28"/><path d="m25.425 35.82c-1.338 1.34-1.807 3.04-1.038 3.81l4.851-4.86c-.768-.76-2.475-.3-3.813 1.05z" fill="#a0be28"/><path d="m24.516 34c1.927 0 3.494-.9 3.494-2h-6.988c0 1.1 1.568 2 3.494 2z" fill="#a0be28"/><path d="m25.425 28.18c1.338 1.35 3.045 1.81 3.813 1.05l-4.851-4.86c-.769.77-.3 2.47 1.038 3.81z" fill="#a0be28"/><path d="m30.007 24.5c0 1.93.9 3.5 2 3.5v-7c-1.102 0-2 1.57-2 3.5z" fill="#a0be28"/><circle cx="53.965" cy="41" fill="#8ca52d" r="1.997"/><circle cx="53.965" cy="23" fill="#8ca52d" r="1.997"/><circle cx="40.988" cy="10" fill="#8ca52d" r="1.997"/><circle cx="23.019" cy="10" fill="#8ca52d" r="1.997"/><circle cx="10.042" cy="23" fill="#8ca52d" r="1.997"/><circle cx="10.042" cy="41" fill="#8ca52d" r="1.997"/><circle cx="23.019" cy="54" fill="#8ca52d" r="1.997"/><circle cx="40.988" cy="54" fill="#8ca52d" r="1.997"/><path d="m32 34a2 2 0 0 1 -1.925-1.5 1.966 1.966 0 0 0 -.071.5 2 2 0 1 0 3.996 0 1.966 1.966 0 0 0 -.071-.5 2 2 0 0 1 -1.929 1.5z" fill="#e02f56"/><g fill="#4b5f1e"><path d="m39.917 25.921a4.833 4.833 0 0 1 -1.335 2.259c-1.338 1.35-3.045 1.81-3.813 1.05a1.232 1.232 0 0 1 -.293-.55 1.646 1.646 0 0 0 .293 1.55c.768.76 2.475.3 3.813-1.05a3.755 3.755 0 0 0 1.335-3.259z"/><path d="m39.49 34c-1.622 0-2.978-.641-3.369-1.5a1.209 1.209 0 0 0 -.121.5c0 1.1 1.567 2 3.493 2 1.641 0 3.011-.655 3.385-1.527.03-.23.054-.461.07-.7a1.273 1.273 0 0 0 -.085-.278c-.394.864-1.75 1.505-3.373 1.505z"/><path d="m39.917 39.079a1.227 1.227 0 0 1 -.3.551c-.768.77-2.465.3-3.8-1.04a4.8 4.8 0 0 1 -1.341-2.27 3.762 3.762 0 0 0 1.341 3.27 4.569 4.569 0 0 0 2.521 1.385 11.014 11.014 0 0 0 1.642-1.43 2.625 2.625 0 0 0 -.063-.466z"/><path d="m33.971 40c-.14 1.692-.971 3-1.971 3a10.965 10.965 0 0 0 1.448-.107 5.114 5.114 0 0 0 .552-2.393c0-.171-.015-.335-.029-.5z"/><path d="m30.036 40c-.014.165-.029.329-.029.5a5.114 5.114 0 0 0 .549 2.393 10.962 10.962 0 0 0 1.444.107c-1 0-1.824-1.308-1.964-3z"/><path d="m29.531 36.32a4.8 4.8 0 0 1 -1.341 2.27c-1.338 1.34-3.035 1.81-3.8 1.04a1.227 1.227 0 0 1 -.3-.551 2.625 2.625 0 0 0 -.063.466 11.014 11.014 0 0 0 1.642 1.43 4.576 4.576 0 0 0 2.521-1.385 3.762 3.762 0 0 0 1.341-3.27z"/><path d="m24.516 35c1.927 0 3.494-.9 3.494-2a1.209 1.209 0 0 0 -.124-.5c-.391.859-1.747 1.5-3.37 1.5s-2.978-.641-3.369-1.5a1.22 1.22 0 0 0 -.085.278c.016.234.039.465.07.7.374.867 1.744 1.522 3.384 1.522z"/><path d="m25.425 28.18a4.833 4.833 0 0 1 -1.335-2.259 3.755 3.755 0 0 0 1.335 3.259c1.338 1.35 3.045 1.81 3.813 1.05a1.646 1.646 0 0 0 .293-1.55 1.232 1.232 0 0 1 -.293.55c-.768.76-2.475.3-3.813-1.05z"/><path d="m32 28c-1 0-1.827-1.308-1.967-3-.014.165-.029.329-.029.5 0 1.93.9 3.5 2 3.5s2-1.57 2-3.5c0-.171-.015-.335-.029-.5-.144 1.692-.975 3-1.975 3z"/></g><circle cx="32.003" cy="32" fill="#ff6e7c" r=".999"/><path d="m45.719 38.052a6.925 6.925 0 0 1 1.337.292 6.967 6.967 0 0 1 -1.168-.688c-.054.133-.111.265-.169.396z" fill="none"/><path d="m16.944 38.344a6.925 6.925 0 0 1 1.337-.292c-.058-.131-.115-.263-.169-.4a6.967 6.967 0 0 1 -1.168.692z" fill="none"/><path d="m16.944 25.656a6.967 6.967 0 0 1 1.168.688c.054-.133.111-.265.169-.4a6.925 6.925 0 0 1 -1.337-.288z" fill="none"/><path d="m25.656 16.944a6.868 6.868 0 0 1 .292 1.337c.131-.058.263-.115.4-.169a6.967 6.967 0 0 1 -.692-1.168z" fill="none"/><path d="m38.344 16.944a6.967 6.967 0 0 1 -.688 1.168c.133.054.265.111.4.169a6.868 6.868 0 0 1 .288-1.337z" fill="none"/><path d="m47.056 25.656a6.925 6.925 0 0 1 -1.337.292c.058.131.115.263.169.4a6.967 6.967 0 0 1 1.168-.692z" fill="none"/><path d="m25.656 47.056a6.967 6.967 0 0 1 .688-1.168c-.133-.054-.265-.111-.4-.169a6.925 6.925 0 0 1 -.288 1.337z" fill="none"/><path d="m38.344 47.056a6.925 6.925 0 0 1 -.292-1.337c-.131.058-.263.115-.4.169a6.967 6.967 0 0 1 .692 1.168z" fill="none"/></g></svg>