<svg id="Layer_1" viewBox="0 0 512 512" xmlns="http://www.w3.org/2000/svg"><g id="Layer_2_00000047048635092304694840000001626633896880841095_"><g id="Layer_2_copy"><g id="_20"><path d="m181.5 66.5c-.7-.4-17.1-9.4-23.3-26.1s.3-34.3.6-35l2-5.3 5 2.7c.7.4 17.1 9.4 23.3 26.1s-.3 34.3-.6 35l-2 5.3z" fill="#fff"/><path d="m184.4 30.5c5.6 15.2-.6 31.5-.6 31.5s-15.4-8.3-21-23.5.6-31.5.6-31.5 15.4 8.4 21 23.5z" fill="#992d4d"/><path d="m54.5 184.5c-6.4.1-12.8-1.2-18.7-3.6-16.4-7.2-24.5-24-24.8-24.8l-2.4-5.1 5.4-1.7c5.3-1.5 10.8-2.3 16.3-2.3 6.4-.1 12.8 1.2 18.7 3.7 16.4 7.1 24.5 24 24.8 24.7l2.4 5.1-5.4 1.7c-5.3 1.6-10.8 2.3-16.3 2.3z" fill="#fff"/><path d="m47 155.2c14.9 6.5 22.3 22.3 22.3 22.3s-16.7 5.3-31.5-1.2-22.3-22.3-22.3-22.3 16.6-5.3 31.5 1.2z" fill="#992d4d"/><path d="m24.5 356.5c-6.5 0-13.1-1.1-19.2-3.3l-5.3-2 2.7-5c.4-.7 9.4-17.1 26.1-23.3 5.1-1.8 10.4-2.7 15.8-2.7 6.6 0 13.1 1.1 19.2 3.3l5.3 2-2.7 5c-.4.7-9.4 17.1-26.1 23.3-5 1.9-10.4 2.8-15.8 2.7z" fill="#fff"/><path d="m30.5 327.6c15.2-5.7 31.5.6 31.5.6s-8.3 15.4-23.5 21-31.5-.6-31.5-.6 8.4-15.4 23.5-21z" fill="#992d4d"/><path d="m149.3 498c-.2-.8-5.8-18.6 1.4-35s24-24.5 24.7-24.8l5.1-2.4 1.7 5.4c.2.8 5.8 18.6-1.4 35s-24 24.5-24.8 24.8l-5.1 2.4z" fill="#fff"/><path d="m155.2 465c6.5-14.9 22.3-22.3 22.3-22.3s5.3 16.7-1.2 31.5-22.3 22.3-22.3 22.3-5.3-16.6 1.2-31.5z" fill="#992d4d"/><path d="m346.3 509.3c-.7-.4-17.1-9.4-23.3-26.1s.3-34.3.6-35l2-5.3 5 2.7c.7.4 17.1 9.4 23.3 26.1s-.3 34.3-.6 35l-2 5.3z" fill="#fff"/><path d="m327.6 481.5c-5.7-15.2.6-31.5.6-31.5s15.4 8.3 21 23.5-.6 31.5-.6 31.5-15.4-8.4-21-23.5z" fill="#992d4d"/><path d="m467.4 191.8c-6.6 0-13.1-1.1-19.2-3.3l-5.3-2 2.7-5c.4-.7 9.4-17.1 26.1-23.3 5.1-1.8 10.4-2.7 15.8-2.7 6.6 0 13.1 1.1 19.2 3.3l5.3 2-2.7 5c-.4.7-9.4 17.1-26.1 23.3-5.1 1.8-10.4 2.7-15.8 2.7z" fill="#fff"/><path d="m481.5 184.4c-15.2 5.7-31.5-.6-31.5-.6s8.3-15.4 23.5-21 31.5.6 31.5.6-8.4 15.4-23.5 21z" fill="#992d4d"/><path d="m481.7 365c-6.4.1-12.8-1.2-18.7-3.7-16.4-7.1-24.5-24-24.8-24.7l-2.4-5.1 5.4-1.7c5.3-1.5 10.8-2.3 16.3-2.3 6.4-.1 12.8 1.2 18.7 3.6 16.4 7.2 24.5 24 24.8 24.8l2.4 5.1-5.4 1.7c-5.3 1.5-10.8 2.3-16.3 2.3z" fill="#fff"/><path d="m465 356.8c-14.9-6.5-22.3-22.3-22.3-22.3s16.7-5.3 31.5 1.2 22.3 22.3 22.3 22.3-16.6 5.3-31.5-1.2z" fill="#992d4d"/><path d="m329.8 70.8c-.2-.8-5.8-18.6 1.4-35s24-24.5 24.8-24.8l5.1-2.4 1.7 5.4c.2.8 5.8 18.6-1.4 35s-24 24.5-24.7 24.8l-5.1 2.4z" fill="#fff"/><path d="m356.8 47c-6.5 14.9-22.3 22.3-22.3 22.3s-5.3-16.7 1.2-31.5 22.3-22.3 22.3-22.3 5.3 16.6-1.2 31.5z" fill="#992d4d"/><path d="m252.9 463c-4.8-4.1-9.2-8.7-13.1-13.8-4.6 4.3-9.7 8.2-15.2 11.4l-3.5 2-2.6-3c-3.5-4.1-6.5-8.5-9.2-13.2-4.5 2.9-9.3 5.3-14.2 7.3l-3.7 1.4-2.2-3.3c-3.4-5.4-6.1-11.1-8.2-17.1-5.8 2.7-11.8 4.7-18 6.1l-3.9.8-1.6-3.6c-2-5-3.6-10.1-4.7-15.4-5.2 1.4-10.5 2.3-15.8 2.6l-4 .2-1-3.9c-1.5-6.2-2.4-12.5-2.5-18.8-3.7.4-7.3.6-11 .6-2.7 0-5.3-.1-8-.4l-4-.5-.4-4c-.4-5.3-.3-10.7.3-16-5.4-.3-10.7-1.1-15.9-2.4l-3.8-1 .2-4c.5-6.3 1.6-12.6 3.4-18.7-6.2-1.2-12.3-3.1-18.2-5.6l-3.6-1.7.8-3.9c1.3-5.2 3-10.3 5.2-15.2-5-1.9-9.8-4.3-14.3-7.2l-3.3-2.2 1.4-3.7c2.4-5.9 5.4-11.5 9-16.7-5.6-3.1-10.8-6.8-15.5-11l-2.9-2.7 2-3.4c2.8-4.6 6.1-8.8 9.7-12.8-4.1-3.4-8-7.2-11.4-11.3l-2.5-3.1 2.5-3.1c4.1-4.8 8.7-9.2 13.8-13.1-4.3-4.6-8.2-9.7-11.4-15.2l-2-3.5 3-2.6c4.1-3.5 8.5-6.5 13.2-9.2-2.9-4.5-5.4-9.3-7.4-14.2l-1.4-3.7 3.3-2.2c5.4-3.4 11.1-6.1 17.1-8.2-2.7-5.8-4.7-11.8-6.1-18l-.8-3.9 3.6-1.6c5-2 10.1-3.6 15.3-4.7-1.4-5.2-2.3-10.5-2.6-15.8l-.2-4 3.8-1c6.2-1.5 12.5-2.4 18.8-2.5-.8-6.3-.9-12.7-.3-19l.5-4 4-.4c.1 0 2.4-.2 6.1-.2 3.3 0 6.6.2 10 .5.3-5.4 1.1-10.7 2.4-15.9l1-3.8 4 .2c6.3.5 12.6 1.6 18.7 3.4 1.2-6.2 3.1-12.3 5.6-18.2l1.7-3.6 3.9.8c5.2 1.3 10.3 3 15.2 5.2 1.9-5 4.3-9.8 7.2-14.3l2.2-3.3 3.7 1.4c5.9 2.4 11.5 5.4 16.7 9 3.1-5.6 6.8-10.8 10.9-15.5l2.7-2.9 3.4 2c4.6 2.8 8.8 6.1 12.8 9.7 3.4-4.1 7.2-8 11.3-11.4l3.1-2.5 3.1 2.5c4.9 4.1 9.2 8.7 13.1 13.8 4.6-4.3 9.7-8.2 15.2-11.4l3.5-2 2.6 3c3.5 4.1 6.5 8.5 9.2 13.2 4.5-2.9 9.3-5.4 14.2-7.4l3.7-1.4 2.2 3.3c3.4 5.4 6.1 11.1 8.2 17.1 5.8-2.7 11.8-4.7 18-6.1l3.9-.8 1.6 3.6c2 5 3.6 10.1 4.7 15.3 5.2-1.4 10.5-2.2 15.8-2.6l4-.2 1 3.8c1.5 6.2 2.4 12.5 2.5 18.8 3.7-.4 7.3-.6 11-.6 2.7 0 5.3.1 8 .4l4 .5.4 4c.4 5.3.3 10.7-.3 16 5.4.3 10.7 1.1 15.9 2.4l3.9 1-.2 4c-.5 6.3-1.6 12.6-3.4 18.7 6.2 1.2 12.3 3.1 18.2 5.7l3.6 1.7-.9 3.9c-1.3 5.2-3 10.3-5.2 15.2 5 1.9 9.8 4.3 14.4 7.2l3.3 2.2-1.4 3.7c-2.4 5.9-5.4 11.5-9 16.7 5.6 3.1 10.8 6.8 15.5 10.9l2.9 2.7-2 3.4c-2.8 4.6-6.1 8.8-9.7 12.8 4.1 3.4 8 7.2 11.4 11.3l2.5 3.1-2.5 3.1c-4.1 4.9-8.7 9.2-13.8 13.1 4.3 4.6 8.2 9.7 11.4 15.2l2 3.5-3 2.6c-4.1 3.5-8.5 6.5-13.2 9.2 2.9 4.5 5.3 9.3 7.3 14.2l1.4 3.7-3.3 2.2c-5.4 3.4-11.1 6.1-17.1 8.2 2.7 5.8 4.7 11.8 6.1 18l.8 3.9-3.6 1.6c-5 2-10.1 3.6-15.4 4.7 1.4 5.2 2.3 10.5 2.6 15.8l.2 4-3.9 1c-6.2 1.5-12.5 2.4-18.8 2.5.8 6.3.9 12.7.3 19l-.5 4-4 .4c-.1 0-2.4.2-6.1.2-3.3 0-6.6-.2-10-.5-.3 5.4-1.1 10.7-2.4 15.9l-1 3.9-4-.2c-6.3-.5-12.6-1.6-18.7-3.4-1.2 6.2-3.1 12.3-5.6 18.1l-1.7 3.6-3.9-.9c-5.2-1.3-10.3-3-15.2-5.2-1.9 5-4.3 9.8-7.2 14.4l-2.2 3.3-3.7-1.4c-5.9-2.4-11.5-5.4-16.7-9-3.1 5.6-6.8 10.8-11 15.5l-2.7 2.9-3.4-2c-4.6-2.8-8.8-6.1-12.8-9.7-3.4 4.1-7.2 8-11.3 11.4l-3.1 2.5z" fill="#fff"/><path d="m441.6 271.6c6.5-4.4 12.4-9.6 17.5-15.6-4.4-5.2-9.5-9.8-15-13.8 4.9-4.8 9.2-10.1 12.8-15.9-5.9-5.2-12.5-9.5-19.6-12.8 4.9-6.2 8.9-13 11.9-20.2-5.8-3.6-12-6.4-18.5-8.5 3.2-6 5.6-12.4 7.3-19-7.2-3.1-14.8-5.2-22.6-6.2 2.7-7.4 4.4-15.1 5-22.9-6.6-1.6-13.4-2.4-20.2-2.4 1.2-6.7 1.5-13.6 1-20.4-7.8-.7-15.7-.4-23.4 1.1.3-7.8-.5-15.7-2.3-23.3-6.8.5-13.5 1.9-20 4-1-6.7-2.7-13.4-5.3-19.7-7.7 1.7-15 4.5-21.9 8.3-2.1-7.6-5.3-14.8-9.4-21.5-6.3 2.6-12.3 6-17.8 10-3-6.1-6.7-11.9-11.1-17.1-6.7 4-12.9 9-18.3 14.7-4.5-6.5-9.7-12.4-15.7-17.5-5.2 4.4-9.8 9.5-13.8 15-4.8-4.9-10.1-9.2-15.9-12.8-5.2 5.9-9.5 12.5-12.8 19.6-6.2-4.9-13-8.9-20.2-11.9-3.6 5.8-6.4 12-8.5 18.5-6-3.2-12.4-5.6-19-7.3-3.1 7.2-5.2 14.8-6.2 22.6-7.4-2.7-15.1-4.4-22.9-5-1.6 6.6-2.4 13.4-2.4 20.2-6.7-1.2-13.6-1.5-20.4-1-.7 7.8-.4 15.7 1.1 23.4-7.8-.3-15.7.5-23.3 2.3.5 6.8 1.9 13.5 4 20-6.7 1-13.4 2.7-19.7 5.3 1.7 7.7 4.5 15 8.3 21.9-7.6 2.1-14.8 5.3-21.5 9.4 2.6 6.3 6 12.3 10 17.8-6.1 3-11.9 6.7-17.1 11.1 4 6.7 9 12.9 14.7 18.3-6.5 4.5-12.4 9.7-17.5 15.7 4.4 5.2 9.5 9.8 15 13.8-4.9 4.8-9.2 10.1-12.8 15.9 5.9 5.2 12.5 9.5 19.6 12.8-4.9 6.2-8.9 13-11.9 20.2 5.8 3.6 12 6.4 18.5 8.5-3.2 6-5.6 12.4-7.3 19 7.2 3.1 14.8 5.2 22.6 6.2-2.7 7.4-4.4 15.1-5 22.9 6.6 1.6 13.4 2.4 20.2 2.4-1.2 6.7-1.5 13.6-1 20.4 7.8.7 15.7.3 23.4-1.1-.3 7.8.5 15.7 2.3 23.3 6.8-.5 13.5-1.9 20-4 1 6.7 2.7 13.4 5.3 19.7 7.7-1.7 15-4.5 21.9-8.3 2.1 7.6 5.3 14.8 9.4 21.5 6.3-2.6 12.3-6 17.8-10 3 6.1 6.7 11.9 11.1 17.1 6.7-4 12.9-9 18.3-14.7 4.4 6.5 9.6 12.5 15.6 17.6 5.2-4.4 9.8-9.5 13.8-15 4.8 4.9 10.1 9.2 15.9 12.8 5.2-5.9 9.5-12.5 12.8-19.6 6.2 4.9 13 8.9 20.2 11.9 3.6-5.8 6.4-12 8.5-18.5 6 3.2 12.4 5.6 19 7.3 3.1-7.2 5.2-14.8 6.2-22.6 7.4 2.7 15.1 4.4 22.9 5 1.6-6.6 2.4-13.4 2.4-20.2 6.7 1.2 13.6 1.5 20.4 1 .7-7.8.3-15.7-1.1-23.4 7.8.3 15.7-.5 23.3-2.3-.5-6.8-1.9-13.5-4-20 6.7-1 13.4-2.7 19.7-5.3-1.7-7.7-4.5-15-8.3-21.9 7.6-2.1 14.8-5.3 21.5-9.4-2.6-6.3-6-12.3-10-17.8 6.1-3 11.9-6.7 17.1-11.1-4-7-8.9-13.1-14.6-18.5z" fill="#fda24a"/><path d="m256 165.1c-36.6 0-63.2-26.8-63.2-63.8 0-37.8 57.3-92.8 59.7-95.2l3.4-3.3 3.4 3.3c2.4 2.3 59.7 57.3 59.7 95.2.2 36.9-26.4 63.8-63 63.8z" fill="#fff"/><path d="m314.2 101.3c0 36.1-26.1 58.8-58.2 58.8s-58.2-22.7-58.2-58.8 58.2-91.6 58.2-91.6 58.2 55.5 58.2 91.6z" fill="#992d4d"/><path d="m256 148.7c-12.3 0-23.6-4.1-32-11.5-9.7-8.6-14.8-21-14.8-36 0-23.8 36-63.8 43.2-71.6l3.6-3.9 3.6 3.9c7.2 7.8 43.2 47.8 43.2 71.6 0 15-5.1 27.4-14.8 36-8.4 7.4-19.7 11.5-32 11.5z" fill="#fff"/><path d="m256 143.8c-20.8 0-41.9-13.1-41.9-42.5 0-16.8 21.8-46.6 41.9-68.2 20 21.6 41.9 51.5 41.9 68.2 0 29.3-21.1 42.5-41.9 42.5z" fill="#ef7aae"/><path d="m256 132.4c-14.7 0-30.4-8.2-30.4-31.1 0-8.4 10.7-27.1 26.6-46.5l3.8-4.7 3.8 4.7c15.9 19.4 26.6 38.1 26.6 46.5.1 22.9-15.7 31.1-30.4 31.1z" fill="#fff"/><path d="m256 127.4c-6 0-25.5-1.9-25.5-26.1 0-5.7 8-22.1 25.5-43.4 17.5 21.3 25.5 37.7 25.5 43.4 0 24.2-19.5 26.1-25.5 26.1z" fill="#ffb4e8"/><path d="m256 116c-3.1 0-6.2-.7-9-2.2-3.3-2-4.9-5.8-5.1-11.5v-.8l.2-.8c.9-3.1 4-9.5 9.8-18.2l4.1-6.2 4.1 6.2c5.8 8.7 8.8 15.1 9.8 18.2l.2.8v.8c-.2 5.7-1.8 9.4-5.1 11.5-2.8 1.5-5.9 2.2-9 2.2z" fill="#fff"/><path d="m256 111.1c-2.2 0-4.4-.5-6.4-1.5-.7-.4-2.6-1.6-2.8-7.4.6-2 3.1-7.8 9.1-16.9 6 9.1 8.5 14.9 9.1 16.9-.2 5.8-2.1 7-2.8 7.4-1.8 1-4 1.5-6.2 1.5z" fill="#fce0ef"/><path d="m147 211c-16.5 0-32.1-6.8-45.1-19.8-26.7-26.7-25.1-106.1-25-109.5l.1-4.7 4.7-.1h4c18.9 0 82.2 1.8 105.5 25.1 26.1 26.2 26.3 63.9.4 89.8-12.4 12.4-28.2 19.2-44.6 19.2z" fill="#fff"/><path d="m187.8 105.4c25.5 25.5 23.2 60 .4 82.8s-57.2 25.1-82.8-.4-23.6-105.9-23.6-105.9 80.4-2 106 23.5z" fill="#992d4d"/><path d="m146.8 194.8c-12 0-23.5-5.2-33.3-15.1-16.8-16.9-19.7-70.6-20.1-81.2l-.2-5.3 5.3.2c10.6.4 64.3 3.3 81.2 20.1 10.6 10.6 15.8 23 15 35.9-.7 11.2-5.8 22.1-14.5 30.8-9.5 9.4-21.3 14.6-33.4 14.6z" fill="#fff"/><path d="m176.6 176.6c-14.7 14.7-38.9 20.3-59.6-.4-11.9-11.9-17.5-48.4-18.7-77.8 29.5 1.1 66 6.8 77.8 18.7 20.8 20.7 15.3 44.8.5 59.5z" fill="#ef7aae"/><path d="m146.9 178.4c-7.7 0-15-3.4-21.8-10.2-6-6-11.6-26.7-14.1-51.7l-.6-6 6 .6c25 2.5 45.8 8.1 51.7 14.1 16.2 16.2 10.9 33.1.4 43.5-2.9 2.8-10.9 9.7-21.6 9.7z" fill="#fff"/><path d="m165.1 165.1c-4.2 4.2-19.4 16.7-36.5-.5-4.1-4.1-9.9-21.3-12.7-48.7 27.4 2.7 44.6 8.6 48.7 12.6 17.2 17.2 4.7 32.4.5 36.6z" fill="#ffb4e8"/><path d="m147 162c-3.1 0-6.2-1.6-9.6-4.8l-.6-.6-.4-.7c-1.5-2.8-3.9-9.5-6-19.8l-1.5-7.3 7.3 1.5c10.2 2.1 16.9 4.5 19.8 6l.7.4.6.6c3.9 4.1 5.4 8 4.5 11.7s-3.9 7-4.7 7.9c-2.2 2.2-4.9 3.9-7.9 4.8-.8.2-1.5.3-2.2.3z" fill="#fff"/><path d="m153.5 153.5c-1.5 1.6-3.4 2.8-5.6 3.4-.8.2-3 .7-7.2-3.3-1-1.8-3.3-7.7-5.5-18.4 10.7 2.2 16.6 4.5 18.4 5.5 4 4.2 3.4 6.4 3.3 7.2-.6 2.2-1.8 4.1-3.4 5.6z" fill="#fce0ef"/><path d="m101.3 319.2c-37.8 0-92.8-57.3-95.2-59.7l-3.2-3.5 3.3-3.4c2.3-2.4 57.3-59.7 95.2-59.7 37 0 63.8 26.6 63.8 63.2s-27 63.1-63.9 63.1z" fill="#fff"/><path d="m101.3 197.8c36.1 0 58.8 26.1 58.8 58.2s-22.7 58.2-58.8 58.2-91.6-58.2-91.6-58.2 55.5-58.2 91.6-58.2z" fill="#992d4d"/><path d="m101.3 302.8c-23.8 0-63.8-36-71.6-43.2l-3.9-3.6 3.9-3.6c7.8-7.2 47.8-43.2 71.6-43.2 15 0 27.4 5.1 36 14.8 7.4 8.4 11.5 19.7 11.5 32s-4.1 23.7-11.5 32c-8.6 9.7-21.1 14.8-36 14.8z" fill="#fff"/><path d="m143.8 256c0 20.8-13.1 41.9-42.5 41.9-16.8 0-46.6-21.8-68.2-41.9 21.6-20 51.5-41.9 68.2-41.9 29.3 0 42.5 21.1 42.5 41.9z" fill="#ef7aae"/><path d="m101.3 286.5c-8.4 0-27.1-10.7-46.5-26.6l-4.7-3.8 4.7-3.8c19.4-15.9 38.1-26.6 46.5-26.6 22.9 0 31.1 15.7 31.1 30.4s-8.2 30.4-31.1 30.4z" fill="#fff"/><path d="m127.4 256c0 6-1.9 25.5-26.1 25.5-5.7 0-22.1-8-43.4-25.5 21.3-17.5 37.7-25.5 43.4-25.5 24.2 0 26.1 19.5 26.1 25.5z" fill="#ffb4e8"/><path d="m100.7 269.9c-3.1-.9-9.5-4-18.2-9.8l-6.2-4.1 6.2-4.1c8.7-5.8 15.1-8.8 18.2-9.8l.8-.2h.8c5.7.2 9.4 1.8 11.5 5.1 3 5.6 3 12.3 0 17.9-2 3.3-5.8 4.9-11.5 5.1h-.8z" fill="#fff"/><path d="m111.1 256c0 2.2-.5 4.4-1.5 6.4-.4.7-1.6 2.6-7.4 2.8-2-.6-7.8-3.1-16.9-9.1 9.1-6 14.9-8.5 16.9-9.1 5.8.2 7 2.1 7.4 2.8 1 1.8 1.5 4 1.5 6.2z" fill="#fce0ef"/><path d="m85.8 435.1c-2.6 0-4 0-4 0l-4.8-.1-.1-4.7c-.1-3.4-1.7-82.8 25-109.5 13-13 28.6-19.8 45.1-19.8 16.4 0 32.2 6.9 44.7 19.3 12.2 12.2 19.1 27.7 19.3 43.7.3 16.9-6.6 32.8-19.8 46-23.2 23.3-86.6 25.1-105.4 25.1z" fill="#fff"/><path d="m105.4 324.2c25.5-25.5 60-23.2 82.8-.5s25.1 57.2-.4 82.8-105.9 23.6-105.9 23.6-2-80.3 23.5-105.9z" fill="#992d4d"/><path d="m93.4 413.5c.4-10.6 3.3-64.3 20.1-81.1 9.8-9.9 21.4-15.1 33.3-15.1s23.9 5.2 33.3 14.6c8.7 8.7 13.8 19.6 14.5 30.8.8 12.9-4.4 25.3-15 35.9-16.8 16.9-70.6 19.7-81.2 20.1l-5.3.2z" fill="#fff"/><path d="m176.6 335.4c14.7 14.7 20.3 38.9-.4 59.6-11.9 11.9-48.4 17.5-77.8 18.7 1.1-29.5 6.8-66 18.7-77.8 20.7-20.8 44.8-15.3 59.5-.5z" fill="#ef7aae"/><path d="m111 395.6c2.5-25 8.1-45.8 14.1-51.7 6.8-6.8 14.1-10.2 21.9-10.2 10.7 0 18.7 6.9 21.7 9.8 4.4 4.3 7.6 9.8 9.1 15.8 1.6 6.7 1.2 17-9.6 27.7-6 6-26.7 11.6-51.7 14.1l-6 .6z" fill="#fff"/><path d="m165.1 346.9c4.2 4.2 16.7 19.4-.4 36.5-4.1 4.1-21.3 9.9-48.7 12.6 2.7-27.4 8.6-44.6 12.6-48.7 17.1-17.1 32.3-4.6 36.5-.4z" fill="#ffb4e8"/><path d="m130.4 375.8c2.1-10.2 4.5-16.9 6-19.8l.4-.7.6-.5c3.4-3.2 6.6-4.8 9.6-4.8.7 0 1.4.1 2.1.2 3.9.9 7 3.9 7.9 4.8s3.9 4.1 4.8 7.9-.6 7.6-4.5 11.7l-.6.6-.7.4c-2.8 1.5-9.5 3.9-19.8 6l-7.3 1.5z" fill="#fff"/><path d="m153.5 358.5c1.6 1.5 2.8 3.4 3.4 5.5.2.8.7 3-3.3 7.2-1.8 1-7.7 3.3-18.4 5.5 2.2-10.7 4.5-16.6 5.5-18.4 4.2-4 6.4-3.5 7.2-3.3 2.2.7 4.1 1.9 5.6 3.5z" fill="#fce0ef"/><path d="m252.6 505.9c-2.4-2.3-59.7-57.4-59.7-95.1 0-37 26.6-63.8 63.2-63.8s63.2 26.8 63.2 63.8c0 37.8-57.3 92.8-59.7 95.1l-3.4 3.3z" fill="#fff"/><path d="m197.8 410.7c0-36.1 26.1-58.8 58.2-58.8s58.2 22.7 58.2 58.8-58.2 91.6-58.2 91.6-58.2-55.5-58.2-91.6z" fill="#992d4d"/><path d="m252.4 482.3c-7.2-7.8-43.2-47.8-43.2-71.6 0-15 5.1-27.4 14.8-36 8.4-7.4 19.7-11.5 32-11.5s23.7 4.1 32 11.5c9.7 8.6 14.8 21 14.8 36 0 23.8-36 63.8-43.2 71.6l-3.6 3.9z" fill="#fff"/><path d="m256 368.2c20.8 0 41.9 13.1 41.9 42.5 0 16.8-21.8 46.6-41.9 68.2-20-21.6-41.9-51.5-41.9-68.2 0-29.3 21.1-42.5 41.9-42.5z" fill="#ef7aae"/><path d="m252.2 457.2c-15.9-19.4-26.6-38.1-26.6-46.5 0-22.9 15.7-31.1 30.4-31.1s30.5 8.2 30.5 31.1c0 8.4-10.7 27.1-26.6 46.5l-3.8 4.7z" fill="#fff"/><path d="m256 384.6c6 0 25.5 1.9 25.5 26.1 0 5.7-8 22.1-25.5 43.4-17.5-21.3-25.5-37.6-25.5-43.4 0-24.2 19.5-26.1 25.5-26.1z" fill="#ffb4e8"/><path d="m251.9 429.5c-5.8-8.7-8.8-15.1-9.8-18.2l-.2-.8v-.8c.2-5.7 1.8-9.4 5.1-11.5 5.6-3 12.3-3 17.9 0 3.3 2 4.9 5.8 5.1 11.5v.8l-.2.8c-.9 3.1-4 9.5-9.8 18.2l-4.1 6.2z" fill="#fff"/><path d="m256 400.9c2.2 0 4.4.5 6.4 1.5.7.4 2.6 1.6 2.8 7.4-.6 2-3.1 7.8-9.1 16.9-6-9.1-8.5-14.9-9.1-16.9.2-5.8 2.1-7 2.8-7.4 1.8-1 4-1.5 6.2-1.5z" fill="#fce0ef"/><path d="m426.2 435.1c-18.9 0-82.2-1.8-105.5-25.1-13.2-13.2-20-29.1-19.8-46 .3-16 7.1-31.5 19.3-43.8 12.5-12.5 28.3-19.3 44.7-19.3 16.5 0 32.1 6.8 45.1 19.8 26.7 26.7 25.1 106.2 25 109.5v4.8l-4.7.1s-1.5 0-4.1 0z" fill="#fff"/><path d="m324.2 406.6c-25.5-25.5-23.2-60-.5-82.8s57.2-25.1 82.8.5 23.6 105.9 23.6 105.9-80.3 1.9-105.9-23.6z" fill="#992d4d"/><path d="m413.5 418.6c-10.6-.4-64.3-3.3-81.1-20.1-10.6-10.6-15.8-23-15-35.9.7-11.2 5.8-22.1 14.5-30.8 9.4-9.4 21.2-14.6 33.3-14.6s23.5 5.2 33.3 15.1c16.9 16.8 19.7 70.6 20.1 81.1l.2 5.4z" fill="#fff"/><path d="m335.4 335.4c14.7-14.7 38.9-20.3 59.6.5 11.9 11.9 17.5 48.4 18.7 77.8-29.5-1.1-66-6.8-77.8-18.7-20.8-20.8-15.3-44.9-.5-59.6z" fill="#ef7aae"/><path d="m395.6 401c-25-2.5-45.8-8.1-51.7-14.1-16.2-16.2-10.9-33.1-.5-43.5 2.9-3 11-9.8 21.7-9.8 7.7 0 15 3.5 21.9 10.2 6 6 11.6 26.7 14.1 51.7l.6 6z" fill="#fff"/><path d="m346.9 346.9c4.2-4.2 19.4-16.7 36.5.5 4.1 4.1 9.9 21.3 12.6 48.7-27.4-2.7-44.6-8.6-48.7-12.6-17.1-17.2-4.6-32.4-.4-36.6z" fill="#ffb4e8"/><path d="m375.8 381.6c-10.2-2.1-16.9-4.5-19.8-6l-.7-.4-.5-.6c-3.9-4.1-5.4-8-4.5-11.7s3.9-7 4.8-7.9 4.1-3.9 7.9-4.8c.7-.2 1.4-.2 2.1-.2 3.1 0 6.2 1.6 9.6 4.8l.6.5.4.7c1.5 2.8 3.9 9.5 6 19.8l1.5 7.3z" fill="#fff"/><path d="m358.5 358.5c1.5-1.6 3.4-2.8 5.5-3.4.8-.2 3-.7 7.2 3.3 1 1.8 3.3 7.7 5.5 18.4-10.7-2.2-16.6-4.5-18.4-5.5-4-4.2-3.5-6.5-3.3-7.2.7-2.2 1.9-4.1 3.5-5.6z" fill="#fce0ef"/><path d="m410.7 319.2c-37 0-63.8-26.6-63.8-63.2s26.8-63.2 63.8-63.2c37.8 0 92.8 57.3 95.1 59.7l3.3 3.4-3.3 3.4c-2.3 2.6-57.3 59.9-95.1 59.9z" fill="#fff"/><path d="m410.7 314.2c-36.1 0-58.8-26.1-58.8-58.2s22.7-58.2 58.8-58.2 91.6 58.2 91.6 58.2-55.5 58.2-91.6 58.2z" fill="#992d4d"/><path d="m410.7 302.8c-15 0-27.4-5.1-36-14.8-7.4-8.4-11.5-19.7-11.5-32s4.1-23.6 11.5-32c8.6-9.7 21-14.8 36-14.8 23.8 0 63.8 36 71.6 43.2l3.9 3.6-3.9 3.6c-7.8 7.3-47.8 43.2-71.6 43.2z" fill="#fff"/><path d="m368.2 256c0-20.8 13.1-41.9 42.5-41.9 16.8 0 46.6 21.8 68.2 41.9-21.6 20-51.5 41.9-68.2 41.9-29.3 0-42.5-21.1-42.5-41.9z" fill="#ef7aae"/><path d="m410.7 286.5c-22.9 0-31.1-15.7-31.1-30.5s8.2-30.4 31.1-30.4c8.4 0 27.1 10.7 46.5 26.6l4.7 3.8-4.7 3.8c-19.3 16-38.1 26.7-46.5 26.7z" fill="#fff"/><path d="m384.6 256c0-6 1.9-25.5 26.1-25.5 5.7 0 22.1 8 43.4 25.5-21.3 17.5-37.6 25.5-43.4 25.5-24.2 0-26.1-19.5-26.1-25.5z" fill="#ffb4e8"/><path d="m409.7 270.1c-5.7-.2-9.4-1.8-11.5-5.1-3-5.6-3-12.3 0-17.9 2-3.3 5.8-4.9 11.5-5.1h.8l.8.2c3.1.9 9.5 4 18.2 9.8l6.2 4.1-6.2 4.1c-8.7 5.8-15.1 8.8-18.2 9.8l-.8.2z" fill="#fff"/><path d="m400.9 256c0-2.2.5-4.4 1.5-6.4.4-.7 1.6-2.6 7.4-2.8 2 .6 7.8 3.1 16.9 9.1-9.1 6-14.9 8.5-16.9 9.1-5.8-.2-7-2.1-7.4-2.8-1-1.8-1.5-4-1.5-6.2z" fill="#fce0ef"/><path d="m365 211c-16.4 0-32.2-6.9-44.7-19.3-25.9-25.9-25.7-63.6.5-89.8 23.2-23.2 86.6-25 105.5-25h4l4.7.1.1 4.7c.1 3.4 1.7 82.8-25 109.5-13 13-28.6 19.8-45.1 19.8z" fill="#fff"/><path d="m406.6 187.8c-25.5 25.5-60 23.2-82.8.4s-25.1-57.2.5-82.8 105.9-23.6 105.9-23.6 1.9 80.4-23.6 106z" fill="#992d4d"/><path d="m365.2 194.8c-12.1 0-23.9-5.2-33.3-14.6-8.7-8.7-13.8-19.6-14.5-30.8-.8-12.9 4.4-25.3 15-35.9 16.9-16.8 70.6-19.7 81.1-20.1l5.4-.2-.2 5.3c-.4 10.6-3.3 64.3-20.1 81.2-10 9.8-21.5 15.1-33.4 15.1z" fill="#fff"/><path d="m335.4 176.6c-14.7-14.7-20.3-38.9.5-59.6 11.9-11.9 48.4-17.5 77.8-18.7-1.1 29.5-6.8 66-18.7 77.8-20.8 20.8-44.9 15.3-59.6.5z" fill="#ef7aae"/><path d="m365.1 178.4c-10.7 0-18.7-6.9-21.7-9.8-10.4-10.4-15.8-27.3.5-43.5 6-6 26.8-11.6 51.7-14.1l6-.6-.6 6c-2.5 25-8.1 45.8-14.1 51.7-6.8 6.8-14.1 10.3-21.8 10.3z" fill="#fff"/><path d="m346.9 165.1c-4.2-4.2-16.7-19.4.5-36.5 4.1-4.1 21.3-9.9 48.7-12.7-2.7 27.4-8.6 44.6-12.6 48.7-17.2 17.2-32.4 4.7-36.6.5z" fill="#ffb4e8"/><path d="m365 162c-.7 0-1.4-.1-2.1-.2-3.9-.9-7-3.9-7.9-4.8s-3.9-4.1-4.8-7.9.6-7.6 4.5-11.7l.5-.6.7-.4c2.8-1.5 9.5-3.9 19.8-6l7.3-1.5-1.5 7.3c-2.1 10.2-4.5 16.9-6 19.8l-.4.7-.6.6c-3.3 3.2-6.4 4.7-9.5 4.7z" fill="#fff"/><path d="m358.5 153.5c-1.6-1.5-2.8-3.4-3.4-5.6-.2-.8-.7-3 3.3-7.2 1.8-1 7.7-3.3 18.4-5.5-2.2 10.7-4.5 16.6-5.5 18.4-4.2 4-6.5 3.4-7.2 3.3-2.2-.6-4.1-1.8-5.6-3.4z" fill="#fce0ef"/><circle cx="256" cy="256" fill="#fff" r="128.1"/><circle cx="256" cy="256" fill="#fda24a" r="123.1"/><circle cx="256" cy="256" fill="#fff" r="108.9"/><circle cx="256" cy="256" fill="#992d4d" r="103.9"/><path d="m256 351.9c-13.4 0-21.5-18-23.8-38.4-11.5 9.2-23.4 14.6-32.5 14.6-4.7 0-8.7-1.5-11.5-4.3-9.4-9.4-2.5-28 10.4-44-20.4-2.3-38.4-10.5-38.4-23.8s18-21.5 38.4-23.8c-12.8-16-19.8-34.6-10.4-44 2.8-2.8 6.8-4.3 11.5-4.3 9.1 0 21 5.4 32.5 14.6 2.3-20.4 10.4-38.4 23.8-38.4 13.3 0 21.5 18 23.8 38.4 11.5-9.2 23.4-14.6 32.5-14.6 4.7 0 8.7 1.5 11.5 4.3 9.4 9.4 2.5 28-10.4 44 20.4 2.3 38.4 10.4 38.4 23.8s-18 21.5-38.4 23.8c12.8 16 19.8 34.6 10.4 44-2.8 2.8-6.8 4.3-11.5 4.3-9.1 0-21-5.5-32.5-14.6-2.3 20.4-10.4 38.4-23.8 38.4z" fill="#fff"/><path d="m346.9 256c0-10.5-19.5-19.1-43.9-19.5 17-17.5 24.7-37.3 17.2-44.8s-27.2.3-44.7 17.3c-.4-24.4-9-43.9-19.5-43.9s-19.1 19.5-19.5 43.9c-17.5-17-37.4-24.7-44.8-17.2s.3 27.2 17.3 44.7c-24.4.4-43.9 9-43.9 19.5s19.5 19.1 43.9 19.5c-17 17.5-24.7 37.4-17.2 44.8s27.2-.3 44.7-17.3c.4 24.4 9 43.9 19.5 43.9s19.1-19.5 19.5-43.9c17.5 17 37.4 24.7 44.8 17.2s-.3-27.2-17.3-44.7c24.4-.4 43.9-9 43.9-19.5z" fill="#ef7aae"/><path d="m268.8 297c-5.1 0-9.8-4.1-13.3-9.3-3.6 5-8.3 8.9-13.3 8.9-1.2 0-2.4-.2-3.5-.7-5.3-2.3-7.2-9.1-5.6-17.8-1.7.3-3.3.4-5 .4-8.7 0-11.6-4.1-12.6-6.5-2.1-5.3 1.3-11.5 8.6-16.5-7.1-5.2-10.4-11.5-8.1-16.8 1-2.3 3.9-6.1 12-6.1 1.9 0 3.9.2 5.8.6-1.4-8.8.8-15.5 6.1-17.6 1-.4 2.1-.6 3.2-.6 5.1 0 9.8 4.1 13.3 9.3 3.6-5 8.3-8.9 13.3-8.9 1.2 0 2.4.2 3.5.7 5.3 2.3 7.2 9.1 5.6 17.8 1.7-.3 3.3-.4 5-.4 8.7 0 11.6 4.1 12.6 6.5 2.1 5.3-1.3 11.5-8.6 16.5 7.1 5.2 10.4 11.5 8.1 16.8-1 2.3-3.9 6.1-12 6.1-1.9 0-3.9-.2-5.8-.6 1.4 8.8-.8 15.5-6.1 17.6-1 .4-2.1.6-3.2.6z" fill="#fff"/><path d="m291.8 241.8c-1.6-4.2-10.7-4.5-20.3-.8 4-9.6 3.9-18.6-.2-20.4s-10.7 4.4-15 13.8c-4-9.6-10.4-15.9-14.5-14.2s-4.5 10.7-.8 20.3c-9.6-4-18.6-3.9-20.4.2s4.4 10.7 13.8 14.9c-9.6 4-15.9 10.4-14.2 14.5s10.7 4.5 20.3.8c-4 9.5-3.9 18.6.2 20.4s10.7-4.4 14.9-13.8c4 9.5 10.4 15.9 14.5 14.2s4.5-10.7.8-20.3c9.5 4 18.6 3.9 20.4-.2s-4.4-10.7-13.8-15c9.6-3.8 16-10.3 14.3-14.4z" fill="#ffb4e8"/><circle cx="256" cy="256" fill="#fff" r="16"/><circle cx="256" cy="256" fill="#992d4d" r="11.1"/></g></g></g></svg>