<svg id="Capa_1"   viewBox="0 0 511.999 511.999"  xmlns="http://www.w3.org/2000/svg"><g><g><path d="m215.886 27.307-65.924-27.307-27.307 65.924c-10.058 24.281-4.499 52.231 14.085 70.815-18.585-18.584-46.534-24.143-70.815-14.086l-65.924 27.307 27.306 65.924c10.058 24.282 33.752 40.114 60.035 40.114-26.283 0-49.977 15.832-60.035 40.114l-27.307 65.925 65.924 27.307c24.282 10.058 52.232 4.499 70.816-14.086-18.585 18.584-24.144 46.534-14.086 70.816l27.307 65.924 65.924-27.307c24.282-10.058 40.114-33.752 40.114-60.035l20.001-168.656-20-168.658c0-26.283-15.832-49.977-40.114-60.035z" fill="#24b2b2"/><path d="m424.657 256c26.283 0 49.977-15.832 60.035-40.114l27.307-65.924-65.924-27.307c-24.282-10.058-52.231-4.499-70.816 14.086 18.585-18.584 24.144-46.534 14.086-70.816l-27.306-65.924-65.924 27.306c-24.282 10.058-40.115 33.753-40.115 60.035l-.001 337.315c0 26.282 15.832 49.977 40.114 60.035l65.924 27.307 27.307-65.924c10.058-24.282 4.499-52.231-14.086-70.816l-.001-.001.001.001c18.584 18.585 46.534 24.144 70.816 14.086l65.924-27.307-27.307-65.924c-10.057-24.281-33.751-40.114-60.034-40.114z" fill="#1f8598"/></g><g><path d="m382.121 255.999c36.855 0 61.918-37.411 47.899-71.495-.236-.573-.474-1.145-.716-1.716-14.229-33.64-58.287-41.806-84.114-15.979 25.827-25.827 17.661-69.886-15.979-84.114-.571-.241-1.143-.48-1.716-.716-34.084-14.018-71.495 11.045-71.495 47.9v252.241c0 36.855 37.411 61.918 71.495 47.899.573-.236 1.146-.474 1.716-.716 33.64-14.229 41.806-58.287 15.979-84.114 25.827 25.827 69.886 17.661 84.114-15.979.241-.571.48-1.143.716-1.716 14.019-34.084-11.044-71.495-47.899-71.495z" fill="#24b2b2"/><path d="m184.505 81.979c-.573.236-1.146.474-1.716.716-33.64 14.229-41.806 58.287-15.979 84.114-25.827-25.827-69.886-17.661-84.114 15.979-.241.571-.48 1.143-.716 1.716-14.018 34.084 11.044 71.495 47.899 71.495-36.855 0-61.918 37.411-47.899 71.495.236.573.474 1.146.716 1.716 14.229 33.64 58.287 41.806 84.114 15.979-25.827 25.827-17.661 69.886 15.979 84.114.571.241 1.143.48 1.716.716 34.085 14.019 71.495-11.044 71.495-47.899l10-126.121-10-126.121c0-36.854-37.41-61.917-71.495-47.899z" fill="#2ee5a7"/></g><g><path d="m276.352 206.866c15.896 0 28.782 12.886 28.782 28.782l34.514-4.296 33.754-23.981c0-37.982-30.79-68.772-68.772-68.772l-20.137 24.473z" fill="#cb295f"/><path d="m373.401 304.629-37.168-25.396-31.099-2.882c0 15.896-12.886 28.782-28.782 28.782l6.203 39.118 22.074 29.15c37.982-.001 68.772-30.791 68.772-68.772z" fill="#cb295f"/><path d="m305.134 235.648c11.24 11.24 11.24 29.463 0 40.703l68.268 28.277c26.857-26.857 26.857-70.401 0-97.258z" fill="#fe3377"/><path d="m235.648 305.133c-15.896 0-28.782-12.886-28.782-28.782l-35.353 4.643-32.915 23.634c0 37.982 30.79 68.772 68.772 68.772l23.781-33.269z" fill="#ff9963"/><path d="m235.648 206.866-6.203-39.117-22.074-29.15c-37.982 0-68.772 30.79-68.772 68.772l29.984 22.42 38.284 5.858c0-15.897 12.886-28.783 28.781-28.783z" fill="#ff9963"/><path d="m206.867 276.351c-11.24-11.24-11.24-29.463 0-40.703l-68.268-28.277c-26.857 26.857-26.857 70.401 0 97.258z" fill="#fe6666"/></g><path d="m207.371 138.598 28.277 68.268c5.62-5.62 12.986-8.43 20.351-8.43l10-40.655-10-39.326c-17.599.001-35.199 6.715-48.628 20.143z" fill="#fe6666"/><path d="m276.352 206.866 28.277-68.268c-13.428-13.428-31.029-20.143-48.629-20.142v79.981c7.366-.001 14.732 2.809 20.352 8.429z" fill="#fe3377"/><path d="m235.649 305.133-28.278 68.267c13.428 13.428 31.028 20.143 48.628 20.143l10-44.205-10-35.775c-7.365-.001-14.731-2.811-20.35-8.43z" fill="#fe6666"/><path d="m276.352 305.133c-5.62 5.62-12.986 8.43-20.352 8.43v79.981c17.601 0 35.201-6.714 48.63-20.143z" fill="#fe3377"/><g><path d="m232.421 199.074c-18.417 0-33.346 14.93-33.346 33.346-13.022 13.022-13.022 34.136 0 47.159 0 18.417 14.93 33.346 33.346 33.346 6.511 6.511 15.045 9.767 23.578 9.767l10.001-66.692-10-66.693c-8.534 0-17.068 3.256-23.579 9.767z" fill="#fedc33"/><path d="m312.926 232.42c0-18.417-14.93-33.346-33.346-33.346-6.511-6.511-15.045-9.767-23.58-9.767v133.384c8.534 0 17.069-3.255 23.58-9.767 18.417 0 33.346-14.93 33.346-33.346 13.022-13.022 13.022-34.135 0-47.158z" fill="#ff9963"/></g><path d="m241 240.999v30h15l10-14.999-10-15.001z" fill="#fe6666"/><path d="m256 240.999h15.001v30h-15.001z" fill="#fe3377"/></g></svg>