<svg id="Layer_1"  viewBox="0 0 512 512"  xmlns="http://www.w3.org/2000/svg" data-name="Layer 1"><circle cx="256" cy="256" fill="#eadf53" r="24.251"/><path d="m242.38 269.88c.96 1.81 1.86 3.62 2.7 5.46-3.21.34-6.37.83-9.48 1.45q.84-4.695 1.28-9.52c1.85.81 3.68 1.69 5.5 2.61z" fill="#f9d438"/><path d="m244.74 236.86q-1.215 2.775-2.6 5.5-2.715 1.44-5.46 2.71c-.34-3.2-.82-6.37-1.45-9.49q4.695.84 9.51 1.28z" fill="#f9e743"/><path d="m285.73 200.64 2.35 1.32a109.424 109.424 0 0 0 -11.68 33.25c-3.11.62-6.27 1.11-9.48 1.45q-2.025-4.38-3.64-8.86a110.237 110.237 0 0 0 22.45-27.16z" fill="#edb740"/><path d="m290.91 312.64-2.3 1.43a109.86 109.86 0 0 0 -24.83-30q1.53-4.5 3.48-8.93 4.815.435 9.51 1.28a109.667 109.667 0 0 0 14.14 36.22z" fill="#edb740"/><path d="m235.23 235.58c.63 3.12 1.11 6.29 1.45 9.49q-4.38 2.025-8.86 3.64a109.691 109.691 0 0 0 -27.12-22.46l1.32-2.36a109.567 109.567 0 0 0 33.21 11.69z" fill="#edb740"/><path d="m278.19 255.8q2.85 3.9 5.99 7.49-4.47 1.6-8.86 3.64c-.23-2.01-.39-4.03-.5-6.06q1.62-2.595 3.37-5.07z" fill="#f9d438"/><path d="m267.26 275.14q-1.95 4.425-3.48 8.93-3.63-3.075-7.58-5.86 2.43-1.785 4.98-3.45c2.04.07 4.07.19 6.08.38z" fill="#f9d438"/><path d="m251.14 274.84c1.73 1.08 3.42 2.21 5.06 3.37q-3.9 2.85-7.48 5.99-1.62-4.485-3.64-8.86c2-.23 4.02-.39 6.06-.5z" fill="#f9e743"/><path d="m311.3 285.75-1.32 2.36a109.567 109.567 0 0 0 -33.21-11.69c-.63-3.12-1.11-6.29-1.45-9.49q4.38-2.025 8.86-3.64a109.691 109.691 0 0 0 27.12 22.46z" fill="#edb740"/><path d="m248.22 227.93q-1.53 4.5-3.48 8.93-4.815-.435-9.51-1.28a109.667 109.667 0 0 0 -14.14-36.22l2.3-1.43a109.86 109.86 0 0 0 24.83 30z" fill="#edb740"/><path d="m284.04 248.21q-3.075 3.63-5.85 7.59c-1.19-1.62-2.34-3.29-3.45-4.99.07-2.04.19-4.07.38-6.08q4.41 1.95 8.92 3.48z" fill="#f9e743"/><path d="m276.4 235.21q-.84 4.695-1.28 9.52c-1.85-.81-3.68-1.69-5.5-2.61-.96-1.81-1.86-3.62-2.7-5.46 3.21-.34 6.37-.83 9.48-1.45z" fill="#f9d438"/><path d="m237.26 261.19c-.07 2.04-.19 4.07-.38 6.08q-4.41-1.95-8.92-3.48 3.075-3.63 5.85-7.59c1.19 1.62 2.34 3.29 3.45 4.99z" fill="#f9e743"/><path d="m233.81 256.2q-2.775 3.96-5.85 7.59a109.417 109.417 0 0 0 -35.67-5.88l-.01-2.68a109.539 109.539 0 0 0 35.54-6.52q3.135 3.59 5.99 7.49z" fill="#edb740"/><path d="m236.68 245.07c.23 2.01.39 4.03.5 6.06q-1.62 2.6-3.37 5.07-2.85-3.9-5.99-7.49 4.47-1.61 8.86-3.64z" fill="#f9d438"/><path d="m312.57 221.05 1.43 2.3a109.808 109.808 0 0 0 -29.96 24.86q-4.5-1.53-8.92-3.48.435-4.83 1.28-9.52a109.353 109.353 0 0 0 36.17-14.16z" fill="#edb740"/><path d="m275.32 266.93c.34 3.2.82 6.37 1.45 9.49q-4.695-.84-9.51-1.28 1.215-2.775 2.6-5.5 2.715-1.44 5.46-2.71z" fill="#f9e743"/><path d="m235.6 276.79a109.424 109.424 0 0 1 -11.68 33.25 110.658 110.658 0 0 1 -75.57 55.66 110.7 110.7 0 0 1 51.08-74.75 109.353 109.353 0 0 1 36.17-14.16z" fill="#63d989"/><path d="m255.24 319.8a110.9 110.9 0 0 1 -37.68 85.1 110.727 110.727 0 0 1 31.16-120.7 109.843 109.843 0 0 1 6.52 35.6z" fill="#4aa795"/><path d="m223.92 310.04 2.35 1.32a110.91 110.91 0 0 0 -8.71 93.54 110.986 110.986 0 0 1 -60.81 26.79 110.28 110.28 0 0 1 -10.14-46.35 111.474 111.474 0 0 1 1.74-19.64 110.658 110.658 0 0 0 75.57-55.66z" fill="#ea6773"/><path d="m404.73 294.48a110.5 110.5 0 0 1 -120.55-31.19 110.433 110.433 0 0 1 120.55 31.19z" fill="#63d989"/><path d="m274.74 250.81c-.06 1.34-.08 2.69-.08 4.04q0 3.03.16 6.02c-.72 1.14-1.41 2.3-2.09 3.47q-1.515 2.625-2.87 5.3c-1.19.63-2.37 1.28-3.54 1.96-1.75 1.01-3.47 2.07-5.14 3.16-1.33-.06-2.68-.08-4.03-.08q-3.03 0-6.01.16c-1.14-.71-2.3-1.41-3.47-2.09q-2.625-1.515-5.29-2.87c-.63-1.18-1.28-2.37-1.96-3.54-1.01-1.76-2.07-3.47-3.16-5.15.06-1.34.08-2.69.08-4.04q0-3.03-.16-6.02c.72-1.14 1.41-2.3 2.09-3.47q1.515-2.625 2.87-5.3c1.19-.63 2.37-1.28 3.54-1.96 1.75-1.01 3.47-2.07 5.14-3.16 1.33.06 2.68.08 4.03.08q3.03 0 6.01-.16c1.14.71 2.3 1.41 3.47 2.09q2.625 1.515 5.29 2.87c.63 1.18 1.28 2.37 1.96 3.54 1.01 1.76 2.07 3.47 3.16 5.15z" fill="#fff171"/><path d="m245.08 275.34q2.025 4.38 3.64 8.86a110.237 110.237 0 0 0 -22.45 27.16l-2.35-1.32a109.424 109.424 0 0 0 11.68-33.25c3.11-.62 6.27-1.11 9.48-1.45z" fill="#edb740"/><path d="m107.98 297.12a111.144 111.144 0 0 0 -25.69 61.34 110.83 110.83 0 0 1 -48.09-40.86 111.211 111.211 0 0 1 20.18-59.81 111.044 111.044 0 0 0 53.6 39.33z" fill="#716cc5"/><path d="m417.31 91.62a111.19 111.19 0 0 1 12.4 61.92 110.772 110.772 0 0 0 -66.06-7.24 111.474 111.474 0 0 0 1.74-19.64 110.28 110.28 0 0 0 -10.14-46.35 110.817 110.817 0 0 1 62.06 11.31z" fill="#716cc5"/><path d="m82.29 358.46a111.19 111.19 0 0 0 12.4 61.92 110.763 110.763 0 0 1 -60.49-102.78 110.83 110.83 0 0 0 48.09 40.86z" fill="#604af3"/><path d="m198.4 479.09a110.614 110.614 0 0 1 -103.71-58.71 110.817 110.817 0 0 0 62.06 11.31 110.967 110.967 0 0 0 41.65 47.4z" fill="#604af3"/><path d="m135.14 48.73a109.82 109.82 0 0 1 59.31-14.76 110.984 110.984 0 0 0 -40.81 48.14 110.744 110.744 0 0 0 -61.84 12.42 110.087 110.087 0 0 1 43.34-45.8z" fill="#604af3"/><path d="m254.1 192.21a109.934 109.934 0 0 1 -5.88 35.72 110.757 110.757 0 0 1 -33.3-120.12 110.839 110.839 0 0 1 39.18 84.4z" fill="#63d989"/><path d="m254.21 54.17a111.052 111.052 0 0 0 -39.29 53.64 111.647 111.647 0 0 0 -16.11-11.32 109.845 109.845 0 0 0 -45.17-14.38 110.984 110.984 0 0 1 40.81-48.14 110.877 110.877 0 0 1 59.76 20.2z" fill="#716cc5"/><path d="m254.85 16a109.828 109.828 0 0 1 58.75 16.91 110.854 110.854 0 0 0 -59.39 21.26 110.877 110.877 0 0 0 -59.76-20.2 109.859 109.859 0 0 1 60.4-17.97z" fill="#604af3"/><path d="m221.09 199.36a109.667 109.667 0 0 1 14.14 36.22 109.567 109.567 0 0 1 -33.21-11.69 110.76 110.76 0 0 1 -55.6-75.66 110.623 110.623 0 0 1 74.67 51.13z" fill="#4aa795"/><path d="m319.71 254.09.01 2.68a109.539 109.539 0 0 0 -35.54 6.52q-3.135-3.585-5.99-7.49 2.775-3.96 5.85-7.59a109.417 109.417 0 0 0 35.67 5.88z" fill="#edb740"/><path d="m198 288.65 1.43 2.3a110.7 110.7 0 0 0 -51.08 74.75 110.772 110.772 0 0 1 -66.06-7.24 111.144 111.144 0 0 1 25.69-61.34 110.541 110.541 0 0 0 90.02-8.47z" fill="#ea6773"/><path d="m429.71 153.54a111.144 111.144 0 0 1 -25.69 61.34 110.541 110.541 0 0 0 -90.02 8.47l-1.43-2.3a110.7 110.7 0 0 0 51.08-74.75 110.772 110.772 0 0 1 66.06 7.24z" fill="#ea6773"/><path d="m223.39 197.93-2.3 1.43a110.623 110.623 0 0 0 -74.67-51.13 111.116 111.116 0 0 1 7.22-66.12 109.845 109.845 0 0 1 45.17 14.38 111.647 111.647 0 0 1 16.11 11.32 110.887 110.887 0 0 0 8.47 90.12z" fill="#ea6773"/><path d="m225.86 422.77a110.166 110.166 0 0 0 31.93 35.06 110.854 110.854 0 0 1 -59.39 21.26 110.967 110.967 0 0 1 -41.65-47.4 110.986 110.986 0 0 0 60.81-26.79 110.421 110.421 0 0 0 8.3 17.87z" fill="#716cc5"/><path d="m463.05 135a110.269 110.269 0 0 1 14.75 59.4 110.83 110.83 0 0 0 -48.09-40.86 111.19 111.19 0 0 0 -12.4-61.92 110.1 110.1 0 0 1 45.74 43.38z" fill="#604af3"/><path d="m417.33 312.11a110.328 110.328 0 0 1 14.18 43.24 109.925 109.925 0 0 1 -46.31 10.16 111.332 111.332 0 0 1 -19.62-1.74 110.76 110.76 0 0 0 -55.6-75.66l1.32-2.36a110.523 110.523 0 0 0 93.43 8.73 111.253 111.253 0 0 1 12.6 17.63z" fill="#ea6773"/><path d="m148.35 365.7a111.474 111.474 0 0 0 -1.74 19.64 110.28 110.28 0 0 0 10.14 46.35 110.817 110.817 0 0 1 -62.06-11.31 111.19 111.19 0 0 1 -12.4-61.92 110.772 110.772 0 0 0 66.06 7.24z" fill="#716cc5"/><path d="m227.96 263.79a110.458 110.458 0 0 1 -119.98 33.33 110.6 110.6 0 0 1 84.31-39.21 109.417 109.417 0 0 1 35.67 5.88z" fill="#4aa795"/><path d="m286.14 89.23a110.421 110.421 0 0 1 8.3 17.87 110.9 110.9 0 0 0 -37.68 85.1l-2.66.01a110.839 110.839 0 0 0 -39.18-84.4 111.052 111.052 0 0 1 39.29-53.64 110.166 110.166 0 0 1 31.93 35.06z" fill="#ea6773"/><path d="m236.88 267.27q-.435 4.83-1.28 9.52a109.353 109.353 0 0 0 -36.17 14.16l-1.43-2.3a109.808 109.808 0 0 0 29.96-24.86q4.5 1.53 8.92 3.48z" fill="#edb740"/><path d="m365.39 126.66a111.474 111.474 0 0 1 -1.74 19.64 110.658 110.658 0 0 0 -75.57 55.66l-2.35-1.32a110.91 110.91 0 0 0 8.71-93.54 110.986 110.986 0 0 1 60.81-26.79 110.28 110.28 0 0 1 10.14 46.35z" fill="#ea6773"/><path d="m429.71 153.54a110.83 110.83 0 0 1 48.09 40.86 111.211 111.211 0 0 1 -20.18 59.81 111.044 111.044 0 0 0 -53.6-39.33 111.144 111.144 0 0 0 25.69-61.34z" fill="#716cc5"/><path d="m202.02 223.89-1.32 2.36a110.523 110.523 0 0 0 -93.43-8.73 111.21 111.21 0 0 1 -26.78-60.87 109.925 109.925 0 0 1 46.31-10.16 111.332 111.332 0 0 1 19.62 1.74 110.76 110.76 0 0 0 55.6 75.66z" fill="#ea6773"/><path d="m263.28 227.8q1.62 4.485 3.64 8.86c-2 .23-4.02.39-6.06.5-1.73-1.08-3.42-2.21-5.06-3.37q3.9-2.85 7.48-5.99z" fill="#f9e743"/><path d="m256.76 192.2a109.843 109.843 0 0 0 6.52 35.6q-3.585 3.135-7.48 5.99-3.945-2.79-7.58-5.86a109.934 109.934 0 0 0 5.88-35.72z" fill="#edb740"/><path d="m94.67 199.89a111.253 111.253 0 0 0 12.6 17.63 111 111 0 0 0 -52.89 40.27 111.127 111.127 0 0 1 -21.23-59.46 110.929 110.929 0 0 1 47.34-41.68 110.328 110.328 0 0 0 14.18 43.24z" fill="#716cc5"/><path d="m309.98 288.11a110.76 110.76 0 0 1 55.6 75.66 110.6 110.6 0 0 1 -88.81-87.35 109.567 109.567 0 0 1 33.21 11.69z" fill="#4aa795"/><path d="m294.44 107.1a110.727 110.727 0 0 1 -31.16 120.7 110.715 110.715 0 0 1 31.16-120.7z" fill="#4aa795"/><path d="m263.78 284.07a109.934 109.934 0 0 0 -5.88 35.72l-2.66.01a109.843 109.843 0 0 0 -6.52-35.6q3.585-3.135 7.48-5.99 3.945 2.79 7.58 5.86z" fill="#edb740"/><path d="m495.74 254.85a110.255 110.255 0 0 1 -16.89 58.82 111.127 111.127 0 0 0 -21.23-59.46 111.211 111.211 0 0 0 20.18-59.81 110.166 110.166 0 0 1 17.94 60.45z" fill="#604af3"/><path d="m365.58 363.77a111.116 111.116 0 0 1 -7.22 66.12 109.845 109.845 0 0 1 -45.17-14.38 111.647 111.647 0 0 1 -16.11-11.32 110.887 110.887 0 0 0 -8.47-90.12l2.3-1.43a110.623 110.623 0 0 0 74.67 51.13z" fill="#ea6773"/><g fill="#716cc5"><path d="m313.6 32.91a110.967 110.967 0 0 1 41.65 47.4 110.986 110.986 0 0 0 -60.81 26.79 111.089 111.089 0 0 0 -40.23-52.93 110.854 110.854 0 0 1 59.39-21.26z"/><path d="m91.8 94.53a110.744 110.744 0 0 1 61.84-12.42 111.116 111.116 0 0 0 -7.22 66.12 111.332 111.332 0 0 0 -19.62-1.74 109.925 109.925 0 0 0 -46.31 10.16 111.263 111.263 0 0 1 11.31-62.12z"/><path d="m358.36 429.89a110.984 110.984 0 0 1 -40.81 48.14 110.877 110.877 0 0 1 -59.76-20.2 111.052 111.052 0 0 0 39.29-53.64 111.647 111.647 0 0 0 16.11 11.32 109.845 109.845 0 0 0 45.17 14.38z"/><path d="m431.51 355.35a111.263 111.263 0 0 1 -11.31 62.12 110.744 110.744 0 0 1 -61.84 12.42 111.116 111.116 0 0 0 7.22-66.12 111.332 111.332 0 0 0 19.62 1.74 109.925 109.925 0 0 0 46.31-10.16z"/></g><path d="m54.38 257.79a111.211 111.211 0 0 0 -20.18 59.81 110.84 110.84 0 0 1 -1.05-119.27 111.127 111.127 0 0 0 21.23 59.46z" fill="#604af3"/><path d="m297.08 404.19a111.052 111.052 0 0 1 -39.29 53.64 111.089 111.089 0 0 1 -40.23-52.93 110.9 110.9 0 0 0 37.68-85.1l2.66-.01a110.839 110.839 0 0 0 39.18 84.4z" fill="#ea6773"/><path d="m423.73 223.84a110.222 110.222 0 0 1 33.89 30.37 111 111 0 0 1 -52.89 40.27 110.609 110.609 0 0 0 -85.01-37.71l-.01-2.68a110.6 110.6 0 0 0 84.31-39.21 110.991 110.991 0 0 1 19.71 8.96z" fill="#ea6773"/><path d="m363.65 146.3a110.7 110.7 0 0 1 -51.08 74.75 109.353 109.353 0 0 1 -36.17 14.16 109.424 109.424 0 0 1 11.68-33.25 110.658 110.658 0 0 1 75.57-55.66z" fill="#63d989"/><path d="m374.87 47.58a110.114 110.114 0 0 1 42.44 44.04 110.817 110.817 0 0 0 -62.06-11.31 110.967 110.967 0 0 0 -41.65-47.4 109.861 109.861 0 0 1 61.27 14.67z" fill="#604af3"/><path d="m478.85 313.67a110.929 110.929 0 0 1 -47.34 41.68 111.21 111.21 0 0 0 -26.78-60.87 111 111 0 0 0 52.89-40.27 111.127 111.127 0 0 1 21.23 59.46z" fill="#716cc5"/><path d="m314 223.35a110.541 110.541 0 0 1 90.02-8.47 110.6 110.6 0 0 1 -84.31 39.21 109.417 109.417 0 0 1 -35.67-5.88 109.808 109.808 0 0 1 29.96-24.86z" fill="#4aa795"/><path d="m192.28 255.23.01 2.68a110.6 110.6 0 0 0 -84.31 39.21 111.044 111.044 0 0 1 -53.6-39.33 111 111 0 0 1 52.89-40.27 110.609 110.609 0 0 0 85.01 37.71z" fill="#ea6773"/><path d="m200.7 226.25a109.691 109.691 0 0 1 27.12 22.46 110.433 110.433 0 0 1 -120.55-31.19 110.523 110.523 0 0 1 93.43 8.73z" fill="#63d989"/><path d="m288.61 314.07a110.887 110.887 0 0 1 8.47 90.12 110.742 110.742 0 0 1 -33.3-120.12 109.86 109.86 0 0 1 24.83 30z" fill="#63d989"/><path d="m317.55 478.03a110.5 110.5 0 0 1 -119.15 1.06 110.854 110.854 0 0 0 59.39-21.26 110.877 110.877 0 0 0 59.76 20.2z" fill="#604af3"/><path d="m91.8 94.53a111.263 111.263 0 0 0 -11.31 62.12 110.929 110.929 0 0 0 -47.34 41.68 110.754 110.754 0 0 1 58.65-103.8z" fill="#604af3"/><path d="m255.8 233.79q-2.43 1.785-4.98 3.45c-2.04-.07-4.07-.19-6.08-.38q1.95-4.425 3.48-8.93 3.63 3.075 7.58 5.86z" fill="#f9d438"/><path d="m478.85 313.67a110.754 110.754 0 0 1 -58.65 103.8 111.263 111.263 0 0 0 11.31-62.12 110.929 110.929 0 0 0 47.34-41.68z" fill="#604af3"/><path d="m420.2 417.47a110.588 110.588 0 0 1 -102.65 60.56 110.984 110.984 0 0 0 40.81-48.14 110.744 110.744 0 0 0 61.84-12.42z" fill="#604af3"/><path d="m481.785 193.28a114.684 114.684 0 0 0 -61.631-104.716 114.526 114.526 0 0 0 -105.622-59.733 114.223 114.223 0 0 0 -121.083 1.077 114.531 114.531 0 0 0 -104.549 61.601 114.693 114.693 0 0 0 -59.766 105.8 114.545 114.545 0 0 0 1.081 121.411 114.684 114.684 0 0 0 61.631 104.716 114.593 114.593 0 0 0 100.363 59.864c1.747 0 3.5-.055 5.245-.136a114.221 114.221 0 0 0 121.095-1.067c1.078.031 2.156.053 3.232.053a114.589 114.589 0 0 0 101.319-61.659 114.693 114.693 0 0 0 59.766-105.8 114.545 114.545 0 0 0 -1.078-121.413zm-180.705 139.303a114.494 114.494 0 0 0 61.057 34.592 106.777 106.777 0 0 1 -6.347 58.452 107.126 107.126 0 0 1 -54.072-22.807 114.851 114.851 0 0 0 -.638-70.237zm-90.16-153.166a114.494 114.494 0 0 0 -61.057-34.592 106.776 106.776 0 0 1 6.345-58.447 107.078 107.078 0 0 1 54.074 22.8 114.851 114.851 0 0 0 .638 70.239zm72.08 88.583q3.72 4.063 7.8 7.732-5.2-1.6-10.591-2.717-.31-1.809-.56-3.637 1.668-.718 3.351-1.378zm-3.59-25.794c.145-1.224.3-2.443.491-3.653q5.377-1.206 10.557-2.91-4.016 3.744-7.673 7.886c-1.131-.42-2.255-.865-3.375-1.324zm6.019 16.4q-1.159-1.4-2.272-2.849 1.092-1.467 2.229-2.891 5.208 1.642 10.529 2.772-5.298 1.229-10.486 2.97zm5.72-12.369a106.705 106.705 0 0 1 105.769-29.391 106.71 106.71 0 0 1 -105.769 29.391zm58.019 18.17a105.854 105.854 0 0 1 48.425 28.222 106.707 106.707 0 0 1 -106.278-27.492 105.735 105.735 0 0 1 57.853-.728zm2.072-7.726c-2.06-.553-4.126-1.041-6.2-1.477 1.4-.322 2.808-.664 4.208-1.039a113.716 113.716 0 0 0 56.031-34.608 107.772 107.772 0 0 1 16.45 7.743 105.987 105.987 0 0 1 30.871 26.95 105.981 105.981 0 0 1 -32.018 28.456 107.908 107.908 0 0 1 -14.674 7.064 113.736 113.736 0 0 0 -54.668-33.087zm51.449-46.472a113.652 113.652 0 0 0 -63.872-1.291c-2.1.563-4.173 1.189-6.223 1.863a114.682 114.682 0 0 0 34.466-61.04 106.46 106.46 0 0 1 58.326 6.332 106.146 106.146 0 0 1 -13.516 40.671 108.212 108.212 0 0 1 -9.181 13.467zm-42.54-67.252a114.6 114.6 0 0 0 -60.438 35.668 114.765 114.765 0 0 0 -.6-70.237 107.053 107.053 0 0 1 53.652-23.767 106.9 106.9 0 0 1 7.388 58.336zm-1.7 8.638a106.984 106.984 0 0 1 -76.838 78.317 106.983 106.983 0 0 1 76.833-78.312zm-93.3 68.994a107.124 107.124 0 0 1 27.429-106.283 107.127 107.127 0 0 1 -27.432 106.285zm-8 50.088c-1.66 0-3.31.043-4.953.113q-1.251-.765-2.528-1.5-2.156-1.245-4.351-2.386-.7-1.288-1.436-2.565-1.245-2.158-2.576-4.244.036-1.467.037-2.943c0-1.663-.044-3.315-.114-4.961q.767-1.255 1.5-2.534c.834-1.445 1.624-2.9 2.388-4.369.856-.467 1.711-.934 2.558-1.424 1.438-.831 2.845-1.695 4.233-2.578q1.466.038 2.94.037c1.66 0 3.31-.043 4.953-.113q1.251.765 2.528 1.5c1.435.829 2.886 1.613 4.345 2.376q.7 1.293 1.442 2.575 1.245 2.159 2.576 4.244-.036 1.467-.037 2.943c0 1.663.044 3.315.114 4.961q-.766 1.256-1.5 2.534c-.831 1.44-1.619 2.893-2.38 4.353q-1.288.7-2.566 1.44c-1.438.831-2.845 1.7-4.233 2.578q-1.465-.035-2.94-.035zm1.992 14.761q-1.661 5.311-2.781 10.7-1.22-5.361-2.971-10.65 1.4-1.167 2.852-2.292c.981.737 1.951 1.481 2.9 2.244zm-20.131-5.208q1.8-.311 3.612-.557c.483 1.127.952 2.259 1.394 3.4q-4.09 3.769-7.754 7.876 1.621-5.258 2.748-10.717zm-3.372-58.819q3.734 4.034 7.893 7.737-.631 1.715-1.326 3.417c-1.215-.145-2.426-.3-3.629-.489q-1.215-5.431-2.938-10.663zm17.221 5.147q1.66-5.311 2.781-10.7 1.219 5.361 2.971 10.65-1.4 1.167-2.852 2.292c-.981-.733-1.951-1.477-2.9-2.24zm15.125 2.369q4.091-3.77 7.754-7.876-1.622 5.256-2.748 10.715-1.8.31-3.612.557c-.478-1.123-.952-2.257-1.394-3.394zm1.811 50.5c1.215.145 2.426.3 3.629.489q1.215 5.433 2.938 10.665-3.734-4.033-7.893-7.737.631-1.708 1.331-3.411zm-14.585-112.318a114.677 114.677 0 0 0 -35.6-60.519 107.23 107.23 0 0 1 34.639-47.478 107.281 107.281 0 0 1 35.487 46.858 114.765 114.765 0 0 0 -34.526 61.139zm-8.977 53.649a107.123 107.123 0 0 1 -29.325-105.775 107.127 107.127 0 0 1 29.325 105.775zm-53.665 41.122a105.1 105.1 0 0 1 28.279 3.885 106.7 106.7 0 0 1 -105.765 29.386 105.818 105.818 0 0 1 49.74-29.591 107.016 107.016 0 0 1 27.746-3.68zm-29.736-14.289a105.866 105.866 0 0 1 -48.426-28.222 105.065 105.065 0 0 1 30.106-4.41 107.061 107.061 0 0 1 27.747 3.68 105.871 105.871 0 0 1 48.426 28.222 105.734 105.734 0 0 1 -57.853.73zm53.274 8.763q5.286-1.224 10.463-2.963c.774.934 1.53 1.887 2.274 2.85q-1.089 1.463-2.222 2.882-5.2-1.641-10.515-2.769zm5.093-20.085q5.2 1.6 10.591 2.717.311 1.809.56 3.637-1.666.717-3.35 1.378-3.72-4.063-7.8-7.732zm8.012 32.207q1.7.63 3.379 1.318c-.145 1.224-.3 2.443-.491 3.654q-5.377 1.206-10.557 2.91 4.014-3.742 7.669-7.882zm.729-38.106a106.98 106.98 0 0 1 -78.228-76.929 106.98 106.98 0 0 1 78.228 76.929zm-51.32-18.211c-1.419-.439-2.847-.86-4.289-1.247a113.622 113.622 0 0 0 -65.811 1.925 107.894 107.894 0 0 1 -10.38-14.937 106.161 106.161 0 0 1 -13.274-38.79 105.841 105.841 0 0 1 41.935-8.617 106.91 106.91 0 0 1 16.275 1.243 114.75 114.75 0 0 0 35.544 60.423zm-87.41-10.266a116.394 116.394 0 0 0 9.424 13.917 116.273 116.273 0 0 0 -13.221 6.558 113.963 113.963 0 0 0 -32.873 28.567 107.5 107.5 0 0 1 -17.274-51.535 107.352 107.352 0 0 1 40.048-36.685 114.165 114.165 0 0 0 13.896 39.178zm.207 27.4a107.825 107.825 0 0 1 14.681-7.057 113.738 113.738 0 0 0 54.662 33.08c2.066.555 4.14 1.037 6.218 1.474-1.413.323-2.823.665-4.229 1.042a113.716 113.716 0 0 0 -56.031 34.608 107.817 107.817 0 0 1 -16.45-7.743 105.987 105.987 0 0 1 -30.868-26.947 105.981 105.981 0 0 1 32.017-28.456zm17.9 72.486a113 113 0 0 0 34.032 5.256 115.071 115.071 0 0 0 29.833-3.956c2.1-.563 4.173-1.189 6.223-1.863a114.682 114.682 0 0 0 -34.466 61.04 106.46 106.46 0 0 1 -58.326-6.332 106.146 106.146 0 0 1 13.516-40.671 108.106 108.106 0 0 1 9.189-13.473zm42.533 67.261a114.6 114.6 0 0 0 60.438-35.668 114.765 114.765 0 0 0 .6 70.237 107.073 107.073 0 0 1 -53.651 23.769 106.9 106.9 0 0 1 -7.389-58.338zm1.705-8.638a106.984 106.984 0 0 1 76.845-78.316 106.985 106.985 0 0 1 -76.844 78.314zm93.3-68.994a107.127 107.127 0 0 1 -27.43 106.283 107.125 107.125 0 0 1 27.43-106.282zm9.935 53.482a114.677 114.677 0 0 0 35.6 60.519 107.23 107.23 0 0 1 -34.639 47.478 107.281 107.281 0 0 1 -35.487-46.858 114.765 114.765 0 0 0 34.526-61.138zm8.977-53.649a107.123 107.123 0 0 1 29.325 105.775 107.127 107.127 0 0 1 -29.325-105.774zm16.293-9.612a106.98 106.98 0 0 1 78.228 76.929 106.98 106.98 0 0 1 -78.228-76.928zm51.32 18.211c1.419.439 2.847.86 4.289 1.247a115.058 115.058 0 0 0 29.832 3.956 113.072 113.072 0 0 0 35.978-5.884 108.076 108.076 0 0 1 10.381 14.941 106.161 106.161 0 0 1 13.274 38.79 105.841 105.841 0 0 1 -41.935 8.617 106.91 106.91 0 0 1 -16.275-1.243 114.75 114.75 0 0 0 -35.544-60.423zm87.41 10.266a116.282 116.282 0 0 0 -9.425-13.917 116.288 116.288 0 0 0 13.222-6.558 113.963 113.963 0 0 0 32.873-28.567 107.5 107.5 0 0 1 17.274 51.536 107.352 107.352 0 0 1 -40.048 36.685 114.165 114.165 0 0 0 -13.896-39.178zm36.545-62.763a113.985 113.985 0 0 0 -31.6-26.968 116.044 116.044 0 0 0 -15.112-7.335 116.434 116.434 0 0 0 8.176-12.3 114.12 114.12 0 0 0 14.201-41.193 107.329 107.329 0 0 1 40.7 35.98 107.526 107.526 0 0 1 -16.365 51.817zm2.246-110.343a106.118 106.118 0 0 1 13.932 44.91 115.25 115.25 0 0 0 -39.641-30.839 115.52 115.52 0 0 0 -7.786-49.765 106.153 106.153 0 0 1 33.495 35.694zm-33.544 10.727a114.5 114.5 0 0 0 -57.592-6.31 115.372 115.372 0 0 0 .947-14.758 114.159 114.159 0 0 0 -8.3-42.849c2.014-.115 4.032-.184 6.054-.184a107.878 107.878 0 0 1 47.136 10.935 107.544 107.544 0 0 1 11.755 53.168zm-53.164-96.685a105.965 105.965 0 0 1 34.442 31.844q-5.067-1.88-10.354-3.3a114.469 114.469 0 0 0 -39.361-3.557 115.375 115.375 0 0 0 -31.561-39.129 105.994 105.994 0 0 1 46.834 14.142zm-23.724 26.024a115.209 115.209 0 0 0 -53 23.419 115.4 115.4 0 0 0 -35.1-46.244 107.66 107.66 0 0 1 51.4-17.274 107.387 107.387 0 0 1 36.7 40.099zm-94.298-57.066a105.816 105.816 0 0 1 45.733 10.339q-5.333.909-10.626 2.321a114.572 114.572 0 0 0 -35.8 16.583 114.669 114.669 0 0 0 -34.106-15.433 116.536 116.536 0 0 0 -12.625-2.641 105.791 105.791 0 0 1 47.424-11.169zm-59.179 18.012a107.433 107.433 0 0 1 51.683 16.354 115.384 115.384 0 0 0 -34.255 46.857 115.217 115.217 0 0 0 -53.42-22.467 107.368 107.368 0 0 1 35.992-40.744zm-58.534 14.179a106.048 106.048 0 0 1 44.932-14 115.339 115.339 0 0 0 -30.858 39.686 114.624 114.624 0 0 0 -37.322 3.7 116.382 116.382 0 0 0 -12.245 4.03 105.93 105.93 0 0 1 35.493-33.416zm-42.252 45.209a107.749 107.749 0 0 1 48.824-11.78c1.388 0 2.773.037 4.158.091a114.8 114.8 0 0 0 -6.328 57.725 115.1 115.1 0 0 0 -14.739-.947 113.821 113.821 0 0 0 -42.738 8.286 107.518 107.518 0 0 1 10.823-53.375zm-43.616 41.594a106.231 106.231 0 0 1 31.919-34.63 115.451 115.451 0 0 0 -6.9 49.9 115.305 115.305 0 0 0 -39.077 31.533 106.086 106.086 0 0 1 14.058-46.803zm-31.009 118.156a106.127 106.127 0 0 1 10.362-45.859 115.411 115.411 0 0 0 18.929 46.55 115.457 115.457 0 0 0 -18.094 46.868 106.1 106.1 0 0 1 -11.197-47.559zm34.4 7.506a113.985 113.985 0 0 0 31.6 26.968 116.122 116.122 0 0 0 15.119 7.325 116.523 116.523 0 0 0 -8.18 12.309 114.12 114.12 0 0 0 -14.2 41.195 107.329 107.329 0 0 1 -40.7-35.98 107.526 107.526 0 0 1 16.365-51.817zm-2.242 110.344a106.118 106.118 0 0 1 -13.932-44.91 115.25 115.25 0 0 0 39.641 30.839 115.52 115.52 0 0 0 7.786 49.765 106.153 106.153 0 0 1 -33.495-35.694zm33.544-10.727a114.5 114.5 0 0 0 57.592 6.31 115.372 115.372 0 0 0 -.947 14.758 114.17 114.17 0 0 0 8.308 42.859 107.7 107.7 0 0 1 -53.194-10.761 107.544 107.544 0 0 1 -11.759-53.168zm53.164 96.687a105.965 105.965 0 0 1 -34.442-31.844q5.067 1.88 10.354 3.305a115.059 115.059 0 0 0 29.832 3.957c3.184 0 6.36-.149 9.524-.416a115.384 115.384 0 0 0 31.574 39.138 106 106 0 0 1 -46.842-14.142zm23.722-26.027a115.173 115.173 0 0 0 53-23.416 115.4 115.4 0 0 0 35.1 46.244 107.683 107.683 0 0 1 -51.393 17.275 107.386 107.386 0 0 1 -36.707-40.105zm94.3 57.067a105.8 105.8 0 0 1 -45.736-10.341q5.332-.909 10.629-2.319a114.572 114.572 0 0 0 35.8-16.583 114.669 114.669 0 0 0 34.1 15.433 116.447 116.447 0 0 0 12.635 2.636 105.791 105.791 0 0 1 -47.428 11.174zm59.171-18.006a107.561 107.561 0 0 1 -51.675-16.36 115.384 115.384 0 0 0 34.255-46.857 115.173 115.173 0 0 0 53.418 22.463 107.376 107.376 0 0 1 -35.998 40.754zm58.542-14.185a106.08 106.08 0 0 1 -44.943 14.013 115.329 115.329 0 0 0 30.865-39.687q3.736.248 7.493.249a115.109 115.109 0 0 0 29.833-3.957 116.476 116.476 0 0 0 12.246-4.03 105.943 105.943 0 0 1 -35.494 33.412zm42.252-45.209a107.546 107.546 0 0 1 -52.983 11.695 114.795 114.795 0 0 0 6.329-57.727 115.1 115.1 0 0 0 14.739.947 113.821 113.821 0 0 0 42.738-8.286 107.518 107.518 0 0 1 -10.823 53.371zm43.617-41.59a106.244 106.244 0 0 1 -31.92 34.63 115.451 115.451 0 0 0 6.9-49.9 115.305 115.305 0 0 0 39.077-31.533 106.1 106.1 0 0 1 -14.057 46.799zm20.646-72.3a115.411 115.411 0 0 0 -18.929-46.55 115.457 115.457 0 0 0 18.094-46.868 106.63 106.63 0 0 1 .835 93.418z" fill="#284268"/></svg>