<svg  viewBox="0 0 512 512"  xmlns="http://www.w3.org/2000/svg" xmlns:xlink="http://www.w3.org/1999/xlink"><linearGradient id="lg1"><stop offset="0"/><stop offset=".8114" stop-color="#1d2017"/><stop offset=".8997" stop-color="#21241a"/></linearGradient><radialGradient id="SVGID_1_" cx="289.75" cy="222.25" gradientUnits="userSpaceOnUse" r="33.75" xlink:href="#lg1"/><radialGradient id="SVGID_2_" cx="289.75" cy="289.75" gradientUnits="userSpaceOnUse" r="33.75" xlink:href="#lg1"/><radialGradient id="SVGID_3_" cx="222.25" cy="289.75" gradientUnits="userSpaceOnUse" r="33.75" xlink:href="#lg1"/><radialGradient id="SVGID_4_" cx="222.25" cy="222.25" gradientUnits="userSpaceOnUse" r="33.75" xlink:href="#lg1"/><radialGradient id="SVGID_5_" cx="256" cy="308.5" gradientUnits="userSpaceOnUse" r="15" xlink:href="#lg1"/><radialGradient id="SVGID_6_" cx="308.5" cy="256" gradientUnits="userSpaceOnUse" r="15" xlink:href="#lg1"/><radialGradient id="SVGID_7_" cx="256" cy="203.5" gradientUnits="userSpaceOnUse" r="15" xlink:href="#lg1"/><radialGradient id="SVGID_8_" cx="203.5" cy="256" gradientUnits="userSpaceOnUse" r="15" xlink:href="#lg1"/><radialGradient id="SVGID_9_" cx="256" cy="256" gradientUnits="userSpaceOnUse" r="97.5" xlink:href="#lg1"/><radialGradient id="SVGID_10_" cx="256" cy="378.365" gradientUnits="userSpaceOnUse" r="33.176" xlink:href="#lg1"/><radialGradient id="SVGID_11_" cx="377.2" cy="269.55" gradientUnits="userSpaceOnUse" r="34.993" xlink:href="#lg1"/><radialGradient id="SVGID_12_" cx="292.075" cy="140.975" gradientUnits="userSpaceOnUse" r="37.258" xlink:href="#lg1"/><radialGradient id="SVGID_13_" cx="157.347" cy="197.792" gradientUnits="userSpaceOnUse" r="37.481" xlink:href="#lg1"/><radialGradient id="SVGID_14_" cx="134.8" cy="269.55" gradientUnits="userSpaceOnUse" r="34.993" xlink:href="#lg1"/><radialGradient id="SVGID_15_" cx="184.774" cy="337.673" gradientUnits="userSpaceOnUse" r="35.976" xlink:href="#lg1"/><radialGradient id="SVGID_16_" cx="327.226" cy="337.673" gradientUnits="userSpaceOnUse" r="35.976" xlink:href="#lg1"/><radialGradient id="SVGID_17_" cx="354.653" cy="197.792" gradientUnits="userSpaceOnUse" r="37.481" xlink:href="#lg1"/><radialGradient id="SVGID_18_" cx="219.925" cy="140.975" gradientUnits="userSpaceOnUse" r="37.258" xlink:href="#lg1"/><radialGradient id="SVGID_19_" cx="256" cy="263.425" gradientUnits="userSpaceOnUse" r="241.94" xlink:href="#lg1"/><radialGradient id="SVGID_20_" cx="176.44" cy="457.335" gradientUnits="userSpaceOnUse" r="65.042" xlink:href="#lg1"/><radialGradient id="SVGID_21_" cx="47.48" cy="215.55" gradientUnits="userSpaceOnUse" r="65.07" xlink:href="#lg1"/><radialGradient id="SVGID_22_" cx="108.539" cy="83.789" gradientUnits="userSpaceOnUse" r="63.736" xlink:href="#lg1"/><radialGradient id="SVGID_23_" cx="445.99" cy="372.157" gradientUnits="userSpaceOnUse" r="64.354" xlink:href="#lg1"/><radialGradient id="SVGID_24_" cx="403.461" cy="83.789" gradientUnits="userSpaceOnUse" r="63.736" xlink:href="#lg1"/><radialGradient id="SVGID_25_" cx="66.01" cy="372.157" gradientUnits="userSpaceOnUse" r="64.354" xlink:href="#lg1"/><radialGradient id="SVGID_26_" cx="335.56" cy="457.335" gradientUnits="userSpaceOnUse" r="65.042" xlink:href="#lg1"/><radialGradient id="SVGID_27_" cx="464.52" cy="215.55" gradientUnits="userSpaceOnUse" r="65.07" xlink:href="#lg1"/><radialGradient id="SVGID_28_" cx="256" cy="42.855" gradientUnits="userSpaceOnUse" r="64.592" xlink:href="#lg1"/><radialGradient id="SVGID_29_" cx="256" cy="65.19" gradientUnits="userSpaceOnUse" r="30.736" xlink:href="#lg1"/><radialGradient id="SVGID_30_" cx="374.44" cy="113.379" gradientUnits="userSpaceOnUse" r="30.806" xlink:href="#lg1"/><radialGradient id="SVGID_31_" cx="443.642" cy="224.855" gradientUnits="userSpaceOnUse" r="30.648" xlink:href="#lg1"/><radialGradient id="SVGID_32_" cx="418.986" cy="347.209" gradientUnits="userSpaceOnUse" r="30.668" xlink:href="#lg1"/><radialGradient id="SVGID_33_" cx="317.825" cy="434.28" gradientUnits="userSpaceOnUse" r="30.59" xlink:href="#lg1"/><radialGradient id="SVGID_34_" cx="194.175" cy="434.28" gradientUnits="userSpaceOnUse" r="30.59" xlink:href="#lg1"/><radialGradient id="SVGID_35_" cx="93.014" cy="347.209" gradientUnits="userSpaceOnUse" r="30.668" xlink:href="#lg1"/><radialGradient id="SVGID_36_" cx="68.358" cy="224.855" gradientUnits="userSpaceOnUse" r="30.648" xlink:href="#lg1"/><radialGradient id="SVGID_37_" cx="137.56" cy="113.379" gradientUnits="userSpaceOnUse" r="30.806" xlink:href="#lg1"/><linearGradient id="lg2"><stop offset="0" stop-color="#a1812e"/><stop offset=".5376" stop-color="#cfad56"/><stop offset="1" stop-color="#f4de8b"/></linearGradient><linearGradient id="XMLID_2_" gradientUnits="userSpaceOnUse" x1="1" x2="511" xlink:href="#lg2" y1="256" y2="256"/><linearGradient id="XMLID_3_" gradientUnits="userSpaceOnUse" x1="92.704" x2="419.296" xlink:href="#lg2" y1="256" y2="256"/><linearGradient id="XMLID_4_" gradientUnits="userSpaceOnUse" x1="181" x2="331" xlink:href="#lg2" y1="256" y2="256"/><g id="_x31_5_x2C__Mandala_x2C__cultures_x2C__art_and_design_x2C__floral_art_x2C__floral_design_x2C__decoration"><g><path d="m323.5 256c0-8.28-6.72-15-15-15s-15 6.72-15 15h-37.5v-37.5c8.28 0 15-6.72 15-15s-6.72-15-15-15c37.28 0 67.5 30.22 67.5 67.5z" fill="url(#SVGID_1_)"/><path d="m308.5 271c8.28 0 15-6.72 15-15 0 37.28-30.22 67.5-67.5 67.5 8.28 0 15-6.72 15-15s-6.72-15-15-15v-37.5h37.5c0 8.28 6.72 15 15 15z" fill="url(#SVGID_2_)"/><path d="m188.5 256c0 8.28 6.72 15 15 15s15-6.72 15-15h37.5v37.5c-8.28 0-15 6.72-15 15s6.72 15 15 15c-37.28 0-67.5-30.22-67.5-67.5z" fill="url(#SVGID_3_)"/><path d="m256 218.5v37.5h-37.5c0-8.28-6.72-15-15-15s-15 6.72-15 15c0-37.28 30.22-67.5 67.5-67.5-8.28 0-15 6.72-15 15s6.72 15 15 15z" fill="url(#SVGID_4_)"/><circle cx="256" cy="308.5" fill="url(#SVGID_5_)" r="15"/><circle cx="308.5" cy="256" fill="url(#SVGID_6_)" r="15"/><circle cx="256" cy="203.5" fill="url(#SVGID_7_)" r="15"/><circle cx="203.5" cy="256" fill="url(#SVGID_8_)" r="15"/><path d="m160.88 234.54c0-.06.01-.11.03-.16 5.01-22.14 17.55-41.41 34.79-55 16.58-13.07 37.53-20.88 60.29-20.88h.01.01c22.76 0 43.71 7.81 60.29 20.88 17.24 13.59 29.78 32.86 34.79 55 .02.05.03.1.03.16 1.56 6.91 2.38 14.09 2.38 21.46 0 16.16-3.93 31.4-10.9 44.82-.1.21-.21.42-.33.63-10.86 20.6-28.89 36.83-50.77 45.38-.41.17-.82.32-1.24.47-10.66 4.01-22.2 6.2-34.26 6.2s-23.6-2.19-34.26-6.2c-.42-.15-.83-.3-1.24-.47-21.88-8.55-39.91-24.78-50.77-45.38-.12-.21-.23-.42-.33-.63-6.97-13.42-10.9-28.66-10.9-44.82 0-7.37.82-14.55 2.38-21.46zm162.62 21.46c0-37.28-30.22-67.5-67.5-67.5s-67.5 30.22-67.5 67.5 30.22 67.5 67.5 67.5 67.5-30.22 67.5-67.5z" fill="url(#SVGID_9_)"/><path d="m290.26 347.3c.59 3.07.9 6.21.9 9.4 0 21.56-13.81 40.7-35.16 52.73-21.35-12.03-35.16-31.17-35.16-52.73 0-3.19.31-6.33.9-9.4 10.66 4.01 22.2 6.2 34.26 6.2s23.6-2.19 34.26-6.2z" fill="url(#SVGID_10_)"/><path d="m365.97 234.92c21.23 3.75 37.69 20.67 45.83 43.78-15.55 18.93-36.8 29.21-58.04 25.47-3.89-.69-7.61-1.82-11.16-3.35 6.97-13.42 10.9-28.66 10.9-44.82 0-7.37-.82-14.55-2.38-21.46 4.9-.59 9.88-.49 14.85.38z" fill="url(#SVGID_11_)"/><path d="m256 157.24c.03-5.81 1.01-11.57 3.04-17.14 7.37-20.26 26.9-33.53 51.07-37.53 15.94 18.6 22.37 41.31 15 61.58-2.03 5.57-4.98 10.61-8.69 15.08-.04.05-.09.09-.13.14 0 0 0 .01.01.01-16.58-13.07-37.53-20.88-60.29-20.88 0-.19-.01-.37-.01-.56 0-.23 0-.47 0-.7z" fill="url(#SVGID_12_)"/><path d="m195.58 179.23c.04.05.08.1.12.15-17.24 13.59-29.78 32.86-34.79 55-4.81-1.12-9.45-2.91-13.82-5.44-18.68-10.78-28.35-32.31-28.09-56.81 21.08-12.47 44.57-14.86 63.24-4.08 5.14 2.97 9.59 6.75 13.34 11.18z" fill="url(#SVGID_13_)"/><path d="m169.4 300.82c-3.55 1.53-7.27 2.66-11.16 3.35-21.24 3.74-42.49-6.54-58.04-25.47 8.14-23.11 24.6-40.03 45.83-43.78 4.97-.87 9.95-.97 14.85-.38-1.56 6.91-2.38 14.09-2.38 21.46 0 16.16 3.93 31.4 10.9 44.82z" fill="url(#SVGID_14_)"/><path d="m220.5 346.83c-1.53 2.73-3.31 5.34-5.36 7.79-13.86 16.52-36.75 22.31-60.83 17.8-8.62-22.94-6.89-46.48 6.97-63 2.53-3.01 5.36-5.67 8.45-7.97 10.86 20.6 28.89 36.83 50.77 45.38z" fill="url(#SVGID_15_)"/><path d="m350.72 309.42c13.86 16.52 15.59 40.06 6.97 63-24.08 4.51-46.97-1.28-60.83-17.8-2.05-2.45-3.83-5.06-5.36-7.79 21.88-8.55 39.91-24.78 50.77-45.38 3.09 2.3 5.92 4.96 8.45 7.97z" fill="url(#SVGID_16_)"/><path d="m316.42 179.23c3.75-4.43 8.2-8.21 13.34-11.18 18.67-10.78 42.16-8.39 63.24 4.08.26 24.5-9.41 46.03-28.09 56.81-4.37 2.53-9.01 4.32-13.82 5.44-5.01-22.14-17.55-41.41-34.79-55 .04-.05.08-.1.12-.15z" fill="url(#SVGID_17_)"/><path d="m256 157.24v.7c0 .19-.01.37-.01.56-22.76 0-43.71 7.81-60.29 20.88.01 0 .01-.01.01-.01-.04-.05-.09-.09-.13-.14-3.71-4.47-6.66-9.51-8.69-15.08-7.37-20.27-.94-42.98 15-61.58 24.17 4 43.7 17.27 51.07 37.53 2.03 5.57 3.01 11.33 3.04 17.14z" fill="url(#SVGID_18_)"/><path d="m282.15 436.65c-13.69 16.56-22.58 39.77-26.15 66.85-3.57-27.08-12.46-50.29-26.15-66.85-8.6-10.42-19.11-18.21-31.37-22.67s-25.3-5.25-38.58-2.81c-21.14 3.89-42.87 15.95-63.02 34.4 14.66-23.03 22.76-46.52 22.92-67.99.11-13.52-2.93-26.24-9.46-37.55-6.51-11.29-15.98-20.27-27.7-26.93-18.69-10.62-43.1-15.36-70.42-14.18l-.01-.01c26.04-8.22 47.35-21 61.28-37.35 8.76-10.28 14.61-21.97 16.88-34.83 2.26-12.83.78-25.78-3.91-38.41-7.48-20.15-23.14-39.47-44.81-56.13 0-.01 0-.02.01-.02 25.23 10.43 49.76 14.33 70.94 10.75 13.31-2.24 25.29-7.44 35.29-15.83 9.98-8.37 17.17-19.24 21.69-31.93 7.23-20.24 7.66-45.11 1.76-71.8.01-.01.02-.01.02-.01 12.63 24.23 28.94 43 47.48 53.86 11.63 6.82 24.13 10.53 37.16 10.53s25.53-3.71 37.16-10.53c18.54-10.86 34.85-29.63 47.48-53.86 0 0 .01 0 .02.01-5.9 26.69-5.47 51.56 1.76 71.8 4.52 12.69 11.71 23.56 21.69 31.93 10 8.39 21.98 13.59 35.29 15.83 21.18 3.58 45.71-.32 70.94-10.75.01 0 .01.01.01.02-21.67 16.66-37.33 35.98-44.81 56.13-4.69 12.63-6.17 25.58-3.91 38.41 2.27 12.86 8.12 24.55 16.88 34.83 13.93 16.35 35.24 29.13 61.28 37.35l-.01.01c-27.32-1.18-51.73 3.56-70.42 14.18-11.72 6.66-21.19 15.64-27.7 26.93-6.53 11.31-9.57 24.03-9.46 37.55.16 21.47 8.26 44.96 22.92 67.99-20.15-18.45-41.88-30.51-63.02-34.4-13.28-2.44-26.32-1.65-38.58 2.81s-22.77 12.25-31.37 22.67zm9.35-89.82c1.53 2.73 3.31 5.34 5.36 7.79 13.86 16.52 36.75 22.31 60.83 17.8 8.62-22.94 6.89-46.48-6.97-63-2.53-3.01-5.36-5.67-8.45-7.97.12-.21.23-.42.33-.63 3.55 1.53 7.27 2.66 11.16 3.35 21.24 3.74 42.49-6.54 58.04-25.47-8.14-23.11-24.6-40.03-45.83-43.78-4.97-.87-9.95-.97-14.85-.38 0-.06-.01-.11-.03-.16 4.81-1.12 9.45-2.91 13.82-5.44 18.68-10.78 28.35-32.31 28.09-56.81-21.08-12.47-44.57-14.86-63.24-4.08-5.14 2.97-9.59 6.75-13.34 11.18 3.71-4.47 6.66-9.51 8.69-15.08 7.37-20.27.94-42.98-15-61.58-24.17 4-43.7 17.27-51.07 37.53-2.03 5.57-3.01 11.33-3.04 17.14-.03-5.81-1.01-11.57-3.04-17.14-7.37-20.26-26.9-33.53-51.07-37.53-15.94 18.6-22.37 41.31-15 61.58 2.03 5.57 4.98 10.61 8.69 15.08-3.75-4.43-8.2-8.21-13.34-11.18-18.67-10.78-42.16-8.39-63.24 4.08-.26 24.5 9.41 46.03 28.09 56.81 4.37 2.53 9.01 4.32 13.82 5.44-.02.05-.03.1-.03.16-4.9-.59-9.88-.49-14.85.38-21.23 3.75-37.69 20.67-45.83 43.78 15.55 18.93 36.8 29.21 58.04 25.47 3.89-.69 7.61-1.82 11.16-3.35.1.21.21.42.33.63-3.09 2.3-5.92 4.96-8.45 7.97-13.86 16.52-15.59 40.06-6.97 63 24.08 4.51 46.97-1.28 60.83-17.8 2.05-2.45 3.83-5.06 5.36-7.79.41.17.82.32 1.24.47-.59 3.07-.9 6.21-.9 9.4 0 21.56 13.81 40.7 35.16 52.73 21.35-12.03 35.16-31.17 35.16-52.73 0-3.19-.31-6.33-.9-9.4.42-.15.83-.3 1.24-.47z" fill="url(#SVGID_19_)"/><path d="m229.85 436.65c13.69 16.56 22.58 39.77 26.15 66.85-60.59 0-116.1-21.77-159.12-57.93 20.15-18.45 41.88-30.51 63.02-34.4l.03.13c-5.32 18.63 4.61 38.47 23.1 45.19 18.48 6.73 38.84-2.08 46.74-19.77z" fill="url(#SVGID_20_)"/><path d="m86.46 188.32-.08.03c-19.27-2-37.08 11.22-40.5 30.6s8.8 37.89 27.59 42.6l.02.01c-13.93 16.35-35.24 29.13-61.28 37.35-2.44-13.94-3.71-28.28-3.71-42.91 0-45.1 12.07-87.39 33.15-123.81 21.67 16.66 37.33 35.98 44.81 56.13z" fill="url(#SVGID_21_)"/><path d="m171.34 23.36c5.9 26.69 5.47 51.56-1.76 71.8l-.04-.01c-13.47-13.92-35.61-15.24-50.69-2.59-15.07 12.64-17.61 34.67-6.25 50.36-21.18 3.58-45.71-.32-70.94-10.75 28.91-49.93 74.75-88.82 129.68-108.81z" fill="url(#SVGID_22_)"/><path d="m429.36 313.1c18.69-10.62 43.1-15.36 70.42-14.18-10.22 58.53-41.02 109.99-84.66 146.65-14.66-23.03-22.76-46.52-22.92-67.99h.06c17.42 8.47 38.68 2.14 48.52-14.9 9.83-17.04 4.69-38.62-11.36-49.47z" fill="url(#SVGID_23_)"/><path d="m340.66 23.36c54.93 19.99 100.77 58.88 129.68 108.81-25.23 10.43-49.76 14.33-70.94 10.75 11.36-15.69 8.82-37.72-6.25-50.36-15.08-12.65-37.22-11.33-50.69 2.59l-.04.01c-7.23-20.24-7.66-45.11-1.76-71.8z" fill="url(#SVGID_24_)"/><path d="m119.74 377.58h.06c-.16 21.47-8.26 44.96-22.92 67.99-43.64-36.66-74.44-88.12-84.66-146.65 27.32-1.18 51.73 3.56 70.42 14.18l-.06.11c-16.05 10.85-21.19 32.43-11.36 49.47 9.84 17.04 31.1 23.37 48.52 14.9z" fill="url(#SVGID_25_)"/><path d="m352.1 411.17c21.14 3.89 42.87 15.95 63.02 34.4-43.02 36.16-98.53 57.93-159.12 57.93 3.57-27.08 12.46-50.29 26.15-66.85l.08.07c7.9 17.69 28.26 26.5 46.74 19.77 18.49-6.72 28.42-26.56 23.1-45.19z" fill="url(#SVGID_26_)"/><path d="m503.5 256c0 14.63-1.27 28.97-3.71 42.91-26.04-8.22-47.35-21-61.28-37.35l.02-.01c18.79-4.71 31.01-23.22 27.59-42.6s-21.23-32.6-40.5-30.6l-.08-.03c7.48-20.15 23.14-39.47 44.81-56.13 21.08 36.42 33.15 78.71 33.15 123.81z" fill="url(#SVGID_27_)"/><path d="m340.64 23.35c-12.63 24.23-28.94 43-47.48 53.86-1.37-19.32-17.49-34.57-37.16-34.57s-35.79 15.25-37.16 34.57c-18.54-10.86-34.85-29.63-47.48-53.86 26.41-9.61 54.91-14.85 84.64-14.85s58.23 5.24 84.64 14.85z" fill="url(#SVGID_28_)"/><path d="m256 42.64c19.67 0 35.79 15.25 37.16 34.57-11.63 6.82-24.13 10.53-37.16 10.53s-25.53-3.71-37.16-10.53c1.37-19.32 17.49-34.57 37.16-34.57z" fill="url(#SVGID_29_)"/><path d="m393.15 92.56c15.07 12.64 17.61 34.67 6.25 50.36-13.31-2.24-25.29-7.44-35.29-15.83-9.98-8.37-17.17-19.24-21.69-31.93l.04-.01c13.47-13.92 35.61-15.24 50.69-2.59z" fill="url(#SVGID_30_)"/><path d="m466.12 218.95c3.42 19.38-8.8 37.89-27.59 42.6l-.02.01c-8.76-10.28-14.61-21.97-16.88-34.83-2.26-12.83-.78-25.78 3.91-38.41l.08.03c19.27-2 37.08 11.22 40.5 30.6z" fill="url(#SVGID_31_)"/><path d="m429.42 313.21c16.05 10.85 21.19 32.43 11.36 49.47-9.84 17.04-31.1 23.37-48.52 14.9h-.06c-.11-13.52 2.93-26.24 9.46-37.55 6.51-11.29 15.98-20.27 27.7-26.93z" fill="url(#SVGID_32_)"/><path d="m352.07 411.3c5.32 18.63-4.61 38.47-23.1 45.19-18.48 6.73-38.84-2.08-46.74-19.77l-.08-.07c8.6-10.42 19.11-18.21 31.37-22.67s25.3-5.25 38.58-2.81z" fill="url(#SVGID_33_)"/><path d="m229.85 436.65-.08.07c-7.9 17.69-28.26 26.5-46.74 19.77-18.49-6.72-28.42-26.56-23.1-45.19l-.03-.13c13.28-2.44 26.32-1.65 38.58 2.81s22.77 12.25 31.37 22.67z" fill="url(#SVGID_34_)"/><path d="m110.34 340.03c6.53 11.31 9.57 24.03 9.46 37.55h-.06c-17.42 8.47-38.68 2.14-48.52-14.9-9.83-17.04-4.69-38.62 11.36-49.47l.06-.11c11.72 6.66 21.19 15.64 27.7 26.93z" fill="url(#SVGID_35_)"/><path d="m86.46 188.32c4.69 12.63 6.17 25.58 3.91 38.41-2.27 12.86-8.12 24.55-16.88 34.83l-.02-.01c-18.79-4.71-31.01-23.22-27.59-42.6s21.23-32.6 40.5-30.6z" fill="url(#SVGID_36_)"/><path d="m169.54 95.15.04.01c-4.52 12.69-11.71 23.56-21.69 31.93-10 8.39-21.98 13.59-35.29 15.83-11.36-15.69-8.82-37.72 6.25-50.36 15.08-12.65 37.22-11.33 50.69 2.59z" fill="url(#SVGID_37_)"/><g id="XMLID_2566_"><path id="XMLID_2589_" d="m511 256c0-141.755-114.953-255-255-255-140.875 0-255 113.948-255 255 0 141.606 114.891 255 255 255 140.358 0 255-113.535 255-255zm-17.266 32.908c-17.107-6.341-31.336-14.72-42.122-24.625 15.978-9.161 25.231-27.712 21.894-46.634-3.341-18.953-18.416-33.237-36.605-36.35 6.733-13.015 17.234-25.775 31.147-37.603 23.637 44.45 32.594 95.056 25.686 145.212zm-59.452 70.023c-6.982 12.094-21.43 17.538-34.417 13.597 1.21-21.249 11.153-38.528 28.947-50.235 9.936 9.272 12.461 24.529 5.47 36.638zm-40.822 60.819c-58.631-35.754-115.493-15.141-137.46 50.033-21.941-65.095-78.745-85.836-137.46-50.032 25.024-63.94-5.135-116.37-73.141-126.686 60.284-32.902 70.853-92.453 25.401-144.059 67.593 13.599 113.699-25.56 112.058-94.03 42.877 53.659 103.345 53.736 146.283 0-1.648 68.774 44.754 107.562 112.059 94.03-45.399 51.543-34.968 111.109 25.401 144.06-67.894 10.3-98.206 62.637-73.141 126.684zm-227.229-1.899c20.434-2.395 39.398 3.829 54.489 19.854-7.407 11.39-21.992 16.526-35.128 11.743-13.145-4.784-21.019-18.103-19.361-31.597zm29.428 48.375c13.271 0 26.057-5.94 34.59-16.213 7.891 12.353 13.677 27.838 16.951 45.809-52.11-1.888-100.035-20.458-138.577-50.534 14.05-11.64 28.425-19.766 42.399-24.144-.139 24.411 19.56 45.082 44.637 45.082zm150.11-48.377c1.658 13.495-6.216 26.814-19.36 31.598-13.135 4.783-27.722-.353-35.129-11.743 14.132-15.005 32.671-22.412 54.489-19.855zm-64.019 32.164c11.852 14.27 31.78 20.082 49.789 13.53 18.096-6.587 29.544-23.937 29.438-42.4 13.974 4.379 28.349 12.506 42.399 24.145-38.542 30.076-86.467 48.646-138.577 50.534 3.274-17.971 9.06-33.456 16.951-45.809zm-198.563-127.721c17.78 11.698 27.736 28.971 28.947 50.236-12.984 3.942-27.434-1.503-34.417-13.598-6.99-12.109-4.465-27.366 5.47-36.638zm-12.34-69.52c-12.454-5.342-20.004-18.783-17.582-32.52 2.426-13.757 14.161-23.81 27.705-24.547 6.089 20.377 2.617 40-10.123 57.067zm52.828-154.471c10.69-8.97 26.111-9.149 36.964-1.026-8.399 19.453-23.625 32.307-44.41 37.215-6.092-12.093-3.233-27.229 7.446-36.189zm103.358-25.222c3.104-13.182 15.025-22.941 28.967-22.941s25.862 9.759 28.967 22.941c-19 9.546-38.92 9.553-57.934 0zm168.738 61.411c-20.498-4.841-35.894-17.492-44.41-37.215 10.853-8.122 26.274-7.943 36.965 1.026 10.678 8.96 13.537 24.096 7.445 36.189zm45.382 118.282c-12.721-17.044-16.221-36.663-10.123-57.069 13.546.733 25.279 10.793 27.705 24.55 2.422 13.737-5.128 27.178-17.582 32.519zm18.038-124.349c-17.151 6.114-33.409 8.827-48.014 8.167 6.342-17.285 1.504-37.433-13.21-49.779-14.731-12.36-35.439-13.614-51.365-4.339-3.207-14.298-3.363-30.821-.309-48.824 46.791 19.07 86.255 52.492 112.898 94.775zm-129.471-100.824c-9.226 15.746-19.959 28.3-31.597 37.193-6.249-17.323-22.91-29.654-42.123-29.654s-35.874 12.331-42.123 29.654c-11.639-8.892-22.372-21.446-31.597-37.193 47.145-15.254 98.968-15.683 147.44 0zm-164.014 6.049c3.055 18.002 2.898 34.526-.309 48.824-15.927-9.277-36.635-8.023-51.364 4.339-14.715 12.346-19.553 32.494-13.211 49.779-14.605.66-30.862-2.053-48.013-8.167 26.643-42.283 66.107-75.705 112.897-94.775zm-121.753 110.047c13.913 11.829 24.415 24.589 31.148 37.605-18.179 3.116-33.265 17.397-36.607 36.347-3.337 18.923 5.916 37.473 21.894 46.635-10.786 9.906-25.015 18.284-42.122 24.625-6.896-50.065 2.007-100.681 25.687-145.212zm-22.643 162.56c18.293.11 34.569 3.132 48.116 8.779-11.946 14.076-14.326 34.722-4.698 51.397 9.575 16.582 28.539 24.936 46.792 21.642-1.893 14.498-7.395 30.037-16.4 45.866-36.691-33.206-63.091-77.572-73.81-127.684zm395.57 127.683c-9.005-15.828-14.507-31.367-16.399-45.865 18.29 3.302 37.238-5.095 46.792-21.642 9.627-16.675 7.247-37.321-4.698-51.396 13.547-5.647 29.824-8.67 48.116-8.779-10.721 50.111-37.12 94.477-73.811 127.682z" fill="url(#XMLID_2_)"/><path id="XMLID_2577_" d="m376.478 229.986c15.439-12.796 24.281-33.754 24.027-57.936-.028-2.623-1.424-5.041-3.682-6.376-20.814-12.311-43.386-15.131-62.187-8.159 3.602-19.726-3.096-41.465-18.834-59.826-1.708-1.993-4.334-2.947-6.919-2.519-23.857 3.948-42.962 16.296-52.883 33.722-9.921-17.426-29.025-29.774-52.883-33.722-2.586-.428-5.211.526-6.919 2.519-15.738 18.36-22.436 40.099-18.834 59.825-18.801-6.973-41.373-4.15-62.187 8.16-2.258 1.335-3.653 3.753-3.682 6.376-.254 24.181 8.589 45.139 24.027 57.935-18.884 6.744-34.361 23.414-42.393 46.224-.871 2.475-.387 5.225 1.278 7.251 13.898 16.921 33.693 29.056 55.644 28.94-10.13 17.305-11.271 40.022-2.761 62.657.924 2.455 3.063 4.25 5.641 4.732 21.803 4.08 44.679.444 61.225-13.614 3.359 19.773 17.089 37.915 38.162 49.788 2.274 1.281 5.064 1.295 7.363 0 21.073-11.872 34.802-30.014 38.162-49.787 16.597 14.103 39.475 17.684 61.225 13.613 2.578-.482 4.717-2.277 5.641-4.732 8.509-22.634 7.369-45.352-2.761-62.657 21.967.116 41.759-12.034 55.644-28.94 1.665-2.026 2.149-4.776 1.278-7.251-8.031-22.808-23.508-39.479-42.392-46.223zm-120.478 116.014c-49.626 0-90-40.374-90-90s40.374-90 90-90 90 40.374 90 90-40.374 90-90 90zm129.441-169.504c-.851 20.928-9.993 40.348-29.162 48.34-5.535-17.773-15.679-33.53-29.021-45.879 13.45-11.404 34.496-14.883 58.183-2.461zm-78.321-65.72c16.475 21.336 16.591 42.845 7.446 58.115-14.678-9.9-31.981-16.192-50.627-17.592 2.54-17.981 16.573-34.707 43.181-40.523zm-102.24 0c26.626 5.819 40.638 22.549 43.184 40.522-18.647 1.4-35.952 7.692-50.631 17.593-9.126-15.249-9.049-36.751 7.447-58.115zm-78.321 65.72c23.707-12.432 44.748-8.932 58.183 2.46-13.342 12.349-23.486 28.107-29.021 45.879-19.18-7.996-28.313-27.426-29.162-48.339zm-17.754 100.689c9.558-23.274 26.46-34.36 43.165-35.431-2.528 18.555-.102 37.361 7.093 54.586-18.959 4.361-37.052-4.655-50.258-19.155zm51.12 88.543c-5.818-18.26-4.861-38.195 8.05-52.552 10.196 15.644 24.445 28.413 41.248 36.81-10.936 12.878-28.718 18.516-49.298 15.742zm96.075 34.968c-17.424-11.027-27.409-26.634-27.644-43.397 17.52 4.786 36.689 5.081 55.288 0-.235 16.763-10.22 32.371-27.644 43.397zm96.075-34.968c-20.578 2.767-38.363-2.865-49.298-15.743 16.803-8.397 31.052-21.166 41.248-36.81 12.906 14.352 13.871 34.283 8.05 52.553zm.862-69.388c7.189-17.211 9.623-36.016 7.093-54.585 16.727 1.071 33.619 12.183 43.166 35.43-13.192 14.482-31.278 23.519-50.259 19.155z" fill="url(#XMLID_3_)"/><path id="XMLID_2567_" d="m256 181c-41.355 0-75 33.645-75 75s33.645 75 75 75 75-33.645 75-75-33.645-75-75-75zm52.5 82.5c-4.136 0-7.5-3.364-7.5-7.5s3.364-7.5 7.5-7.5 7.5 3.364 7.5 7.5-3.364 7.5-7.5 7.5zm3.198-29.769c-10.87-1.554-20.909 4.904-24.408 14.769h-23.79v-23.79c9.865-3.499 16.323-13.537 14.769-24.407 15.196 6.097 27.331 18.232 33.429 33.428zm-48.198-30.231c0 4.136-3.364 7.5-7.5 7.5s-7.5-3.364-7.5-7.5 3.364-7.5 7.5-7.5 7.5 3.364 7.5 7.5zm-29.769-3.197c-1.554 10.869 4.904 20.908 14.769 24.407v23.79h-23.79c-3.499-9.865-13.538-16.323-24.408-14.769 6.098-15.196 18.233-27.331 33.429-33.428zm-37.731 55.697c0-4.136 3.364-7.5 7.5-7.5s7.5 3.364 7.5 7.5-3.364 7.5-7.5 7.5-7.5-3.364-7.5-7.5zm4.303 22.269c10.869 1.554 20.908-4.904 24.408-14.769h23.79v23.79c-9.865 3.499-16.323 13.537-14.769 24.407-15.197-6.097-27.332-18.232-33.429-33.428zm48.197 30.231c0-4.136 3.364-7.5 7.5-7.5s7.5 3.364 7.5 7.5-3.364 7.5-7.5 7.5-7.5-3.364-7.5-7.5zm29.769 3.198c1.554-10.87-4.904-20.908-14.769-24.407v-23.791h23.79c3.499 9.865 13.538 16.323 24.408 14.769-6.098 15.196-18.233 27.331-33.429 33.429z" fill="url(#XMLID_4_)"/></g></g></g></svg>