<svg viewBox="0 0 512 512" xmlns="http://www.w3.org/2000/svg" xmlns:xlink="http://www.w3.org/1999/xlink"><linearGradient id="linear-gradient" gradientUnits="userSpaceOnUse" x1="256" x2="256" y2="512"><stop offset="0" stop-color="#fff6e3"/><stop offset="1" stop-color="#ffedaf"/></linearGradient><linearGradient id="linear-gradient-2" gradientUnits="userSpaceOnUse" x1="257.03" x2="257.03" y1="63.96" y2="439.9"><stop offset="0" stop-color="#ffdc00"/><stop offset="1" stop-color="#fd5b00"/></linearGradient><linearGradient id="linear-gradient-3" x1="127.27" x2="127.27" xlink:href="#linear-gradient-2" y1="63.96" y2="439.9"/><linearGradient id="linear-gradient-4" x1="254.97" x2="254.97" xlink:href="#linear-gradient-2" y1="63.96" y2="439.9"/><linearGradient id="linear-gradient-5" x1="385.76" x2="385.76" xlink:href="#linear-gradient-2" y1="63.96" y2="439.9"/><linearGradient id="linear-gradient-6" x1="257.03" x2="257.03" xlink:href="#linear-gradient-2" y1="63.96" y2="439.9"/><linearGradient id="linear-gradient-7" x1="91.83" x2="91.83" xlink:href="#linear-gradient-2" y1="63.96" y2="439.9"/><linearGradient id="linear-gradient-9" x1="420.17" x2="420.17" xlink:href="#linear-gradient-2" y1="63.96" y2="439.9"/><g id="Layer_2" data-name="Layer 2"><g id="Layer_2_copy_5" data-name="Layer 2 copy 5"><g id="_40" data-name="40"><path id="background" d="m417.14 494a729.1 729.1 0 0 1 -322.28 0c-34-8.16-68.66-42.81-76.83-76.83a729.1 729.1 0 0 1 -.03-322.31c8.2-34.02 42.89-68.67 76.86-76.86a729.1 729.1 0 0 1 322.28 0c34 8.17 68.67 42.86 76.83 76.83a729.1 729.1 0 0 1 0 322.28c-8.16 34-42.81 68.69-76.83 76.89z" fill="url(#linear-gradient)"/><path d="m257 157c26.93-12.14 54.11-18.4 75.34-21.62 4.73-18.58 1.83-37.31 1.83-37.31s-40.68-6.81-61.87 14.12c-10.37 10.26-14.15 25.25-15.3 37.9-1.16-12.65-4.93-27.64-15.31-37.9-21.18-20.93-61.86-14.12-61.86-14.12s-2.9 18.73 1.83 37.31c21.26 3.2 48.43 9.46 75.34 21.62z" fill="url(#linear-gradient-2)"/><path d="m135.67 179.71c-18.67-4.84-37.67-1.91-37.67-1.91s-6.8 40.68 14.13 61.87c10.26 10.37 25.25 14.15 37.9 15.3-12.65 1.16-27.64 4.93-37.9 15.31-20.89 21.18-14.13 61.86-14.13 61.86s19.26 3 38.1-2c3.29-20.92 9.54-47.32 21.41-73.64-12.43-27.69-18.7-55.42-21.84-76.79z" fill="url(#linear-gradient-3)"/><path d="m257 355.93c-27.95 12.61-56.15 18.87-77.71 22-4.29 18.16-1.52 36-1.52 36s40.68 6.8 61.87-14.13c10.37-10.26 14.15-25.25 15.3-37.9 1.16 12.65 4.93 27.64 15.31 37.9 21.21 20.96 61.89 14.2 61.89 14.2s2.84-18.31-1.67-36.69c-20.94-3.31-47.3-9.59-73.47-21.38z" fill="url(#linear-gradient-4)"/><path d="m361.93 257c12.65-1.16 27.64-4.93 37.9-15.31 20.93-21.15 14.17-61.83 14.17-61.83s-17.73-2.75-35.81 1.46c-3.22 21.15-9.49 48.18-21.65 75.14 12.4 27.46 18.66 55 21.82 76.32 18 4.15 35.64 1.42 35.64 1.42s6.8-40.68-14.13-61.87c-10.3-10.33-25.29-14.15-37.94-15.33z" fill="url(#linear-gradient-5)"/><path d="m257 117.66a52.79 52.79 0 0 1 9-11.89 54.64 54.64 0 0 1 16.9-11.19c-9.85-17.01-25.9-28.58-25.9-28.58s-16 11.57-25.89 28.58a54.45 54.45 0 0 1 16.91 11.19 53.08 53.08 0 0 1 8.98 11.89z" fill="url(#linear-gradient-6)"/><path d="m117.66 255a52.79 52.79 0 0 1 -11.89-9 54.44 54.44 0 0 1 -11.17-16.92c-17.02 9.85-28.6 25.92-28.6 25.92s11.58 16 28.6 25.89a54.56 54.56 0 0 1 11.17-16.89 53.08 53.08 0 0 1 11.89-9z" fill="url(#linear-gradient-7)"/><path d="m255 394.35a53 53 0 0 1 -9 11.88 54.64 54.64 0 0 1 -16.9 11.19c9.9 17.01 25.9 28.58 25.9 28.58s16-11.57 25.89-28.58a54.45 54.45 0 0 1 -16.89-11.19 53.25 53.25 0 0 1 -9-11.88z" fill="url(#linear-gradient-4)"/><path d="m417.4 231.14a54.44 54.44 0 0 1 -11.17 16.91 53.08 53.08 0 0 1 -11.89 9 52.79 52.79 0 0 1 11.89 9 54.44 54.44 0 0 1 11.17 16.91c17.02-9.89 28.6-25.96 28.6-25.96s-11.58-16-28.6-25.86z" fill="url(#linear-gradient-9)"/><g fill="url(#linear-gradient-6)"><path d="m372.54 141s-59.07-.72-115.51 26c-56.44-26.67-115.51-26-115.51-26s-.72 59 25.95 115.46c-26.67 56.44-25.95 115.54-25.95 115.54s59.07.72 115.51-26c56.44 26.67 115.51 26 115.51 26s.72-59.07-26-115.51c26.72-56.49 26-115.49 26-115.49zm-30.74 200.27c-22.93-3.15-55.36-10.4-84.77-27-29.41 16.63-61.84 23.88-84.78 27 3.17-22.95 10.44-55.42 27-84.81-16.59-29.39-23.85-61.85-27-84.81 22.94 3.15 55.37 10.4 84.78 27 29.41-16.63 61.84-23.88 84.78-27-3.18 22.95-10.44 55.42-27 84.81 16.56 29.39 23.82 61.85 26.99 84.81z"/><path d="m289.07 234.63h-10.21v-10.22a19.35 19.35 0 0 0 -19.35-19.34h-5a19.34 19.34 0 0 0 -19.35 19.34v10.22h-10.16a19.34 19.34 0 0 0 -19.36 19.37v5a19.35 19.35 0 0 0 19.36 19.29h10.2v10.22a19.34 19.34 0 0 0 19.35 19.34h5a19.35 19.35 0 0 0 19.35-19.34v-10.22h10.21a19.35 19.35 0 0 0 19.35-19.35v-5a19.35 19.35 0 0 0 -19.39-19.31zm-13.52 32.59c-6.13 0-11.57-3.65-14.94-6.57 2.93 3.37 6.58 8.8 6.58 14.94 0 10.22-10.16 22.75-10.16 22.75s-10.16-12.53-10.16-22.75c0-6.14 3.65-11.57 6.58-14.94-3.37 2.92-8.81 6.57-14.94 6.57-10.23 0-22.75-10.15-22.75-10.15s12.52-10.16 22.75-10.16c6.13 0 11.57 3.65 14.94 6.57-2.93-3.37-6.58-8.8-6.58-14.93 0-10.23 10.16-22.76 10.16-22.76s10.16 12.53 10.16 22.76c0 6.13-3.65 11.56-6.58 14.93 3.37-2.92 8.81-6.57 14.94-6.57 10.23 0 22.75 10.16 22.75 10.16s-12.52 10.15-22.75 10.15z"/></g></g></g></g></svg>