<svg  viewBox="0 0 80 80"  xmlns="http://www.w3.org/2000/svg"><g id="Page-1" fill="none" fill-rule="evenodd"><g id="color" transform="translate(-80 -319)"><g id="mandala_021-flower-floral-ornament-decoration" transform="translate(83 322)"><path id="Oval" d="m37 35c-8-9.9608111-12.6666667-17.5573024-14-22.7894737-2-7.84825696 6.2680135-15.2105263 14-10.2105263 7.7317641-5 16 2.36226934 14 10.2105263-1.3333333 5.2321713-6 12.8286626-14 22.7894737zm1.9021108 1.381969c7.0011584-10.686512 12.7837716-17.4722207 17.3478396-20.3571259 6.8461019-4.3273578 16.4029928 1.260924 14.0370255 10.1595651 7.1445291 5.8082597 2.6976202 15.9468856-5.3845497 16.4700174-5.3881133.3487545-14.0548851-1.7420644-26.0003154-6.2724566zm-.726546 2.2360669c12.3269538 3.3561834 20.567472 6.7588761 24.7215544 10.2080779 6.2311237 5.1738028 3.8695936 15.9898202-5.3246411 16.4894829-3.3162023 8.5897019-14.332779 7.493448-17.3278347-.0314958-1.9967038-5.0166292-2.6863967-13.9053175-2.0690786-26.666065zm-2.351141-.0000038c.617318 12.7607475-.0723749 21.6494359-2.0690787 26.6660651-2.9950557 7.5249437-14.0114525 8.6213283-17.3278347.0314957-9.19405482-.4995319-11.5557648-11.31568-5.3246411-16.4894828 4.1540825-3.4492018 12.3946006-6.8518945 24.7215545-10.208078zm-.726539-2.2360691c-11.9454303 4.5303922-20.6122021 6.6212111-26.0003154 6.2724566-8.08216992-.5231318-12.52914747-10.6615462-5.38454966-16.4700174-2.36603607-8.8984297 7.19092356-14.4869229 14.03702546-10.1595651 4.564068 2.8849052 10.3466812 9.6706138 17.3478396 20.3571259z" fill="#38b4ca"/><path id="Oval-53" d="m48.7226856 53.1348925c.1816131 1.2450513.2773144 2.5383152.2773144 3.8651075 0 9.9411255-5.372583 18-12 18s-12-8.0588745-12-18c0-1.3267923.0957013-2.6200562.2773144-3.8651075-1.1279926.5574663-2.3283863 1.0481242-3.5902408 1.4581256-9.4545722 3.0719767-18.77923674.4526758-20.82722122-5.8503723s3.95624118-13.9030074 13.41081332-16.9749841c1.2618545-.4100014 2.5213949-.7186245 3.7616306-.9306422-.8787509-.9005182-1.7163363-1.8905388-2.4962053-2.9639364-5.84324694-8.0425394-6.23362357-17.7202309-.8719306-21.61572889 5.361693-3.89549797 14.4450915-.53365659 20.2883385 7.50888289.7798689 1.0733975 1.4626064 2.1759218 2.0475011 3.2899389.5848947-1.1140171 1.2676322-2.2165414 2.0475011-3.2899389 5.843247-8.04253948 14.9266455-11.40438086 20.2883385-7.50888289 5.361693 3.89549799 4.9713163 13.57318949-.8719306 21.61572889-.779869 1.0733976-1.6174544 2.0634182-2.4962053 2.9639364 1.2402357.2120177 2.4997761.5206408 3.7616306.9306422 9.4545721 3.0719767 15.4587978 10.671936 13.4108133 16.9749841s-11.372649 8.922349-20.8272212 5.8503723c-1.2618545-.4100014-2.4622482-.9006593-3.5902408-1.4581256z" fill="#77c19c"/><path id="Oval-8" d="m37 10c-1.6568542 0-3-1.34314575-3-3s1.3431458-3 3-3 3 1.34314575 3 3-1.3431458 3-3 3zm25.6785259 18.6565412c-.5119961-1.5757621.3503566-3.2682245 1.9261186-3.7802206s3.2682244.3503566 3.7802205 1.9261186c.5119962 1.575762-.3503565 3.2682244-1.9261185 3.7802205-1.5757621.5119961-3.2682244-.3503565-3.7802206-1.9261185zm-9.8083241 30.1869176c1.3404233-.9738744 3.2165323-.676728 4.1904068.6636953.9738744 1.3404232.676728 3.2165322-.6636953 4.1904067-1.3404232.9738745-3.2165322.676728-4.1904067-.6636952-.9738745-1.3404233-.676728-3.2165323.6636952-4.1904068zm-31.7404036 0c1.3404232.9738745 1.6375697 2.8499835.6636952 4.1904068-.9738745 1.3404232-2.8499835 1.6375697-4.1904067.6636952-1.3404233-.9738745-1.6375697-2.8499835-.6636953-4.1904067.9738745-1.3404233 2.8499835-1.6375697 4.1904068-.6636953zm-9.8083241-30.1869176c-.5119962 1.575762-2.20445854 2.4381146-3.78022057 1.9261185s-2.43811469-2.2044585-1.92611857-3.7802205 2.2044585-2.4381147 3.78022053-1.9261186c1.57576201.5119961 2.43811471 2.2044585 1.92611861 3.7802206z" fill="#ffc75e"/><path id="Combined-Shape" d="m34.9524989 13.7662371c.7798689 1.0733975 1.4626064 2.1759218 2.0475011 3.2899389.5848947-1.1140171 1.2676322-2.2165414 2.0475011-3.2899389 3.1280959-4.30545459 7.1847666-7.26949697 11.1019354-8.49682298 1.0864222 2.01233657 1.4847997 4.45228798.8505635 6.94111218-1.3333333 5.2321713-6 12.8286626-14 22.7894737-8-9.9608111-12.6666667-17.5573024-14-22.7894737-.6342375-2.48882926-.2358794-4.92878554.8505243-6.94112446 3.9171809 1.22731853 7.9738683 4.19136631 11.1019746 8.49683526zm23.5114079 14.1068491c-.779869 1.0733975-1.6174544 2.0634181-2.4962053 2.9639363 1.2402357.2120177 2.4997761.5206408 3.7616306.9306422 5.0613654 1.6445373 9.1339174 4.586721 11.5116455 7.9329053-1.5781229 1.6550951-3.7755491 2.7879611-6.3385514 2.9538556-5.3881133.3487545-14.0548851-1.7420644-26.0003154-6.2724566 7.0011584-10.686512 12.7837716-17.4722207 17.3478396-20.3571259 2.1710271-1.3722862 4.6146628-1.7474131 6.8642281-1.3360287.0432262 4.1047227-1.5221654 8.8788028-4.6502717 13.1842718zm-6.1509861 26.7199337c-1.2618545-.4100013-2.4622483-.9006592-3.5902408-1.4581255.181613 1.2450512.2773144 2.5383152.2773144 3.8651075 0 5.3218345-1.5396952 10.1042464-3.9873472 13.399628-2.0617558-.9894315-3.8182174-2.7292333-4.7680037-5.115529-1.9967038-5.0166292-2.6863967-13.9053175-2.0690786-26.666065 12.3269538 3.3561834 20.567472 6.7588761 24.7215544 10.2080779 1.9760061 1.6407098 3.087898 3.8488248 3.391802 6.1154133-3.8904656 1.3095397-8.9146183 1.2960356-13.9760005-.3485072zm-27.3129264 2.4069782c0-1.3267923.0957013-2.6200562.2773144-3.8651075-1.1279926.5574664-2.3283864 1.0481243-3.5902408 1.4581256-5.0613654 1.6445373-10.0855014 1.6580467-13.97596165.3485203.30388772-2.2665974 1.41576104-4.47472 3.39176305-6.1154264 4.1540825-3.4492018 12.3946006-6.8518945 24.7215545-10.208078.617318 12.7607475-.0723749 21.6494359-2.0690787 26.6660651-.9497882 2.3863006-2.7062369 4.1261177-4.7679792 5.115562-2.4476662-3.2953827-3.9873716-8.0778088-3.9873716-13.3996611zm-10.7293308-25.2323394c1.2618545-.4100014 2.5213949-.7186246 3.7616306-.9306423-.8787509-.9005181-1.7163363-1.8905388-2.4962053-2.9639363-3.1280958-4.3054546-4.6934874-9.0795172-4.6502721-13.1842307 2.2495687-.4114027 4.6932058-.0362957 6.8642285 1.3359877 4.564068 2.8849052 10.3466812 9.6706138 17.3478396 20.3571259-11.9454303 4.5303922-20.6122021 6.6212111-26.0003154 6.2724566-2.56300745-.1658949-4.76044437-1.2987439-6.33857519-2.9538222 2.37772475-3.3461981 6.45028706-6.2883959 11.51166929-7.9329387z" fill="#365a7c"/><path id="Combined-Shape" d="m39.1234111 55.2343392c-.8540203-1.1754581-1.5625434-2.3927274-2.1234111-3.6139732-.5608677 1.2212458-1.2693908 2.4385151-2.1234111 3.6139732-2.6598026 3.6609042-6.1414287 6.1049142-9.3780037 6.9168284-.3243757-1.6319794-.4985852-3.3610569-.4985852-5.1511676 0-1.3267923.0957013-2.6200562.2773144-3.8651075-1.1279926.5574663-2.3283863 1.0481242-3.5902408 1.4581256-1.7024964.5531746-3.4007805.9218059-5.0531228 1.1176156-.2279804-3.329061 1.0205296-7.3955248 3.6803322-11.0564291.8540203-1.175458 1.7927665-2.2254604 2.7809227-3.1362631-1.3347915-.1560311-2.7114291-.4537197-4.0932629-.9027048-4.303651-1.3983409-7.7039243-3.9543235-9.47625729-6.7815939 1.45186709-.8128091 3.04248379-1.5128065 4.74498019-2.0659811 1.2618545-.4100014 2.5213949-.7186245 3.7616306-.9306422-.8787509-.9005182-1.7163363-1.8905388-2.4962053-2.9639364-1.0522006-1.4482299-1.9275885-2.9494808-2.6244164-4.4604432 3.0956753-1.2455586 7.3489231-1.3147614 11.6525741.0835795 1.3818338.4489851 2.670534 1.0173172 3.8421158 1.6756561-.2640788-1.3176785-.4063645-2.7189294-.4063645-4.1718755 0-4.5251265 1.3801417-8.5488206 3.5213546-11.10808403 1.2216789 1.12963583 2.3789436 2.42609113 3.4311443 3.87432113.7798689 1.0733975 1.4626064 2.1759218 2.0475011 3.2899389.5848947-1.1140171 1.2676322-2.2165414 2.0475011-3.2899389 1.0522007-1.44823 2.2094654-2.7446853 3.4311443-3.87432113 2.1412129 2.55926343 3.5213546 6.58295753 3.5213546 11.10808403 0 1.4529461-.1422857 2.854197-.4063645 4.1718755 1.1715818-.6583389 2.460282-1.226671 3.8421158-1.6756561 4.303651-1.3983409 8.5568988-1.3291381 11.6525741-.0835795-.6968279 1.5109624-1.5722158 3.0122133-2.6244164 4.4604432-.779869 1.0733976-1.6174544 2.0634182-2.4962053 2.9639364 1.2402357.2120177 2.4997761.5206408 3.7616306.9306422 1.7024964.5531746 3.2931131 1.253172 4.7449802 2.0659811-1.772333 2.8272704-5.1726063 5.383253-9.4762573 6.7815939-1.3818338.4489851-2.7584714.7466737-4.0932629.9027048.9881562.9108027 1.9269024 1.9608051 2.7809227 3.1362631 2.6598026 3.6609043 3.9083126 7.7273681 3.6803322 11.0564291-1.6523423-.1958097-3.3506264-.564441-5.0531228-1.1176156-1.2618545-.4100014-2.4622482-.9006593-3.5902408-1.4581256.1816131 1.2450513.2773144 2.5383152.2773144 3.8651075 0 1.7901107-.1742095 3.5191882-.4985852 5.1511676-3.236575-.8119142-6.7182011-3.2559242-9.3780037-6.9168284z" fill="#feefd0"/><path id="Oval-55" d="m34.3367087 33.334294c-.8202915-1.9228648-1.3367087-4.7202713-1.3367087-7.834294 0-5.7989899 1.790861-10.5 4-10.5s4 4.7010101 4 10.5c0 3.1140227-.5164172 5.9114292-1.3367087 7.834294 1.5752691-1.3743414 4.076179-2.7299296 7.0377907-3.6922155 5.5151671-1.7919864 10.5394999-1.5414684 11.2221614.5595476.6826615 2.1010161-3.2348584 5.2569181-8.7500255 7.0489045-2.9616116.962286-5.781685 1.3355901-7.863922 1.1496445 1.7938612 1.0734751 3.8559258 3.033082 5.6863025 5.5523793 3.4085607 4.6914814 4.7229081 9.5473202 2.9356772 10.8458195-1.787231 1.2984993-5.9992525-1.4520561-9.4078132-6.1435375-1.8303766-2.5192973-3.0568606-5.0859891-3.5234624-7.1237746-.4666018 2.0377855-1.6930858 4.6044773-3.5234624 7.1237746-3.4085607 4.6914814-7.6205822 7.4420368-9.4078132 6.1435375-1.7872309-1.2984993-.4728835-6.1543381 2.9356772-10.8458195 1.8303767-2.5192973 3.8924413-4.4789042 5.6863025-5.5523793-2.082237.1859456-4.9023104-.1873585-7.863922-1.1496445-5.5151671-1.7919864-9.432687-4.9478884-8.7500255-7.0489045.6826615-2.101016 5.7069943-2.351534 11.2221614-.5595476 2.9616117.9622859 5.4625216 2.3178741 7.0377907 3.6922155zm1.7262916 2.3760365c.0872243.3443656.0856578.6737624-.0140568.9806525-.0997147.3068901-.2920619.5742985-.5650409.8016269.3544649.0234595.6672558.1267386.9283121.3164071.2610564.1896685.4559383.4552354.5877853.7851021.131847-.3298667.3267289-.5954336.5877853-.7851021.2610563-.1896685.5738472-.2929476.9283121-.3164071-.272979-.2273284-.4653262-.4947368-.5650409-.8016269-.0997146-.3068901-.1012811-.6362869-.0140568-.9806525-.3005572.1893701-.6143163.2896695-.9369997.2896695s-.6364425-.1002994-.9369997-.2896695z" fill="#ffc75e"/><path id="Oval-56" d="m40.725099 42.1271589c.1774606.7350927.274901 1.5354757.274901 2.3728411 0 3.5898509-1.790861 6.5-4 6.5s-4-2.9101491-4-6.5c0-.8373654.0974404-1.6377484.274901-2.3728411-.6442763.3959312-1.375375.7359345-2.1717569.9946946-3.4141511 1.109325-6.7352738.3054005-7.4179353-1.7956156-.6826615-2.101016 1.5316483-4.7035116 4.9457994-5.8128365.7963818-.2587602 1.587702-.4134208 2.341655-.4718018-.5756452-.4903938-1.1249295-1.0806432-1.6171206-1.758086-2.1100614-2.9042504-2.3717671-6.3112522-.5845361-7.6097515s4.9466107.0032191 7.0566721 2.9074694c.492191.6774429.8838134 1.3822404 1.1723214 2.0812515.288508-.6990111.6801304-1.4038086 1.1723214-2.0812515 2.1100614-2.9042503 5.2694411-4.2059687 7.0566721-2.9074694s1.5255253 4.7055011-.5845361 7.6097515c-.4921911.6774428-1.0414754 1.2676922-1.6171206 1.758086.753953.058381 1.5452732.2130416 2.341655.4718018 3.4141511 1.1093249 5.6284609 3.7118205 4.9457994 5.8128365-.6826615 2.1010161-4.0037842 2.9049406-7.4179353 1.7956156-.7963819-.2587601-1.5274806-.5987634-2.1717569-.9946946z" fill="#365a7c"/><path id="Combined-Shape" d="m33.0038028 25.9620155c1.0053407.585824 1.9954747 1.4790198 2.8238758 2.619216.492191.6774429.8838134 1.3822404 1.1723214 2.0812515.288508-.6990111.6801304-1.4038086 1.1723214-2.0812515.8284011-1.1401962 1.8185351-2.033392 2.8238758-2.619216-.0482946 2.9279864-.5533944 5.545007-1.3329059 7.3722785 1.4969561-1.3060174 3.8298063-2.5950998 6.5995629-3.5458281-.2464843 1.1371653-.7899958 2.3548514-1.6183968 3.4950477-.4921911.6774428-1.0414754 1.2676922-1.6171206 1.758086.753953.058381 1.5452732.2130416 2.341655.4718018 1.3403811.4355162 2.495829 1.1011769 3.3636481 1.8762832-2.7996043.8588667-5.4446233 1.187192-7.423344 1.0104905 1.7046812 1.0201083 3.6515617 2.8404323 5.41166 5.1808362-1.1576764.1169829-2.4837189-.0236416-3.8241-.4591578-.7963819-.2587601-1.5274806-.5987634-2.1717569-.9946946.1774606.7350927.274901 1.5354757.274901 2.3728411 0 1.4093601-.2760279 2.7139568-.7450269 3.7788228-1.6819561-2.3971775-2.8115679-4.811282-3.2549731-6.747761-.4434052 1.936479-1.573017 4.3505835-3.2549731 6.747761-.468999-1.064866-.7450269-2.3694627-.7450269-3.7788228 0-.8373654.0974404-1.6377484.274901-2.3728411-.6442763.3959312-1.375375.7359345-2.1717569.9946946-1.3403811.4355162-2.6664236.5761407-3.8241.4591578 1.7600983-2.3404039 3.7069788-4.1607279 5.41166-5.1808362-1.9787207.1767015-4.6237397-.1516238-7.423344-1.0104905.8678191-.7751063 2.023267-1.440767 3.3636481-1.8762832.7963818-.2587602 1.587702-.4134208 2.341655-.4718018-.5756452-.4903938-1.1249295-1.0806432-1.6171206-1.758086-.828401-1.1401963-1.3719125-2.3578824-1.6183968-3.4950477 2.7697566.9507283 5.1026068 2.2398107 6.5995629 3.5458281-.7795115-1.8272715-1.2846113-4.4442921-1.3329059-7.3722785z" fill="#a06497"/><circle id="Oval-57" cx="37" cy="37" fill="#feefd0" r="4"/></g><g id="slices" transform="translate(80 79)"/></g></g></svg>