<svg width="100%" height="100%" viewBox="0 0 128 128" fill="none" xmlns="http://www.w3.org/2000/svg">
<path fill-rule="evenodd" clip-rule="evenodd" d="M70.4646 94.0205L43.3051 62.3577C43.0598 62.0829 42.7533 61.9302 42.3854 61.9302C42.0176 61.9608 41.711 62.0829 41.4965 62.3882L26.1387 81.4409C25.8628 81.7768 25.8015 82.2348 26.0161 82.6622C26.2 83.0897 26.5985 83.3339 27.0583 83.3339H34.8139C35.1817 83.3339 35.4882 83.1813 35.7335 82.9065L41.8337 75.4259C42.0482 75.1511 42.3241 74.9984 42.692 74.9679C43.0292 74.9679 43.3357 75.09 43.5809 75.3343L49.4665 81.502C49.8651 81.9294 49.8957 82.5401 49.5279 82.9981L41.098 93.9595C40.8527 94.2648 40.5462 94.4175 40.1783 94.4175H5.17127C4.71146 94.4175 4.34361 94.1732 4.12903 93.7763C3.91445 93.3793 3.97576 92.9213 4.25165 92.555L40.914 45.5339C41.1593 45.2591 41.4658 45.1065 41.8337 45.1065C42.1709 45.0759 42.5081 45.2286 42.7533 45.5034L74.8482 82.9065C75.0934 83.1813 75.4 83.3339 75.7372 83.3339H99.157C99.6474 83.3339 100.046 83.0591 100.23 82.6622C100.414 82.2348 100.352 81.7768 100.077 81.4104L75.8291 52.5566C75.5839 52.2818 75.2774 52.1291 74.9095 52.1291C74.5417 52.1291 74.2351 52.2818 74.0205 52.5566L67.951 60.0982C67.7058 60.373 67.4299 60.5257 67.062 60.5257C66.6942 60.5257 66.3876 60.4036 66.1731 60.1593L60.0729 53.442C59.6744 53.0145 59.6437 52.3428 60.0116 51.9154L73.7753 35.4275C74.0205 35.1527 74.3271 35 74.6643 35C75.0321 35 75.3387 35.1527 75.5839 35.4275L123.742 92.5244C124.017 92.8603 124.079 93.3488 123.895 93.7457C123.711 94.1732 123.312 94.4175 122.822 94.4175H71.3536C71.0164 94.4175 70.7099 94.2953 70.4646 94.0205Z" fill="black"/>
</svg>
