<?xml version="1.0" encoding="UTF-8"?>
<!DOCTYPE svg PUBLIC "-//W3C//DTD SVG 1.1//EN" "http://www.w3.org/Graphics/SVG/1.1/DTD/svg11.dtd">
<svg xmlns="http://www.w3.org/2000/svg" xml:space="preserve" width="100%" height="100%" version="1.1" style="shape-rendering:geometricPrecision; text-rendering:geometricPrecision; image-rendering:optimizeQuality; fill-rule:evenodd; clip-rule:evenodd"
viewBox="0 0 2554 1270"
 xmlns:xlink="http://www.w3.org/1999/xlink">
 <defs>
  <style type="text/css">
   <![CDATA[
    .fil0 {fill:#312E81}
   ]]>
  </style>
 </defs>
 <g id="Layer_x0020_1">
  <path class="fil0" d="M1415 1261l-579 -677c-5,-5 -11,-8 -19,-8 -8,0 -14,3 -19,9l-327 407c-6,8 -7,18 -3,27 4,8 13,14 23,14l165 0c8,0 14,-3 19,-9l130 -160c5,-6 11,-9 18,-10 8,0 14,3 19,8l125 132c9,9 10,22 2,32l-180 234c-4,7 -11,10 -19,10l-745 0c-10,0 -18,-5 -22,-14 -5,-9 -4,-18 2,-26l781 -1005c5,-6 11,-9 19,-9 8,0 14,3 19,9l684 799c5,6 11,9 19,9l499 0c10,0 18,-6 22,-15 4,-9 3,-19 -3,-26l-516 -617c-5,-6 -12,-9 -20,-9 -7,0 -14,3 -19,9l-129 161c-5,6 -11,9 -19,10 -7,0 -14,-3 -19,-9l-130 -143c-8,-9 -9,-23 -1,-33l293 -352c5,-6 12,-9 19,-9 8,0 14,3 19,9l1025 1220c7,8 8,18 4,27 -4,9 -13,14 -23,14l-1095 0c-8,0 -14,-3 -19,-9z"/>
 </g>
</svg>
