<?xml version="1.0" encoding="UTF-8"?>
<!DOCTYPE svg PUBLIC "-//W3C//DTD SVG 1.1//EN" "http://www.w3.org/Graphics/SVG/1.1/DTD/svg11.dtd">
<!-- Creator: KANILEBETTU TECHNOLOGIES -->
<svg xmlns="http://www.w3.org/2000/svg" xml:space="preserve"  version="1.1" style="shape-rendering:geometricPrecision; text-rendering:geometricPrecision; image-rendering:optimizeQuality; fill-rule:evenodd; clip-rule:evenodd"
viewBox="0 0 51400 7000"
 xmlns:xlink="http://www.w3.org/1999/xlink">
 <defs>
  <style type="text/css">
   <![CDATA[
    .fil0 {fill:none}
    .fil2 {fill:#1E6FC1}
    .fil1 {fill:#1E6FC1;fill-rule:nonzero}
   ]]>
  </style>
 </defs>
 <g id="Layer_x0020_1">
  <metadata id="kanilebettu_technologies"/>
  <rect class="fil0" />
  <g id="_2023171517632">
   <path class="fil1" d="M47443 6114l243 0c82,0 150,-67 150,-150l0 -741c0,-41 14,-76 43,-105l577 -582c31,-32 71,-47 116,-44 45,2 82,22 109,58l1156 1505c29,39 71,59 119,59l273 0c58,0 108,-31 134,-83 26,-53 21,-111 -15,-158l-1319 -1737c-45,-60 -40,-142 12,-196l1192 -1219c43,-44 54,-106 31,-163 -24,-57 -77,-92 -139,-92l-257 0c-42,0 -79,16 -108,47l-1666 1737c-43,45 -106,59 -164,36 -58,-24 -94,-77 -94,-140l0 -3032c0,-83 -68,-150 -150,-150l-243 0c-83,0 -150,67 -150,150l0 4850c0,83 67,150 150,150z"/>
   <path class="fil1" d="M44880 6114c726,0 1298,-402 1298,-1094l0 -14c0,-656 -607,-875 -1171,-1044 -487,-148 -939,-282 -939,-628l0 -14c0,-303 275,-529 706,-529 310,0 647,104 955,277 70,40 160,17 202,-53l92 -153c22,-36 28,-75 17,-115 -11,-41 -35,-72 -71,-93 -354,-200 -787,-322 -1181,-322 -720,0 -1242,417 -1242,1045l0 14c0,670 635,867 1207,1030 479,134 910,275 910,642l0 14c0,353 -318,578 -755,578 -388,0 -781,-137 -1144,-381 -67,-45 -159,-28 -206,38l-104 147c-24,34 -33,72 -25,112 7,41 27,74 61,98 398,277 917,445 1390,445z"/>
   <path class="fil1" d="M39745 3808c133,-611 583,-1045 1155,-1045 655,0 1029,466 1139,1049 9,46 -2,88 -32,124 -29,36 -69,54 -115,54l-2001 0c-47,0 -87,-19 -117,-56 -29,-36 -39,-80 -29,-126zm145 620l2575 0c82,0 149,-67 150,-149 0,-15 0,-28 0,-42 0,-1072 -621,-1933 -1701,-1933 -1009,0 -1749,847 -1749,1905 0,1136 818,1905 1820,1905 624,0 1047,-224 1394,-569 30,-30 45,-68 44,-110 -1,-43 -18,-80 -50,-108l-119 -107c-58,-51 -145,-51 -202,2 -276,256 -606,419 -1053,419 -590,0 -1114,-375 -1256,-1032 -9,-45 1,-89 30,-125 30,-37 70,-56 117,-56z"/>
   <path class="fil1" d="M36229 5627c-691,0 -1284,-550 -1284,-1411l0 -14c0,-882 579,-1404 1284,-1404 678,0 1320,564 1320,1404l0 14c0,840 -642,1411 -1320,1411zm-98 487c497,0 863,-206 1139,-491 43,-45 106,-58 164,-35 58,24 94,77 94,139l0 159c0,83 67,150 150,150l243 0c83,0 150,-67 150,-150l0 -4850c0,-83 -67,-150 -150,-150l-243 0c-83,0 -150,67 -150,150l0 1637c0,62 -35,115 -92,139 -57,24 -120,12 -164,-32 -272,-269 -641,-469 -1141,-469 -875,0 -1743,706 -1743,1898l0 14c0,1200 868,1891 1743,1891z"/>
   <path class="fil1" d="M31615 5627c-769,0 -1347,-635 -1347,-1418l0 -14c0,-769 543,-1411 1333,-1411 769,0 1355,642 1355,1425l0 14c0,769 -551,1404 -1341,1404zm-14 487c1101,0 1912,-875 1912,-1905l0 -14c0,-1030 -804,-1891 -1898,-1891 -1101,0 -1905,875 -1905,1905l0 14c0,1030 797,1891 1891,1891z"/>
   <path class="fil1" d="M27551 6114c620,0 1038,-243 1384,-593 29,-30 44,-67 43,-109 -1,-42 -17,-77 -47,-106l-130 -122c-58,-55 -149,-54 -206,1 -272,258 -602,442 -1016,442 -762,0 -1340,-628 -1340,-1418l0 -14c0,-783 564,-1411 1305,-1411 434,0 738,191 1001,443 30,29 66,43 108,42 41,-1 77,-17 105,-47l154 -163c57,-60 54,-155 -5,-212 -323,-309 -734,-543 -1356,-543 -1065,0 -1870,875 -1870,1905l0 14c0,1023 805,1891 1870,1891z"/>
   <path class="fil1" d="M23249 6114l243 0c83,0 150,-67 150,-150l0 -1303c0,-1055 597,-1624 1348,-1670 79,-4 141,-70 141,-149l0 -288c0,-43 -16,-80 -47,-109 -32,-29 -70,-43 -113,-40 -436,28 -800,247 -1062,572 -40,51 -105,69 -167,47 -61,-21 -100,-76 -100,-141l0 -267c0,-82 -67,-150 -150,-150l-243 0c-83,0 -150,68 -150,150l0 3348c0,83 67,150 150,150z"/>
   <path class="fil1" d="M19171 3808c133,-611 583,-1045 1155,-1045 655,0 1029,466 1139,1049 9,46 -2,88 -32,124 -29,36 -69,54 -115,54l-2001 0c-47,0 -87,-19 -117,-56 -29,-36 -39,-80 -29,-126zm145 620l2575 0c82,0 149,-67 150,-149 0,-15 0,-28 0,-42 0,-1072 -621,-1933 -1701,-1933 -1009,0 -1749,847 -1749,1905 0,1136 818,1905 1820,1905 624,0 1047,-224 1394,-569 30,-30 45,-68 44,-110 -1,-43 -18,-80 -50,-108l-119 -107c-58,-51 -145,-51 -202,2 -276,256 -606,419 -1053,419 -590,0 -1114,-375 -1256,-1032 -9,-45 1,-89 30,-125 30,-37 70,-56 117,-56z"/>
   <path class="fil1" d="M12828 6114l243 0c83,0 150,-67 150,-150l0 -3357c0,-67 42,-124 106,-143 64,-20 131,3 168,58l1526 2237 28 0 1525 -2242c37,-56 104,-79 168,-59 64,19 106,76 106,143l0 3363c0,83 67,150 150,150l257 0c83,0 150,-67 150,-150l0 -4639c0,-82 -67,-150 -150,-150l-334 0c-52,0 -96,24 -125,67l-1630 2442c-28,43 -73,66 -124,66 -52,0 -96,-23 -125,-66l-1630 -2442c-29,-43 -73,-67 -125,-67l-334 0c-83,0 -150,68 -150,150l0 4639c0,83 67,150 150,150z"/>
  </g>
  <g id="_2023171522528">
   <g id="mercodesk_icon">
    <path class="fil2" d="M6591 6065l-2278 -2664c-19,-24 -46,-35 -76,-35 -30,1 -56,13 -75,37l-1286 1603c-24,30 -28,69 -12,104 17,35 50,55 88,55l651 0c31,0 57,-12 76,-36l511 -629c18,-23 43,-35 72,-36 29,-2 55,9 75,30l493 518c33,35 36,89 6,127l-707 922c-19,25 -46,38 -78,38l-2932 0c-38,0 -71,-20 -88,-54 -17,-35 -13,-73 11,-103l3073 -3955c19,-24 45,-37 75,-38 30,-1 57,11 77,34l2691 3148c20,23 46,34 75,34l1963 0c39,0 72,-21 89,-56 17,-35 11,-75 -14,-104l-2031 -2429c-20,-24 -46,-36 -77,-36 -30,1 -56,13 -75,37l-509 634c-19,23 -44,36 -74,37 -29,0 -55,-11 -75,-33l-511 -565c-33,-36 -35,-91 -3,-128l1152 -1387c19,-23 45,-36 75,-36 31,0 56,12 76,35l4036 4805c25,30 30,69 13,104 -16,35 -50,56 -88,56l-4314 0c-29,0 -55,-11 -75,-34z"/>
   </g>
  </g>
 </g>
</svg>
