<?xml version="1.0" encoding="UTF-8"?>
<!DOCTYPE svg PUBLIC "-//W3C//DTD SVG 1.1//EN" "http://www.w3.org/Graphics/SVG/1.1/DTD/svg11.dtd">
<svg xmlns="http://www.w3.org/2000/svg" xml:space="preserve" width="183.755mm" height="18.5207mm" version="1.1" style="shape-rendering:geometricPrecision; text-rendering:geometricPrecision; image-rendering:optimizeQuality; fill-rule:evenodd; clip-rule:evenodd"
viewBox="0 0 19311 1946"
 xmlns:xlink="http://www.w3.org/1999/xlink">
 <defs>
  <style type="text/css">
   <![CDATA[
    .fil1 {fill:#002AA9}
    .fil0 {fill:#002AA9;fill-rule:nonzero}
   ]]>
  </style>
 </defs>
 <g id="Layer_x0020_1">  
  <g id="_2314043997056">
   <path class="fil0" d="M18204 1645l153 0c23,0 42,-19 42,-42l0 -331c0,-11 4,-21 12,-29l163 -168c9,-9 20,-13 33,-12 12,0 23,6 30,16l417 550c9,10 20,16 34,16l181 0c16,0 30,-8 37,-23 7,-15 6,-31 -4,-44l-511 -670c-12,-17 -11,-40 3,-55l466 -481c11,-12 15,-30 8,-45 -7,-16 -21,-26 -39,-26l-173 0c-12,0 -22,5 -30,13l-555 587c-12,12 -30,16 -46,10 -16,-7 -26,-22 -26,-39l0 -529c0,-23 -19,-42 -42,-42l-153 0c-23,0 -41,19 -41,42l0 1260c0,23 18,42 41,42z"/>
   <path class="fil0" d="M17116 1664c282,0 480,-149 480,-401l0 -4c0,-222 -148,-324 -432,-393 -257,-62 -319,-108 -319,-212l0 -3c0,-89 81,-160 219,-160 112,0 222,40 332,115 18,12 44,8 57,-11l79 -111c14,-19 9,-45 -9,-58 -129,-94 -275,-144 -455,-144 -267,0 -459,159 -459,390l0 4c0,247 161,332 448,401 249,57 303,109 303,205l0 4c0,102 -92,169 -238,169 -154,0 -275,-53 -393,-148 -18,-15 -44,-12 -58,5l-89 106c-7,8 -11,19 -9,30 1,12 6,22 15,29 154,125 336,187 528,187z"/>
   <path class="fil0" d="M15113 1645l922 0c23,0 42,-19 42,-42l0 -127c0,-23 -19,-42 -42,-42l-686 0c-23,0 -42,-19 -42,-42l0 -277c0,-23 19,-42 42,-42l590 0c23,0 42,-19 42,-42l0 -127c0,-23 -19,-42 -42,-42l-590 0c-23,0 -42,-19 -42,-42l0 -266c0,-23 19,-42 42,-42l677 0c23,0 42,-18 42,-42l0 -127c0,-23 -19,-42 -42,-42l-913 0c-23,0 -42,19 -42,42l0 1260c0,23 19,42 42,42z"/>
   <path class="fil0" d="M13518 1388l0 -830c0,-23 18,-42 41,-42l224 0c282,0 466,194 466,457l0 4c0,263 -184,453 -466,453l-224 0c-23,0 -41,-19 -41,-42zm-195 257l460 0c422,0 714,-294 714,-672l0 -4c0,-378 -292,-668 -714,-668l-460 0c-23,0 -42,19 -42,42l0 1260c0,23 19,42 42,42z"/>
   <path class="fil0" d="M12006 1451c-267,0 -457,-217 -457,-478l0 -4c0,-261 187,-474 454,-474 266,0 457,217 457,478l0 4c0,261 -187,474 -454,474zm-3 217c412,0 704,-317 704,-695l0 -4c0,-378 -288,-691 -701,-691 -412,0 -704,317 -704,695l0 4c0,378 288,691 701,691z"/>
   <path class="fil0" d="M10319 1668c233,0 383,-79 515,-208 8,-8 13,-18 13,-29 0,-12 -4,-22 -12,-30l-95 -96c-15,-16 -40,-17 -57,-2 -104,92 -206,148 -357,148 -257,0 -443,-215 -443,-478l0 -4c0,-263 186,-474 443,-474 139,0 247,55 346,139 17,15 43,13 58,-4l98 -112c15,-17 13,-44 -4,-59 -122,-108 -268,-181 -496,-181 -407,0 -693,313 -693,695l0 4c0,386 292,691 684,691z"/>
   <path class="fil0" d="M8254 926l0 -368c0,-23 19,-42 42,-42l302 0c175,0 278,79 278,223l0 4c0,136 -107,224 -276,224l-304 0c-23,0 -42,-18 -42,-41zm-194 719l152 0c23,0 42,-19 42,-42l0 -384c0,-23 19,-42 42,-42l232 0c14,0 26,6 35,17l305 433c8,12 20,18 34,18l175 0c17,0 30,-8 38,-22 7,-15 6,-31 -3,-44l-283 -397c-8,-10 -10,-23 -6,-36 3,-13 12,-22 25,-27 160,-62 268,-190 268,-390l0 -4c0,-117 -40,-217 -111,-289 -86,-85 -219,-135 -388,-135l-557 0c-23,0 -42,19 -42,42l0 1260c0,23 19,42 42,42z"/>
   <path class="fil0" d="M6485 1645l923 0c23,0 42,-19 42,-42l0 -127c0,-23 -19,-42 -42,-42l-686 0c-23,0 -42,-19 -42,-42l0 -277c0,-23 19,-42 42,-42l590 0c23,0 42,-19 42,-42l0 -127c0,-23 -19,-42 -42,-42l-590 0c-23,0 -42,-19 -42,-42l0 -266c0,-23 19,-42 42,-42l676 0c23,0 42,-18 42,-42l0 -127c0,-23 -19,-42 -42,-42l-913 0c-23,0 -41,19 -41,42l0 1260c0,23 18,42 41,42z"/>
   <path class="fil0" d="M4531 1645l148 0c23,0 42,-19 42,-42l0 -780c0,-18 12,-34 30,-40 18,-5 36,1 47,17l344 515 7 0 348 -519c10,-16 29,-22 47,-17 18,5 30,21 30,40l0 784c0,23 18,42 42,42l152 0c23,0 42,-19 42,-42l0 -1260c0,-23 -19,-42 -42,-42l-187 0c-14,0 -27,7 -35,19l-361 562c-8,12 -21,19 -36,19 -14,0 -27,-7 -35,-19l-361 -562c-8,-12 -21,-19 -36,-19l-186 0c-23,0 -42,19 -42,42l0 1260c0,23 19,42 42,42z"/>
  </g>
  <path class="fil1" d="M2168 1933l-886 -1037c-8,-9 -18,-14 -30,-14 -12,1 -22,5 -29,15l-501 624c-9,11 -11,26 -4,40 6,14 19,22 34,22l253 0c12,0 22,-5 30,-14l199 -245c7,-9 16,-14 28,-15 11,0 21,4 29,12l192 202c13,14 14,34 2,49l-275 359c-8,10 -18,15 -30,15l-1142 0c-15,0 -27,-8 -34,-21 -7,-13 -5,-28 4,-40l1196 -1540c8,-9 18,-14 30,-14 11,-1 22,4 30,13l1047 1225c8,9 18,14 29,14l764 0c16,0 29,-9 35,-22 6,-14 4,-29 -5,-41l-791 -945c-8,-9 -18,-14 -30,-14 -12,0 -22,5 -29,14l-198 247c-8,9 -17,14 -29,14 -12,0 -22,-4 -29,-12l-199 -220c-13,-14 -14,-36 -2,-50l449 -540c8,-9 18,-14 29,-14 12,0 22,5 30,14l1571 1870c9,11 11,27 5,40 -6,14 -19,22 -35,22l-1679 0c-11,0 -21,-4 -29,-13z"/>
 </g>
</svg>
