<?xml version="1.0" encoding="UTF-8"?>
<!DOCTYPE svg PUBLIC "-//W3C//DTD SVG 1.1//EN" "http://www.w3.org/Graphics/SVG/1.1/DTD/svg11.dtd">
<svg xmlns="http://www.w3.org/2000/svg" xml:space="preserve" width="297mm" height="297mm" version="1.1" style="shape-rendering:geometricPrecision; text-rendering:geometricPrecision; image-rendering:optimizeQuality; fill-rule:evenodd; clip-rule:evenodd"
viewBox="0 0 29700 29700"
 xmlns:xlink="http://www.w3.org/1999/xlink">
 <defs>
  <style type="text/css">
   <![CDATA[
    .fil0 {fill:#312E81}
   ]]>
  </style>
 </defs>
 <g id="mercodesk_icon">
  <path class="fil0" d="M15956 19881l-4648 -5437c-40,-47 -94,-71 -156,-70 -61,1 -114,27 -152,75l-2625 3271c-49,61 -58,141 -24,212 34,71 102,113 180,113l1327 0c63,0 116,-26 155,-74l1043 -1284c37,-47 88,-72 147,-74 60,-3 112,19 153,62l1006 1057c68,72 74,181 13,260l-1443 1881c-39,51 -95,78 -159,78l-5983 0c-78,0 -145,-41 -179,-112 -35,-70 -27,-149 21,-210l6271 -8070c38,-49 91,-75 153,-77 62,-1 117,23 157,70l5492 6423c40,46 92,70 152,70l4006 0c79,0 147,-43 181,-115 34,-72 23,-152 -28,-213l-4145 -4956c-40,-48 -94,-73 -156,-72 -62,1 -115,26 -154,75l-1039 1293c-38,47 -89,73 -150,75 -60,1 -113,-21 -154,-66l-1043 -1153c-67,-74 -70,-185 -6,-262l2352 -2830c39,-47 92,-72 153,-72 62,0 114,24 154,71l8235 9803c51,61 62,141 28,213 -34,72 -102,115 -181,115l-8802 0c-60,0 -112,-24 -152,-70z"/>
 </g>
</svg>
