<?xml version="1.0" encoding="UTF-8"?>
<!DOCTYPE svg PUBLIC "-//W3C//DTD SVG 1.1//EN" "http://www.w3.org/Graphics/SVG/1.1/DTD/svg11.dtd">
<!-- Creator: KANILEBETTU TECHNOLOGIES -->
<svg xmlns="http://www.w3.org/2000/svg" xml:space="preserve"  version="1.1" style="shape-rendering:geometricPrecision; text-rendering:geometricPrecision; image-rendering:optimizeQuality; fill-rule:evenodd; clip-rule:evenodd"
viewBox="0 0 52800 7000"
 xmlns:xlink="http://www.w3.org/1999/xlink">
 <defs>
  <style type="text/css">
   <![CDATA[
    .fil0 {fill:none}
    .fil1 {fill:#FF7D00}
    .fil2 {fill:#554E45;fill-rule:nonzero}
   ]]>
  </style>
 </defs>
 <g id="Layer_x0020_1">
  <metadata id="kanilebettu_technologies"/>
  <rect class="fil0" width="52800" height="7000"/>
  <g id="_2109863841008">
   <g id="mercotrace_icon">
    <path class="fil1" d="M6588 5966l-2278 -2665c-20,-23 -46,-35 -77,-34 -30,0 -56,13 -74,36l-1287 1604c-24,29 -28,69 -12,103 17,35 50,56 89,56l650 0c31,0 57,-13 76,-36l511 -630c18,-23 43,-35 72,-36 30,-1 55,9 75,30l493 518c34,36 36,89 7,128l-708 922c-19,25 -46,38 -78,38l-2932 0c-38,0 -71,-20 -88,-55 -17,-34 -13,-73 11,-103l3073 -3955c19,-24 45,-37 75,-38 31,0 57,12 77,35l2692 3148c19,22 45,34 74,34l1964 0c38,0 72,-21 88,-56 17,-36 12,-75 -13,-105l-2032 -2429c-20,-23 -46,-36 -76,-35 -31,0 -57,13 -76,37l-509 633c-19,23 -44,36 -74,37 -29,1 -55,-10 -75,-32l-511 -565c-33,-37 -35,-91 -3,-129l1153 -1387c19,-23 45,-35 75,-35 30,0 55,12 75,35l4036 4804c25,30 30,69 14,105 -17,35 -50,56 -89,56l-4314 0c-29,0 -55,-12 -74,-34z"/>
   </g>
  </g>
  <g id="_2109863166080">
   <path class="fil2" d="M48913 3664c134,-612 583,-1046 1156,-1046 654,0 1028,467 1139,1050 8,45 -3,88 -32,123 -30,36 -70,55 -116,55l-2000 0c-47,0 -88,-20 -117,-56 -30,-37 -40,-80 -30,-126zm145 619l2575 0c82,0 149,-66 150,-148 0,-15 0,-29 0,-42 0,-1073 -621,-1934 -1700,-1934 -1009,0 -1750,847 -1750,1905 0,1136 818,1905 1820,1905 625,0 1048,-224 1394,-569 30,-30 45,-67 44,-110 -1,-43 -18,-79 -50,-108l-118 -106c-58,-52 -146,-51 -203,1 -276,256 -605,420 -1053,420 -589,0 -1113,-375 -1255,-1032 -10,-46 0,-90 30,-126 29,-37 70,-56 116,-56z"/>
   <path class="fil2" d="M46174 5969c620,0 1038,-243 1383,-593 30,-30 44,-66 44,-108 -1,-42 -17,-78 -48,-107l-129 -122c-59,-54 -149,-54 -207,1 -271,259 -601,443 -1015,443 -762,0 -1340,-628 -1340,-1419l0 -14c0,-783 564,-1411 1305,-1411 434,0 738,191 1001,443 30,29 66,43 108,42 41,-1 76,-17 105,-47l154 -163c56,-60 54,-155 -5,-211 -323,-309 -734,-544 -1356,-544 -1065,0 -1870,875 -1870,1905l0 15c0,1023 805,1890 1870,1890z"/>
   <path class="fil2" d="M41531 5532c-493,0 -917,-268 -917,-727l0 -14c0,-437 388,-734 1066,-734 385,0 701,59 953,125 67,17 112,76 112,145l0 224c0,579 -543,981 -1214,981zm-105 437c466,0 814,-156 1066,-366 46,-38 106,-46 160,-21 54,26 86,77 86,136l0 24c0,82 67,150 150,150l236 0c83,0 150,-68 150,-150l0 -2080c0,-465 -127,-818 -381,-1072 -261,-261 -663,-402 -1178,-402 -478,0 -839,101 -1196,253 -74,31 -110,114 -82,189l59 163c15,40 42,69 80,86 39,17 79,17 118,1 293,-120 595,-198 964,-198 652,0 1041,306 1077,896 3,49 -15,92 -53,124 -38,32 -84,42 -132,31 -266,-64 -550,-106 -927,-106 -924,0 -1559,409 -1559,1192l0 15c0,747 677,1135 1362,1135z"/>
   <path class="fil2" d="M37702 5969l243 0c83,0 150,-67 150,-150l0 -1303c0,-1055 597,-1624 1348,-1669 79,-5 141,-70 141,-150l0 -287c0,-43 -16,-80 -47,-110 -32,-29 -70,-43 -113,-40 -436,28 -800,247 -1062,572 -40,51 -105,69 -167,48 -61,-22 -100,-77 -100,-142l0 -266c0,-83 -67,-150 -150,-150l-243 0c-82,0 -150,67 -150,150l0 3347c0,83 68,150 150,150z"/>
   <path class="fil2" d="M35816 5969c221,0 401,-40 566,-112 56,-24 91,-76 91,-137l0 -150c0,-49 -22,-92 -61,-121 -40,-29 -87,-37 -134,-22 -111,34 -217,49 -335,49 -366,0 -613,-163 -613,-607l0 -1981c0,-83 67,-150 150,-150l857 0c82,0 150,-67 150,-150l0 -180c0,-82 -68,-150 -150,-150l-857 0c-83,0 -150,-67 -150,-150l0 -800c0,-83 -68,-150 -150,-150l-244 0c-82,0 -150,67 -150,150l0 800c0,83 -67,150 -150,150l-208 0c-82,0 -150,68 -150,150l0 180c0,83 68,150 150,150l208 0c83,0 150,67 150,150l0 2051c0,741 445,1030 1030,1030z"/>
   <path class="fil2" d="M31611 5483c-769,0 -1347,-635 -1347,-1419l0 -14c0,-769 543,-1411 1333,-1411 769,0 1355,642 1355,1425l0 15c0,769 -550,1404 -1341,1404zm-14 486c1101,0 1912,-874 1912,-1905l0 -14c0,-1030 -804,-1891 -1898,-1891 -1100,0 -1905,875 -1905,1905l0 15c0,1030 798,1890 1891,1890z"/>
   <path class="fil2" d="M27547 5969c621,0 1038,-243 1384,-593 29,-30 44,-66 43,-108 -1,-42 -17,-78 -47,-107l-130 -122c-58,-54 -149,-54 -206,1 -272,259 -602,443 -1015,443 -762,0 -1341,-628 -1341,-1419l0 -14c0,-783 564,-1411 1305,-1411 435,0 738,191 1001,443 30,29 66,43 108,42 41,-1 77,-17 105,-47l154 -163c57,-60 54,-155 -5,-211 -323,-309 -734,-544 -1356,-544 -1065,0 -1869,875 -1869,1905l0 15c0,1023 804,1890 1869,1890z"/>
   <path class="fil2" d="M23245 5969l244 0c82,0 150,-67 150,-150l0 -1303c0,-1055 596,-1624 1347,-1669 80,-5 141,-70 141,-150l0 -287c0,-43 -16,-80 -47,-110 -31,-29 -69,-43 -112,-40 -437,28 -800,247 -1063,572 -40,51 -105,69 -166,48 -61,-22 -100,-77 -100,-142l0 -266c0,-83 -68,-150 -150,-150l-244 0c-82,0 -150,67 -150,150l0 3347c0,83 68,150 150,150z"/>
   <path class="fil2" d="M19167 3664c133,-612 583,-1046 1155,-1046 655,0 1029,467 1139,1050 9,45 -2,88 -31,123 -30,36 -70,55 -116,55l-2001 0c-47,0 -87,-20 -116,-56 -30,-37 -40,-80 -30,-126zm145 619l2575 0c82,0 149,-66 150,-148 0,-15 0,-29 0,-42 0,-1073 -621,-1934 -1700,-1934 -1009,0 -1750,847 -1750,1905 0,1136 818,1905 1820,1905 625,0 1048,-224 1394,-569 30,-30 45,-67 44,-110 -1,-43 -18,-79 -50,-108l-119 -106c-58,-52 -145,-51 -202,1 -276,256 -605,420 -1053,420 -589,0 -1114,-375 -1255,-1032 -10,-46 0,-90 30,-126 29,-37 69,-56 116,-56z"/>
   <path class="fil2" d="M12824 5969l244 0c82,0 150,-67 150,-150l0 -3357c0,-67 41,-123 105,-143 64,-20 131,4 168,59l1526 2237 28 0 1525 -2243c38,-55 104,-79 168,-59 64,20 106,76 106,143l0 3363c0,83 67,150 150,150l257 0c83,0 150,-67 150,-150l0 -4638c0,-83 -67,-150 -150,-150l-334 0c-51,0 -96,23 -125,66l-1629 2442c-29,43 -73,67 -125,67 -52,0 -96,-24 -125,-67l-1630 -2442c-28,-43 -73,-66 -125,-66l-334 0c-82,0 -150,67 -150,150l0 4638c0,83 68,150 150,150z"/>
  </g>
 </g>
</svg>
