<?xml version="1.0" encoding="UTF-8"?>
<!DOCTYPE svg PUBLIC "-//W3C//DTD SVG 1.1//EN" "http://www.w3.org/Graphics/SVG/1.1/DTD/svg11.dtd">
<svg xmlns="http://www.w3.org/2000/svg" xml:space="preserve" width="100%" height="100%" version="1.1" style="shape-rendering:geometricPrecision; text-rendering:geometricPrecision; image-rendering:optimizeQuality; fill-rule:evenodd; clip-rule:evenodd"
viewBox="0 0 13277 2117"
 xmlns:xlink="http://www.w3.org/1999/xlink">
 <defs>
  <style type="text/css">
   <![CDATA[
    .fil0 {fill:#488286}
    .fil1 {fill:#488286;fill-rule:nonzero}
   ]]>
  </style>
 </defs>
 <g id="Layer_x0020_1">
  <g id="_2475577656160">
   <g>
    <path class="fil0" d="M45 1814l2026 0c25,0 46,21 46,46l0 211c0,25 -21,46 -46,46l-2026 0c-25,0 -45,-21 -45,-46l0 -211c0,-25 20,-46 45,-46z"/>
    <g>
     <path class="fil0" d="M45 0l2026 0c25,0 46,20 46,45l0 212c0,25 -21,45 -46,45l-816 0c-25,0 -45,21 -45,46l0 211c0,25 -21,46 -46,46l-211 0c-25,0 -46,-21 -46,-46l0 -211c0,-25 -20,-46 -45,-46l-817 0c-25,0 -45,-20 -45,-45l0 -212c0,-25 20,-45 45,-45z"/>
     <path class="fil0" d="M953 907l211 0c25,0 46,21 46,46l0 211c0,25 20,46 45,46l514 0c25,0 45,-21 45,-46l0 -514c0,-25 21,-45 46,-45l211 0c25,0 46,20 46,45l0 560 0 257c0,25 -21,45 -46,45l-257 0 -1512 0 -257 0c-25,0 -45,-20 -45,-45l0 -257 0 -560c0,-25 20,-45 45,-45l212 0c25,0 45,20 45,45l0 514c0,25 21,46 46,46l514 0c25,0 45,-21 45,-46l0 -211c0,-25 21,-46 46,-46z"/>
    </g>
   </g>
   <polygon class="fil1" points="12978,0 12978,344 13277,344 13277,0 "/>
   <polygon class="fil1" points="12978,640 12978,2117 13274,2117 13274,640 "/>
   <path class="fil1" d="M12080 640c-291,0 -400,135 -400,431l0 1046 297 0 0 -1001c0,-129 58,-190 190,-190l520 0 0 -286 -607 0z"/>
   <path class="fil1" d="M10892 1829l-621 0c-148,0 -207,-70 -207,-179 0,-109 56,-174 213,-174l696 0 0 277c0,53 -22,76 -81,76zm-1029 -1189l0 286 883 0c163,0 227,89 227,204l0 112 -702 0c-363,0 -498,156 -498,425 0,279 146,450 495,450l691 0c249,0 305,-84 305,-297l0 -693c0,-280 -146,-487 -515,-487l-886 0z"/>
   <path class="fil1" d="M7827 0l0 2117 297 0 0 -1191 520 0c307,0 444,134 444,360l0 831 299 0 0 -831c0,-405 -246,-646 -743,-646l-520 0 0 -640 -297 0z"/>
   <path class="fil1" d="M7036 1829l-621 0c-148,0 -207,-70 -207,-179 0,-109 56,-174 213,-174l696 0 0 277c0,53 -22,76 -81,76zm-1029 -1189l0 286 884 0c162,0 226,89 226,204l0 112 -702 0c-363,0 -497,156 -497,425 0,279 145,450 494,450l691 0c249,0 305,-84 305,-297l0 -693c0,-280 -146,-487 -515,-487l-886 0z"/>
   <path class="fil1" d="M5051 640c-291,0 -400,135 -400,431l0 1046 296 0 0 -1001c0,-129 59,-190 190,-190l520 0 0 -286 -606 0z"/>
   <path class="fil1" d="M2822 1l0 370 982 0c179,0 260,128 260,282 0,147 -76,291 -263,291l-680 0c-207,0 -296,98 -296,336l0 837 330 0 0 -765c0,-38 17,-53 47,-53l588 0c441,0 606,-345 606,-665 0,-339 -181,-633 -606,-633l-968 0z"/>
  </g>
 </g>
</svg>
