<svg width="100%" height="100%" viewBox="0 0 128 128" fill="none" xmlns="http://www.w3.org/2000/svg">
<path fill-rule="evenodd" clip-rule="evenodd" d="M35.2754 85.4121H92.6963C93.4048 85.4121 94 86.0073 94 86.7158V92.696C94 93.4046 93.4048 93.9997 92.6963 93.9997H35.2754C34.5668 93.9997 34 93.4046 34 92.696V86.7158C34 86.0073 34.5668 85.4121 35.2754 85.4121Z" fill="black"/>
<path fill-rule="evenodd" clip-rule="evenodd" d="M35.2754 34H92.6963C93.4048 34 94 34.5668 94 35.2754V41.2839C94 41.9924 93.4048 42.5593 92.6963 42.5593H69.5692C68.8607 42.5593 68.2938 43.1545 68.2938 43.863V49.8432C68.2938 50.5517 67.6986 51.1469 66.9901 51.1469H61.0099C60.3014 51.1469 59.7062 50.5517 59.7062 49.8432V43.863C59.7062 43.1545 59.1393 42.5593 58.4308 42.5593H35.2754C34.5668 42.5593 34 41.9924 34 41.2839V35.2754C34 34.5668 34.5668 34 35.2754 34Z" fill="black"/>
<path fill-rule="evenodd" clip-rule="evenodd" d="M61.0099 59.7053H66.9901C67.6986 59.7053 68.2938 60.3005 68.2938 61.009V66.9892C68.2938 67.6977 68.8607 68.2929 69.5692 68.2929H84.137C84.8455 68.2929 85.4124 67.6977 85.4124 66.9892V52.4214C85.4124 51.7128 86.0076 51.146 86.7161 51.146H92.6963C93.4048 51.146 94 51.7128 94 52.4214V68.2929V75.5768C94 76.2853 93.4048 76.8522 92.6963 76.8522H85.4124H42.5593H35.2754C34.5668 76.8522 34 76.2853 34 75.5768V68.2929V52.4214C34 51.7128 34.5668 51.146 35.2754 51.146H41.2839C41.9924 51.146 42.5593 51.7128 42.5593 52.4214V66.9892C42.5593 67.6977 43.1545 68.2929 43.863 68.2929H58.4308C59.1393 68.2929 59.7062 67.6977 59.7062 66.9892V61.009C59.7062 60.3005 60.3014 59.7053 61.0099 59.7053Z" fill="black"/>
</svg>
