<svg id="glipy_copy_6" viewBox="0 0 64 64" xmlns="http://www.w3.org/2000/svg" data-name="glipy copy 6"><g fill="#29abe2"><path d="m22.69818 50.73862-7.23468 7.23468a1.00016 1.00016 0 0 0 1.41412 1.41412l7.23468-7.23462a1.00015 1.00015 0 0 0 -1.41412-1.41418z"/><path d="m11.84613 39.88651-7.23474 7.23474a1.00014 1.00014 0 0 0 1.41412 1.41406l7.23468-7.23462a1.00013 1.00013 0 0 0 -1.41406-1.41418z"/><path d="m18.68622 46.72672a1.00014 1.00014 0 0 0 -1.41407-1.41419l-10.85215 10.85211a1.00017 1.00017 0 0 0 1.41419 1.41407z"/><path d="m41.96978 8.52011a13.5 13.5 0 1 0 13.46 12.33 13.54611 13.54611 0 0 0 -13.46-12.33zm3.19 9.39h1.39a1.0002 1.0002 0 0 1 -.00006 2h-1.30992c-.10711 1.89636-1.2951 4.2417-3.24005 4.23h-.53l2.75 4.71a1.00162 1.00162 0 1 1 -1.73 1.01c-.05065-.08728-3.58068-6.12823-3.62994-6.21a1.01055 1.01055 0 0 1 .86-1.51h2.28c.76508-.16181 1.13025-1.403 1.24-2.23h-5.79a1.00012 1.00012 0 0 1 .00006-2h5.6499c-.25-.97-.74-1.56-1.1-1.56h-4.55a1 1 0 0 1 0-2h9.1a1 1 0 0 1 0 2h-1.88a6.06419 6.06419 0 0 1 .49002 1.56002z"/><path d="m53.28509 4.40347-6.78033 2.80011a15.48757 15.48757 0 0 1 10.30053 10.29047l2.79011-6.78027c1.74682-3.8006-2.51075-8.05591-6.31031-6.31031z"/><path d="m28.34387 14.664-21.37087 8.8104a4.85487 4.85487 0 0 0 -.84021 8.49042l15.0707 10.05047a2.89533 2.89533 0 0 1 .78009.78l10.05042 15.07053a4.85343 4.85343 0 0 0 8.49048-.83979l8.80042-21.371c-13.45051 7.25697-28.2389-7.51736-20.98103-20.99103z"/></g></svg>