<svg id="Layer_1"  viewBox="0 0 32 32"  xmlns="http://www.w3.org/2000/svg" data-name="Layer 1"><path d="m17.64 4.125c4.1 1.461 7.536 5.365 7.536 9.966 0 5.847-3.9 11.085-11.294 11.085-4.6 0-8.3-3.437-9.757-7.536a11.993 11.993 0 1 0 13.515-13.515z" fill="#1ce7b2"/><g fill="#394fe1"><path d="m16 29a13 13 0 1 1 13-13 13.015 13.015 0 0 1 -13 13zm0-24a11 11 0 1 0 11 11 11.013 11.013 0 0 0 -11-11z"/><path d="m21 12h-2.142a3.966 3.966 0 0 0 -.414-1h2.556a1 1 0 0 0 0-2h-10a1 1 0 0 0 0 2h4a1.993 1.993 0 0 1 1.722 1h-5.722a1 1 0 0 0 0 2h5.722a1.993 1.993 0 0 1 -1.722 1h-4a1 1 0 0 0 0 2c1.534 0 5.177 2.678 6.051 5.316a1.027 1.027 0 0 0 1.265.633.991.991 0 0 0 .633-1.265 10.909 10.909 0 0 0 -3.593-4.7 4 4 0 0 0 3.501-2.984h2.143a1 1 0 0 0 0-2z"/></g></svg>