<svg xmlns="http://www.w3.org/2000/svg" version="1.1" xmlns:xlink="http://www.w3.org/1999/xlink"  x="0" y="0" viewBox="0 0 451 451" style="enable-background:new 0 0 512 512" xml:space="preserve" class=""><g><path fill="#00acea" d="M92.3 10v113H10V10zM441 10v113h-82.3V10zm0 0" opacity="1" data-original="#00acea" class=""></path><path fill="#61ff00" d="M358.7 123v255l-43.598-19.102-45 19.102-44.602-19.102L180.898 378l-45-19.102L92.301 378V10h266.398zm0 0" opacity="1" data-original="#00efd1" class=""></path><g fill="#083863"><path d="M310.2 246H140.8c-5.523 0-10 4.477-10 10s4.477 10 10 10h169.4c5.523 0 10-4.477 10-10s-4.477-10-10-10zM310.2 294.602H140.8c-5.523 0-10 4.476-10 10 0 5.52 4.477 10 10 10h169.4c5.523 0 10-4.48 10-10 0-5.524-4.477-10-10-10zm0 0" fill="#083863" opacity="1" data-original="#083863" class=""></path><path d="M441 0H10C4.484.016.016 4.484 0 10v113c.016 5.516 4.484 9.984 10 10h72.3v245a10.11 10.11 0 0 0 4.5 8.398 10.305 10.305 0 0 0 9.5.801l39.598-17.398L177 387.199a9.852 9.852 0 0 0 7.898 0l40.602-17.398 40.602 17.398a9.852 9.852 0 0 0 7.898 0l41.102-17.398 39.597 17.398a9.526 9.526 0 0 0 4 .801 9.896 9.896 0 0 0 10-10V133H441c5.516-.016 9.984-4.484 10-10V10c-.016-5.516-4.484-9.984-10-10zM20 113V20h62.3v93zm299.102 236.7a9.893 9.893 0 0 0-7.903 0l-41.097 17.5-40.602-17.4a9.852 9.852 0 0 0-7.898 0L181 367.2l-41.102-17.5a9.884 9.884 0 0 0-7.898 0l-29.602 13V20h246.403v342.7zM431 113h-62.3V20H431zm0 0" fill="#083863" opacity="1" data-original="#083863" class=""></path><path d="M208.602 132.2h-22.704a10.025 10.025 0 0 0-9.304 6.316A10.028 10.028 0 0 0 179 149.5l56.602 53.5a9.995 9.995 0 0 0 6.898 2.7 10.313 10.313 0 0 0 7.3-3.098 9.946 9.946 0 0 0 2.723-7.133 9.959 9.959 0 0 0-3.125-6.969L211 152.2a44.131 44.131 0 0 0 28.7-12.802 43.397 43.397 0 0 0 11.698-21.097h13.704c5.52 0 10-4.477 10-10 0-5.524-4.48-10-10-10h-13.704a43.537 43.537 0 0 0-6-14h19.704c5.52 0 10-4.477 10-10 0-5.524-4.48-10-10-10h-79.204c-5.52 0-10 4.476-10 10 0 5.523 4.48 10 10 10h22.704a24.002 24.002 0 0 1 21.796 14H186c-5.523 0-10 4.476-10 10 0 5.523 4.477 10 10 10h44.5a25.684 25.684 0 0 1-4.8 7 24.901 24.901 0 0 1-17.098 6.898zm0 0" fill="#083863" opacity="1" data-original="#083863" class=""></path></g></g></svg>