<svg xmlns="http://www.w3.org/2000/svg" version="1.1" xmlns:xlink="http://www.w3.org/1999/xlink" width="512" height="512" x="0" y="0" viewBox="0 0 24 24" style="enable-background:new 0 0 512 512" xml:space="preserve" class=""><g><path d="M18.5 5h-3A2.503 2.503 0 0 0 13 7.5V11h-1.382l-1.257-2.515c-.433-.865-1.106-1.609-1.972-2.042C5.69 5.091 3 7.028 3 9.603l.057 4.058a3.499 3.499 0 0 0 1.695 2.949l2.764 1.664A1 1 0 0 1 8 19.13v3.869a1 1 0 1 0 2 0v-3.868a3 3 0 0 0-1.454-2.571L8 16.231V8.544c.186.17.342.375.459.61l1.369 2.739a2 2 0 0 0 1.789 1.106h6.882c1.379 0 2.5-1.122 2.5-2.5v-3c0-1.378-1.121-2.5-2.5-2.5ZM4 2.5a2.5 2.5 0 1 1 5 0 2.5 2.5 0 0 1-5 0ZM6 20v3a1 1 0 1 1-2 0v-3a1 1 0 1 1 2 0Z" fill="#7800b4" opacity="1" data-original="#000000" class=""></path></g></svg>