<?xml version="1.0" encoding="iso-8859-1"?>
<!-- Generator: Adobe Illustrator 19.0.0, SVG Export Plug-In . SVG Version: 6.00 Build 0)  -->
<svg version="1.1" id="Capa_1" xmlns="http://www.w3.org/2000/svg" xmlns:xlink="http://www.w3.org/1999/xlink" x="0px" y="0px"
	 viewBox="0 0 419.117 419.117" style="enable-background:new 0 0 419.117 419.117;" xml:space="preserve">
<path style="fill:#FEAA3B;" d="M298.218,148.066v141.572h108.003c7.122,0,12.896-5.773,12.896-12.896v-68.854
	c0-3.138-0.662-6.24-1.943-9.105l-22.926-51.272c-2.85-6.372-9.178-10.474-16.157-10.474h-68.844
	C303.156,137.038,298.218,141.975,298.218,148.066z"/>
<rect x="32.559" y="268.143" style="fill:#577082;" width="265.66" height="21.493"/>
<path style="fill:#2F4359;" d="M419.117,276.742v-8.597H298.218v21.493h108.003C413.343,289.638,419.117,283.865,419.117,276.742z"
	/>
<g>
	<path style="fill:#FFFFFF;" d="M392.289,234.505v10.338c0,3.43,2.78,6.21,6.21,6.21h5.544c2.39,0,4.327-1.938,4.327-4.328v-14.103
		c0-2.391-1.938-4.328-4.327-4.328h-5.544C395.069,228.294,392.289,231.075,392.289,234.505z"/>
	<path style="fill:#FFFFFF;" d="M319.075,164.254v28.823c0,4.865,3.943,8.808,8.809,8.808h58.468c5.705,0,9.536-5.854,7.252-11.083
		l-12.593-28.822c-1.734-3.969-5.654-6.534-9.985-6.534h-43.142C323.018,155.446,319.075,159.39,319.075,164.254z"/>
</g>
<path style="fill:#D87B16;" d="M341.105,232.839h-42.887v56.799h82.238v-17.449C380.456,250.457,362.838,232.839,341.105,232.839z"
	/>
<rect y="95.704" style="fill:#748DA3;" width="287.47" height="161.69"/>
<polygon style="fill:#577082;" points="229.33,257.398 287.472,257.398 287.472,95.708 67.638,95.708 "/>
<ellipse style="fill:#2F4359;" cx="337.19" cy="290.243" rx="32.905" ry="33.17"/>
<ellipse style="fill:#577082;" cx="337.19" cy="290.243" rx="12.88" ry="12.985"/>
<ellipse style="fill:#2F4359;" cx="192.86" cy="290.243" rx="32.906" ry="33.17"/>
<ellipse style="fill:#577082;" cx="192.86" cy="290.243" rx="12.88" ry="12.985"/>
<ellipse style="fill:#2F4359;" cx="94.62" cy="290.243" rx="32.906" ry="33.17"/>
<ellipse style="fill:#577082;" cx="94.62" cy="290.243" rx="12.88" ry="12.985"/>
<g>
	<rect x="21.497" y="122.824" style="fill:#2F4359;" width="244.48" height="21.493"/>
	<rect x="21.497" y="165.804" style="fill:#2F4359;" width="244.48" height="21.493"/>
	<rect x="21.497" y="208.794" style="fill:#2F4359;" width="244.48" height="21.493"/>
</g>
<g>
</g>
<g>
</g>
<g>
</g>
<g>
</g>
<g>
</g>
<g>
</g>
<g>
</g>
<g>
</g>
<g>
</g>
<g>
</g>
<g>
</g>
<g>
</g>
<g>
</g>
<g>
</g>
<g>
</g>
</svg>
