<?xml version="1.0" encoding="UTF-8" standalone="no"?>
<!-- Created with Inkscape (http://www.inkscape.org/) -->

<svg
   version="1.1"
   id="svg9"
   xml:space="preserve"
   
   viewBox="0 0 682.66669 682.66669"
   xmlns="http://www.w3.org/2000/svg"
   xmlns:svg="http://www.w3.org/2000/svg"><defs
     id="defs13"><clipPath
       clipPathUnits="userSpaceOnUse"
       id="clipPath29"><path
         d="M 0,512 H 512 V 0 H 0 Z"
         id="path27" /></clipPath></defs><g
     id="g15"
     transform="matrix(1.3333333,0,0,-1.3333333,0,682.66667)"><g
       id="g17"
       transform="translate(333.6558,183.293)"><path
         d="m 0,0 v 170.842 h 108.718 l 46.593,-62.124 V 0 Z"
         style="fill:#fd6930;fill-opacity:1;fill-rule:nonzero;stroke:none"
         id="path19" /></g><path
       d="m 333.656,183.293 h 15 v 170.843 h -15 z"
       style="fill:#fd5426;fill-opacity:1;fill-rule:nonzero;stroke:none"
       id="path21" /><g
       id="g23"><g
         id="g25"
         clip-path="url(#clipPath29)"><g
           id="g31"
           transform="translate(488.9668,236.0991)"><path
             d="m 0,0 h -38.967 l -9.287,10.326 c -5.121,5.694 -12.419,8.945 -20.077,8.945 h -55.918 V 86.974 H -23.296 L 0,55.912 Z"
             style="fill:#9dc6fb;fill-opacity:1;fill-rule:nonzero;stroke:none"
             id="path33" /></g><path
           d="M 504.498,152.231 H 7.502 v 31.062 h 496.996 z"
           style="fill:#897e8b;fill-opacity:1;fill-rule:nonzero;stroke:none"
           id="path35" /><path
           d="M 333.656,183.293 H 23.033 v 42.854 h 310.623 z"
           style="fill:#aea7af;fill-opacity:1;fill-rule:nonzero;stroke:none"
           id="path37" /><path
           d="m 23.033,183.293 h 15 v 42.854 h -15 z"
           style="fill:#9f9aa0;fill-opacity:1;fill-rule:nonzero;stroke:none"
           id="path39" /><path
           d="m 333.656,226.146 h -93.187 v 93.187 h 93.187 z"
           style="fill:#edba94;fill-opacity:1;fill-rule:nonzero;stroke:none"
           id="path41" /><path
           d="m 240.469,226.146 h 15 v 93.187 h -15 z"
           style="fill:#e5a87f;fill-opacity:1;fill-rule:nonzero;stroke:none"
           id="path43" /><path
           d="m 240.469,226.146 h -93.187 v 93.187 h 93.187 z"
           style="fill:#edba94;fill-opacity:1;fill-rule:nonzero;stroke:none"
           id="path45" /><path
           d="m 147.282,226.146 h 15 v 93.187 h -15 z"
           style="fill:#e5a87f;fill-opacity:1;fill-rule:nonzero;stroke:none"
           id="path47" /><path
           d="M 147.282,226.193 H 54.095 v 93.187 h 93.187 z"
           style="fill:#edba94;fill-opacity:1;fill-rule:nonzero;stroke:none"
           id="path49" /><path
           d="m 54.095,226.193 h 15 v 93.187 h -15 z"
           style="fill:#e5a87f;fill-opacity:1;fill-rule:nonzero;stroke:none"
           id="path51" /><path
           d="m 287.062,319.333 h -93.187 v 93.187 h 93.187 z"
           style="fill:#edba94;fill-opacity:1;fill-rule:nonzero;stroke:none"
           id="path53" /><path
           d="m 193.875,319.333 h 15 v 93.187 h -15 z"
           style="fill:#e5a87f;fill-opacity:1;fill-rule:nonzero;stroke:none"
           id="path55" /><path
           d="m 193.875,319.333 h -93.187 v 93.187 h 93.187 z"
           style="fill:#edba94;fill-opacity:1;fill-rule:nonzero;stroke:none"
           id="path57" /><path
           d="m 100.688,319.333 h 15 v 93.187 h -15 z"
           style="fill:#e5a87f;fill-opacity:1;fill-rule:nonzero;stroke:none"
           id="path59" /><g
           id="g61"
           transform="translate(154.6201,183.29)"><path
             d="M 0,0 H -27.18"
             style="fill:none;stroke:#000000;stroke-width:15;stroke-linecap:round;stroke-linejoin:round;stroke-miterlimit:10;stroke-dasharray:none;stroke-opacity:1"
             id="path63" /></g><g
           id="g65"
           transform="translate(55.27,183.29)"><path
             d="M 0,0 H -32.24 V 42.86 H 278.39 V 0 H 171.51"
             style="fill:none;stroke:#000000;stroke-width:15;stroke-linecap:round;stroke-linejoin:round;stroke-miterlimit:10;stroke-dasharray:none;stroke-opacity:1"
             id="path67" /></g><g
           id="g69"
           transform="translate(374.5898,354.1396)"><path
             d="M 0,0 H -40.93 V -170.85 H 7.08"
             style="fill:none;stroke:#000000;stroke-width:15;stroke-linecap:round;stroke-linejoin:round;stroke-miterlimit:10;stroke-dasharray:none;stroke-opacity:1"
             id="path71" /></g><g
           id="g73"
           transform="translate(407.2798,354.1396)"><path
             d="m 0,0 h 35.09 l 46.6,-62.13 V -170.85 H 46.55"
             style="fill:none;stroke:#000000;stroke-width:15;stroke-linecap:round;stroke-linejoin:round;stroke-miterlimit:10;stroke-dasharray:none;stroke-opacity:1"
             id="path75" /></g><g
           id="g77"
           transform="translate(488.9702,183.29)"><path
             d="M 0,0 H 15.53 V -31.06 H -21.64"
             style="fill:none;stroke:#000000;stroke-width:15;stroke-linecap:round;stroke-linejoin:round;stroke-miterlimit:10;stroke-dasharray:none;stroke-opacity:1"
             id="path79" /></g><g
           id="g81"
           transform="translate(381.6699,183.29)"><path
             d="M 0,0 H -154.89"
             style="fill:none;stroke:#000000;stroke-width:15;stroke-linecap:round;stroke-linejoin:round;stroke-miterlimit:10;stroke-dasharray:none;stroke-opacity:1"
             id="path83" /></g><g
           id="g85"
           transform="translate(286.25,152.231)"><path
             d="M 0,0 -45.97,-0.001"
             style="fill:none;stroke:#000000;stroke-width:15;stroke-linecap:round;stroke-linejoin:round;stroke-miterlimit:10;stroke-dasharray:none;stroke-opacity:1"
             id="path87" /></g><g
           id="g89"
           transform="translate(41.77,152.23)"><path
             d="M 0,0 H -34.27 V 31.06 H 13.5"
             style="fill:none;stroke:#000000;stroke-width:15;stroke-linecap:round;stroke-linejoin:round;stroke-miterlimit:10;stroke-dasharray:none;stroke-opacity:1"
             id="path91" /></g><g
           id="g93"
           transform="translate(141.1201,152.23)"><path
             d="M 0,0 H -0.18"
             style="fill:none;stroke:#000000;stroke-width:15;stroke-linecap:round;stroke-linejoin:round;stroke-miterlimit:10;stroke-dasharray:none;stroke-opacity:1"
             id="path95" /></g><g
           id="g97"
           transform="translate(368.1699,152.23)"><path
             d="M 0,0 H -49.23"
             style="fill:none;stroke:#000000;stroke-width:15;stroke-linecap:round;stroke-linejoin:round;stroke-miterlimit:10;stroke-dasharray:none;stroke-opacity:1"
             id="path99" /></g><g
           id="g101"
           transform="translate(467.4214,149.1519)"><path
             d="m 0,0 c 0,-27.433 -22.239,-49.672 -49.672,-49.672 -27.433,0 -49.673,22.239 -49.673,49.672 0,27.434 22.24,49.672 49.673,49.672 C -22.239,49.672 0,27.434 0,0"
             style="fill:#685e67;fill-opacity:1;fill-rule:nonzero;stroke:none"
             id="path103" /></g><g
           id="g105"
           transform="translate(467.4214,149.1519)"><path
             d="m 0,0 c 0,-27.433 -22.239,-49.672 -49.672,-49.672 -27.433,0 -49.673,22.239 -49.673,49.672 0,27.434 22.24,49.672 49.673,49.672 C -22.239,49.672 0,27.434 0,0 Z"
             style="fill:none;stroke:#000000;stroke-width:15;stroke-linecap:round;stroke-linejoin:round;stroke-miterlimit:10;stroke-dasharray:none;stroke-opacity:1"
             id="path107" /></g><g
           id="g109"
           transform="translate(436.9937,149.1519)"><path
             d="m 0,0 c 0,-10.628 -8.616,-19.244 -19.245,-19.244 -10.628,0 -19.244,8.616 -19.244,19.244 0,10.628 8.616,19.245 19.244,19.245 C -8.616,19.245 0,10.628 0,0"
             style="fill:#f1f6f7;fill-opacity:1;fill-rule:nonzero;stroke:none"
             id="path111" /></g><g
           id="g113"
           transform="translate(436.9937,149.1519)"><path
             d="m 0,0 c 0,-10.628 -8.616,-19.244 -19.245,-19.244 -10.628,0 -19.244,8.616 -19.244,19.244 0,10.628 8.616,19.245 19.244,19.245 C -8.616,19.245 0,10.628 0,0 Z"
             style="fill:none;stroke:#000000;stroke-width:15;stroke-linecap:round;stroke-linejoin:round;stroke-miterlimit:10;stroke-dasharray:none;stroke-opacity:1"
             id="path115" /></g><g
           id="g117"
           transform="translate(141.0273,149.1519)"><path
             d="m 0,0 c 0,-27.433 -22.239,-49.672 -49.672,-49.672 -27.433,0 -49.672,22.239 -49.672,49.672 0,27.434 22.239,49.672 49.672,49.672 C -22.239,49.672 0,27.434 0,0"
             style="fill:#685e67;fill-opacity:1;fill-rule:nonzero;stroke:none"
             id="path119" /></g><g
           id="g121"
           transform="translate(141.0273,149.1519)"><path
             d="m 0,0 c 0,-27.433 -22.239,-49.672 -49.672,-49.672 -27.433,0 -49.672,22.239 -49.672,49.672 0,27.434 22.239,49.672 49.672,49.672 C -22.239,49.672 0,27.434 0,0 Z"
             style="fill:none;stroke:#000000;stroke-width:15;stroke-linecap:round;stroke-linejoin:round;stroke-miterlimit:10;stroke-dasharray:none;stroke-opacity:1"
             id="path123" /></g><g
           id="g125"
           transform="translate(110.6001,149.1519)"><path
             d="m 0,0 c 0,-10.628 -8.616,-19.244 -19.245,-19.244 -10.628,0 -19.244,8.616 -19.244,19.244 0,10.628 8.616,19.245 19.244,19.245 C -8.616,19.245 0,10.628 0,0"
             style="fill:#f1f6f7;fill-opacity:1;fill-rule:nonzero;stroke:none"
             id="path127" /></g><g
           id="g129"
           transform="translate(110.6001,149.1519)"><path
             d="m 0,0 c 0,-10.628 -8.616,-19.244 -19.245,-19.244 -10.628,0 -19.244,8.616 -19.244,19.244 0,10.628 8.616,19.245 19.244,19.245 C -8.616,19.245 0,10.628 0,0 Z"
             style="fill:none;stroke:#000000;stroke-width:15;stroke-linecap:round;stroke-linejoin:round;stroke-miterlimit:10;stroke-dasharray:none;stroke-opacity:1"
             id="path131" /></g><g
           id="g133"
           transform="translate(240.3721,149.1519)"><path
             d="m 0,0 c 0,-27.433 -22.239,-49.672 -49.672,-49.672 -27.433,0 -49.673,22.239 -49.673,49.672 0,27.434 22.24,49.672 49.673,49.672 C -22.239,49.672 0,27.434 0,0"
             style="fill:#685e67;fill-opacity:1;fill-rule:nonzero;stroke:none"
             id="path135" /></g><g
           id="g137"
           transform="translate(240.3721,149.1519)"><path
             d="m 0,0 c 0,-27.433 -22.239,-49.672 -49.672,-49.672 -27.433,0 -49.673,22.239 -49.673,49.672 0,27.434 22.24,49.672 49.673,49.672 C -22.239,49.672 0,27.434 0,0 Z"
             style="fill:none;stroke:#000000;stroke-width:15;stroke-linecap:round;stroke-linejoin:round;stroke-miterlimit:10;stroke-dasharray:none;stroke-opacity:1"
             id="path139" /></g><g
           id="g141"
           transform="translate(209.9443,149.1519)"><path
             d="m 0,0 c 0,-10.628 -8.616,-19.244 -19.245,-19.244 -10.628,0 -19.244,8.616 -19.244,19.244 0,10.628 8.616,19.245 19.244,19.245 C -8.616,19.245 0,10.628 0,0"
             style="fill:#f1f6f7;fill-opacity:1;fill-rule:nonzero;stroke:none"
             id="path143" /></g><g
           id="g145"
           transform="translate(209.9443,149.1519)"><path
             d="m 0,0 c 0,-10.628 -8.616,-19.244 -19.245,-19.244 -10.628,0 -19.244,8.616 -19.244,19.244 0,10.628 8.616,19.245 19.244,19.245 C -8.616,19.245 0,10.628 0,0 Z"
             style="fill:none;stroke:#000000;stroke-width:15;stroke-linecap:round;stroke-linejoin:round;stroke-miterlimit:10;stroke-dasharray:none;stroke-opacity:1"
             id="path147" /></g><g
           id="g149"
           transform="translate(333.6558,323.0732)"><path
             d="M 0,0 H 128.523"
             style="fill:none;stroke:#000000;stroke-width:15;stroke-linecap:round;stroke-linejoin:round;stroke-miterlimit:10;stroke-dasharray:none;stroke-opacity:1"
             id="path151" /></g><g
           id="g153"
           transform="translate(364.7178,323.0732)"><path
             d="m 0,0 v -67.703 h 55.918 c 7.658,0 14.956,-3.251 20.077,-8.945 l 9.287,-10.326 h 38.967"
             style="fill:none;stroke:#000000;stroke-width:15;stroke-linecap:round;stroke-linejoin:round;stroke-miterlimit:10;stroke-dasharray:none;stroke-opacity:1"
             id="path155" /></g><g
           id="g157"
           transform="translate(364.7178,225.2275)"><path
             d="M 0,0 H 13.907"
             style="fill:none;stroke:#000000;stroke-width:15;stroke-linecap:round;stroke-linejoin:round;stroke-miterlimit:10;stroke-dasharray:none;stroke-opacity:1"
             id="path159" /></g><g
           id="g161"
           transform="translate(54.1001,252.3696)"><path
             d="M 0,0 V -26.22 H 93.18 V 66.96 H 0 V 32.69"
             style="fill:none;stroke:#000000;stroke-width:15;stroke-linecap:round;stroke-linejoin:round;stroke-miterlimit:10;stroke-dasharray:none;stroke-opacity:1"
             id="path163" /></g><g
           id="g165"
           transform="translate(85.1577,319.3335)"><path
             d="m 0,0 v -35.344 l 15.531,6 15.531,-6 V 0 Z"
             style="fill:#fd6930;fill-opacity:1;fill-rule:nonzero;stroke:none"
             id="path167" /></g><g
           id="g169"
           transform="translate(85.1577,319.3335)"><path
             d="m 0,0 v -35.344 l 15.531,6 15.531,-6 V 0 Z"
             style="fill:none;stroke:#000000;stroke-width:15;stroke-linecap:round;stroke-linejoin:round;stroke-miterlimit:10;stroke-dasharray:none;stroke-opacity:1"
             id="path171" /></g><path
           d="m 240.469,226.146 h -93.187 v 93.187 h 93.187 z"
           style="fill:none;stroke:#000000;stroke-width:15;stroke-linecap:round;stroke-linejoin:round;stroke-miterlimit:10;stroke-dasharray:none;stroke-opacity:1"
           id="path173" /><g
           id="g175"
           transform="translate(178.3442,319.3335)"><path
             d="m 0,0 v -35.344 l 15.531,6 15.531,-6 V 0 Z"
             style="fill:#fd6930;fill-opacity:1;fill-rule:nonzero;stroke:none"
             id="path177" /></g><g
           id="g179"
           transform="translate(178.3442,319.3335)"><path
             d="m 0,0 v -35.344 l 15.531,6 15.531,-6 V 0 Z"
             style="fill:none;stroke:#000000;stroke-width:15;stroke-linecap:round;stroke-linejoin:round;stroke-miterlimit:10;stroke-dasharray:none;stroke-opacity:1"
             id="path181" /></g><path
           d="m 193.875,319.333 h -93.187 v 93.187 h 93.187 z"
           style="fill:none;stroke:#000000;stroke-width:15;stroke-linecap:round;stroke-linejoin:round;stroke-miterlimit:10;stroke-dasharray:none;stroke-opacity:1"
           id="path183" /><g
           id="g185"
           transform="translate(131.751,412.52)"><path
             d="m 0,0 v -35.343 l 15.531,6 15.531,-6 V 0 Z"
             style="fill:#fd6930;fill-opacity:1;fill-rule:nonzero;stroke:none"
             id="path187" /></g><g
           id="g189"
           transform="translate(131.751,412.52)"><path
             d="m 0,0 v -35.343 l 15.531,6 15.531,-6 V 0 Z"
             style="fill:none;stroke:#000000;stroke-width:15;stroke-linecap:round;stroke-linejoin:round;stroke-miterlimit:10;stroke-dasharray:none;stroke-opacity:1"
             id="path191" /></g><path
           d="m 287.062,319.333 h -93.187 v 93.187 h 93.187 z"
           style="fill:none;stroke:#000000;stroke-width:15;stroke-linecap:round;stroke-linejoin:round;stroke-miterlimit:10;stroke-dasharray:none;stroke-opacity:1"
           id="path193" /><g
           id="g195"
           transform="translate(224.938,412.52)"><path
             d="m 0,0 v -35.343 l 15.531,6 15.531,-6 V 0 Z"
             style="fill:#fd6930;fill-opacity:1;fill-rule:nonzero;stroke:none"
             id="path197" /></g><g
           id="g199"
           transform="translate(224.938,412.52)"><path
             d="m 0,0 v -35.343 l 15.531,6 15.531,-6 V 0 Z"
             style="fill:none;stroke:#000000;stroke-width:15;stroke-linecap:round;stroke-linejoin:round;stroke-miterlimit:10;stroke-dasharray:none;stroke-opacity:1"
             id="path201" /></g><path
           d="m 333.656,226.146 h -93.187 v 93.187 h 93.187 z"
           style="fill:none;stroke:#000000;stroke-width:15;stroke-linecap:round;stroke-linejoin:round;stroke-miterlimit:10;stroke-dasharray:none;stroke-opacity:1"
           id="path203" /><g
           id="g205"
           transform="translate(271.5312,319.3335)"><path
             d="m 0,0 v -35.344 l 15.531,6 15.531,-6 V 0 Z"
             style="fill:#fd6930;fill-opacity:1;fill-rule:nonzero;stroke:none"
             id="path207" /></g><g
           id="g209"
           transform="translate(271.5312,319.3335)"><path
             d="m 0,0 v -35.344 l 15.531,6 15.531,-6 V 0 Z"
             style="fill:none;stroke:#000000;stroke-width:15;stroke-linecap:round;stroke-linejoin:round;stroke-miterlimit:10;stroke-dasharray:none;stroke-opacity:1"
             id="path211" /></g><g
           id="g213"
           transform="translate(302.5933,183.293)"><path
             d="M 0,0 V 42.854"
             style="fill:none;stroke:#000000;stroke-width:15;stroke-linecap:round;stroke-linejoin:round;stroke-miterlimit:10;stroke-dasharray:none;stroke-opacity:1"
             id="path215" /></g></g></g></g></svg>
