<svg width="48" height="22" viewBox="0 0 48 22" fill="none" xmlns="http://www.w3.org/2000/svg">
<g id="upi-ar21 3">
<path id="Vector" fill-rule="evenodd" clip-rule="evenodd" d="M38.2715 15.73L44.0003 10.9395L41.2867 5.98364L38.2715 15.73Z" fill="#097939"/>
<path id="Vector_2" fill-rule="evenodd" clip-rule="evenodd" d="M36.3418 15.73L42.0706 10.9395L39.357 5.98364L36.3418 15.73Z" fill="#ED752E"/>
<path id="Vector_3" fill-rule="evenodd" clip-rule="evenodd" d="M8.96355 6.03912L6.55155 13.9133L15.1143 13.9683L17.4663 6.03912H19.6371L16.8171 15.2571C16.7091 15.6091 16.2979 15.8951 15.8991 15.8951H4.92355C4.25795 15.8951 3.86355 15.4185 4.04355 14.8318L6.73315 6.03912H8.96355ZM35.4363 5.98412H37.6071L34.592 15.8951H32.36L35.4363 5.98412ZM19.8787 10.1135L30.7332 10.0585L31.4571 7.96595H20.4211L21.0843 6.03875L32.8443 5.93975C33.5763 5.93352 34.0124 6.45309 33.8196 7.10099L32.7115 10.8131C32.5183 11.4607 31.7675 11.9854 31.0355 11.9854H21.3259L20.1811 16.0601H18.0691L19.8787 10.1135Z" fill="#747474"/>
</g>
</svg>
